{"glyphs":{"0":{"ha":692,"x_min":32,"x_max":660,"o":"m 346 -15 q 167 38 238 -15 q 65 203 97 92 q 32 488 32 315 q 65 772 32 660 q 167 939 97 883 q 346 994 238 994 q 525 939 456 994 q 627 771 594 883 q 660 488 660 658 q 627 206 660 318 q 525 40 594 94 q 346 -15 456 -15 m 346 178 q 415 250 394 178 q 435 488 435 322 q 415 726 435 651 q 346 801 394 801 q 277 726 297 801 q 257 486 257 651 q 277 250 257 322 q 346 178 297 178 z "},"1":{"ha":692,"x_min":42,"x_max":683,"o":"m 83 0 l 83 186 l 274 186 l 274 786 l 364 782 l 128 646 l 42 817 l 325 979 l 508 979 l 508 186 l 683 186 l 683 0 l 83 0 z "},"2":{"ha":692,"x_min":33,"x_max":647,"o":"m 74 0 l 74 171 l 317 486 q 360 553 343 519 q 387 619 378 586 q 396 683 396 651 q 365 771 396 739 q 286 803 335 803 q 192 782 244 803 q 100 725 139 761 l 33 896 q 169 969 89 944 q 329 994 249 994 q 488 960 421 994 q 589 863 554 926 q 624 714 624 799 q 606 609 624 658 q 562 516 588 560 q 510 435 536 472 q 465 371 483 399 l 363 204 l 353 186 l 647 186 l 647 0 l 74 0 z "},"3":{"ha":692,"x_min":21,"x_max":643,"o":"m 318 -15 q 206 -3 263 -15 q 101 30 149 8 q 21 81 53 51 l 86 254 q 190 198 129 219 q 301 176 250 176 q 367 190 340 176 q 406 228 393 203 q 419 286 419 253 q 388 373 419 343 q 306 403 357 403 l 167 403 l 167 583 l 289 583 q 347 598 324 583 q 383 638 371 613 q 396 700 396 664 q 370 776 396 750 q 293 803 344 803 q 197 782 249 803 q 101 724 144 761 l 33 894 q 168 969 88 943 q 331 994 249 994 q 487 963 422 994 q 585 876 551 932 q 619 739 619 819 q 583 598 619 657 q 482 507 546 539 l 483 500 q 563 455 526 485 q 621 381 599 425 q 643 272 643 336 q 603 122 643 186 q 492 21 564 57 q 318 -15 419 -15 z "},"4":{"ha":692,"x_min":29,"x_max":671,"o":"m 389 0 l 389 171 l 29 171 l 29 335 l 354 979 l 590 979 l 590 349 l 671 349 l 671 171 l 590 171 l 590 0 l 389 0 m 404 349 l 404 715 l 401 715 l 217 339 l 204 349 l 404 349 z "},"5":{"ha":692,"x_min":51,"x_max":658,"o":"m 328 -15 q 223 -4 274 -15 q 128 28 172 7 q 51 82 85 50 l 118 254 q 215 197 167 217 q 311 176 264 176 q 405 211 371 176 q 439 319 439 246 q 412 417 439 383 q 335 450 385 450 q 274 434 300 450 q 222 383 249 418 l 72 383 l 72 979 l 608 979 l 608 792 l 261 792 l 261 551 l 283 551 q 342 608 306 586 q 424 631 379 631 q 552 595 500 631 q 631 494 604 560 q 658 335 658 428 q 619 144 658 222 q 505 25 579 65 q 328 -15 431 -15 z "},"6":{"ha":692,"x_min":40,"x_max":661,"o":"m 360 -15 q 182 40 253 -15 q 76 203 111 96 q 40 467 40 311 q 83 759 40 642 q 208 935 126 876 q 408 994 290 994 q 505 984 460 994 q 589 953 550 974 q 661 901 628 933 l 594 735 q 510 789 554 772 q 421 806 465 806 q 332 779 367 806 q 278 710 297 753 q 251 616 258 667 q 244 518 244 565 l 244 479 l 253 479 q 290 567 267 533 q 347 618 313 601 q 426 635 381 635 q 547 597 496 635 q 627 489 599 560 q 656 322 656 418 q 621 143 656 219 q 520 26 586 67 q 360 -15 454 -15 m 365 164 q 413 181 394 164 q 442 231 432 197 q 451 313 451 264 q 442 394 451 363 q 413 442 432 426 q 365 458 394 458 q 317 442 336 458 q 288 393 299 426 q 278 311 278 360 q 288 229 278 263 q 316 180 297 196 q 365 164 335 164 z "},"7":{"ha":692,"x_min":44,"x_max":649,"o":"m 53 0 l 435 858 l 439 768 l 44 768 l 44 979 l 649 979 l 649 801 l 311 0 l 53 0 z "},"8":{"ha":692,"x_min":28,"x_max":664,"o":"m 346 -15 q 111 59 194 -15 q 28 264 28 133 q 53 393 28 340 q 121 474 79 446 q 211 501 163 501 l 211 501 q 134 534 171 507 q 74 609 97 561 q 50 724 50 657 q 129 922 50 850 q 346 994 208 994 q 563 922 483 994 q 642 724 642 850 q 619 611 642 658 q 558 535 596 564 q 476 499 519 507 l 476 501 q 568 476 525 504 q 638 395 611 449 q 664 264 664 342 q 581 59 664 133 q 346 -15 497 -15 m 346 163 q 427 195 400 163 q 454 285 454 228 q 427 375 454 343 q 346 407 400 407 q 265 375 292 407 q 238 285 238 343 q 265 195 238 228 q 346 163 293 163 m 346 583 q 410 613 388 583 q 432 700 432 642 q 410 788 432 758 q 346 817 388 817 q 282 788 304 817 q 260 700 260 758 q 282 613 260 642 q 346 583 304 583 z "},"9":{"ha":692,"x_min":32,"x_max":653,"o":"m 285 -15 q 189 -5 233 -15 q 106 26 144 6 q 32 76 67 47 l 99 243 q 183 190 139 207 q 274 174 228 174 q 362 200 328 174 q 415 269 396 226 q 442 363 435 313 q 449 461 449 414 l 449 500 l 440 500 q 403 413 426 447 q 347 363 381 379 q 267 346 313 346 q 147 384 199 346 q 66 492 94 422 q 38 656 38 561 q 72 837 38 761 q 174 953 107 913 q 333 994 240 994 q 512 939 440 994 q 618 776 583 883 q 653 513 653 669 q 610 221 653 339 q 485 44 567 103 q 285 -15 403 -15 m 328 521 q 376 538 357 521 q 404 587 394 554 q 414 669 414 619 q 405 751 414 718 q 377 799 396 783 q 328 815 358 815 q 279 798 299 815 q 251 749 260 781 q 242 667 242 717 q 251 586 242 619 q 280 537 261 553 q 328 521 299 521 z "},"A":{"ha":951,"x_min":-3,"x_max":956,"o":"m -3 0 l 369 979 l 583 979 l 956 0 l 701 0 l 615 269 l 703 178 l 242 178 l 329 269 l 243 0 l -3 0 m 469 735 l 338 325 l 318 375 l 626 375 l 606 325 l 476 735 l 469 735 z "},"Á":{"ha":951,"x_min":-3,"x_max":956,"o":"m -3 0 l 369 979 l 583 979 l 956 0 l 701 0 l 615 269 l 703 178 l 242 178 l 329 269 l 243 0 l -3 0 m 469 735 l 338 325 l 318 375 l 626 375 l 606 325 l 476 735 l 469 735 m 388 1063 l 521 1296 l 775 1296 l 567 1063 l 388 1063 z "},"Ă":{"ha":951,"x_min":-3,"x_max":956,"o":"m -3 0 l 369 979 l 583 979 l 956 0 l 701 0 l 615 269 l 703 178 l 242 178 l 329 269 l 243 0 l -3 0 m 469 735 l 338 325 l 318 375 l 626 375 l 606 325 l 476 735 l 469 735 m 476 1056 q 308 1117 369 1056 q 246 1296 247 1179 l 379 1306 q 403 1235 382 1260 q 476 1210 425 1210 q 550 1235 528 1210 q 574 1306 572 1260 l 707 1296 q 644 1117 706 1179 q 476 1056 583 1056 z "},"Ắ":{"ha":951,"x_min":-3,"x_max":956,"o":"m -3 0 l 369 979 l 583 979 l 956 0 l 701 0 l 615 269 l 703 178 l 242 178 l 329 269 l 243 0 l -3 0 m 469 735 l 338 325 l 318 375 l 626 375 l 606 325 l 476 735 l 469 735 m 476 1061 q 298 1117 357 1061 q 243 1268 239 1174 l 365 1279 q 396 1213 364 1235 q 476 1192 428 1192 q 558 1213 526 1192 q 588 1279 589 1233 l 710 1268 q 654 1117 713 1174 q 476 1061 596 1061 m 404 1279 l 478 1476 l 686 1476 l 539 1279 l 404 1279 z "},"Ặ":{"ha":951,"x_min":-3,"x_max":956,"o":"m -3 0 l 369 979 l 583 979 l 956 0 l 701 0 l 615 269 l 703 178 l 242 178 l 329 269 l 243 0 l -3 0 m 469 735 l 338 325 l 318 375 l 626 375 l 606 325 l 476 735 l 469 735 m 372 -307 l 372 -107 l 578 -107 l 578 -307 l 372 -307 m 476 1056 q 308 1117 369 1056 q 246 1296 247 1179 l 379 1306 q 403 1235 382 1260 q 476 1210 425 1210 q 550 1235 528 1210 q 574 1306 572 1260 l 707 1296 q 644 1117 706 1179 q 476 1056 583 1056 z "},"Ằ":{"ha":951,"x_min":-3,"x_max":956,"o":"m -3 0 l 369 979 l 583 979 l 956 0 l 701 0 l 615 269 l 703 178 l 242 178 l 329 269 l 243 0 l -3 0 m 469 735 l 338 325 l 318 375 l 626 375 l 606 325 l 476 735 l 469 735 m 476 1061 q 298 1117 357 1061 q 243 1268 239 1174 l 365 1279 q 396 1213 364 1235 q 476 1192 428 1192 q 558 1213 526 1192 q 588 1279 589 1233 l 710 1268 q 654 1117 713 1174 q 476 1061 596 1061 m 418 1279 l 274 1476 l 482 1476 l 554 1279 l 418 1279 z "},"Ẳ":{"ha":951,"x_min":-3,"x_max":956,"o":"m -3 0 l 369 979 l 583 979 l 956 0 l 701 0 l 615 269 l 703 178 l 242 178 l 329 269 l 243 0 l -3 0 m 469 735 l 338 325 l 318 375 l 626 375 l 606 325 l 476 735 l 469 735 m 476 1061 q 298 1117 357 1061 q 243 1268 239 1174 l 365 1279 q 396 1213 364 1235 q 476 1192 428 1192 q 558 1213 526 1192 q 588 1279 589 1233 l 710 1268 q 654 1117 713 1172 q 476 1061 596 1061 m 415 1272 q 419 1306 415 1293 q 431 1331 424 1319 q 442 1352 438 1343 q 446 1374 446 1361 q 438 1394 446 1386 q 410 1403 429 1403 q 381 1397 397 1403 q 351 1383 365 1392 l 324 1472 q 392 1498 353 1489 q 478 1507 432 1507 q 582 1483 546 1507 q 618 1419 618 1460 q 606 1376 618 1393 q 580 1344 594 1358 q 552 1313 565 1331 q 539 1272 539 1296 l 415 1272 z "},"Ẵ":{"ha":951,"x_min":-3,"x_max":956,"o":"m -3 0 l 369 979 l 583 979 l 956 0 l 701 0 l 615 269 l 703 178 l 242 178 l 329 269 l 243 0 l -3 0 m 469 735 l 338 325 l 318 375 l 626 375 l 606 325 l 476 735 l 469 735 m 476 1061 q 301 1119 360 1061 q 243 1272 242 1178 l 363 1276 q 401 1206 369 1228 q 476 1183 433 1183 q 552 1206 519 1183 q 590 1276 585 1228 l 710 1272 q 652 1119 711 1178 q 476 1061 593 1061 m 346 1324 l 238 1331 q 254 1417 242 1381 q 297 1474 267 1453 q 382 1494 326 1494 q 451 1481 422 1494 q 500 1456 479 1467 q 526 1440 508 1450 q 563 1431 544 1431 q 594 1449 583 1431 q 607 1496 604 1468 l 717 1490 q 679 1369 713 1413 q 563 1325 646 1325 q 497 1338 524 1325 q 454 1361 471 1351 q 422 1381 438 1372 q 392 1389 407 1389 q 359 1371 369 1389 q 346 1324 349 1353 z "},"Ǎ":{"ha":951,"x_min":-3,"x_max":956,"o":"m -3 0 l 369 979 l 583 979 l 956 0 l 701 0 l 615 269 l 703 178 l 242 178 l 329 269 l 243 0 l -3 0 m 469 735 l 338 325 l 318 375 l 626 375 l 606 325 l 476 735 l 469 735 m 381 1063 l 238 1285 l 408 1285 l 476 1169 l 546 1285 l 715 1285 l 572 1063 l 381 1063 z "},"Â":{"ha":951,"x_min":-3,"x_max":956,"o":"m -3 0 l 369 979 l 583 979 l 956 0 l 701 0 l 615 269 l 703 178 l 242 178 l 329 269 l 243 0 l -3 0 m 469 735 l 338 325 l 318 375 l 626 375 l 606 325 l 476 735 l 469 735 m 238 1063 l 381 1285 l 572 1285 l 715 1063 l 544 1063 l 476 1178 l 407 1063 l 238 1063 z "},"Ấ":{"ha":951,"x_min":-3,"x_max":956,"o":"m -3 0 l 369 979 l 583 979 l 956 0 l 701 0 l 615 269 l 703 178 l 242 178 l 329 269 l 243 0 l -3 0 m 469 735 l 338 325 l 318 375 l 626 375 l 606 325 l 476 735 l 469 735 m 251 1064 l 385 1307 l 576 1307 l 710 1064 l 549 1064 l 481 1200 l 413 1064 l 251 1064 m 638 1258 l 701 1471 l 864 1471 l 763 1258 l 638 1258 z "},"Ậ":{"ha":951,"x_min":-3,"x_max":956,"o":"m -3 0 l 369 979 l 583 979 l 956 0 l 701 0 l 615 269 l 703 178 l 242 178 l 329 269 l 243 0 l -3 0 m 469 735 l 338 325 l 318 375 l 626 375 l 606 325 l 476 735 l 469 735 m 372 -307 l 372 -107 l 578 -107 l 578 -307 l 372 -307 m 238 1063 l 381 1285 l 572 1285 l 715 1063 l 544 1063 l 476 1178 l 407 1063 l 238 1063 z "},"Ầ":{"ha":951,"x_min":-3,"x_max":956,"o":"m -3 0 l 369 979 l 583 979 l 956 0 l 701 0 l 615 269 l 703 178 l 242 178 l 329 269 l 243 0 l -3 0 m 469 735 l 338 325 l 318 375 l 626 375 l 606 325 l 476 735 l 469 735 m 251 1064 l 385 1307 l 576 1307 l 710 1064 l 549 1064 l 481 1200 l 413 1064 l 251 1064 m 669 1258 l 568 1471 l 732 1471 l 794 1258 l 669 1258 z "},"Ẩ":{"ha":951,"x_min":-3,"x_max":956,"o":"m -3 0 l 369 979 l 583 979 l 956 0 l 701 0 l 615 269 l 703 178 l 242 178 l 329 269 l 243 0 l -3 0 m 469 735 l 338 325 l 318 375 l 626 375 l 606 325 l 476 735 l 469 735 m 251 1064 l 385 1251 l 576 1251 l 710 1064 l 549 1064 l 481 1174 l 413 1064 l 251 1064 m 624 1253 q 629 1285 624 1271 q 643 1313 635 1300 q 657 1335 651 1325 q 663 1358 663 1346 q 655 1376 663 1371 q 629 1381 647 1381 q 602 1376 615 1381 q 576 1364 589 1372 l 549 1449 q 613 1472 576 1464 q 690 1481 650 1481 q 788 1459 754 1481 q 821 1399 821 1438 q 810 1357 821 1375 q 785 1324 799 1339 q 759 1291 771 1308 q 746 1253 747 1274 l 624 1253 z "},"Ẫ":{"ha":951,"x_min":-3,"x_max":956,"o":"m -3 0 l 369 979 l 583 979 l 956 0 l 701 0 l 615 269 l 703 178 l 242 178 l 329 269 l 243 0 l -3 0 m 469 735 l 338 325 l 318 375 l 626 375 l 606 325 l 476 735 l 469 735 m 249 1064 l 382 1251 l 574 1251 l 707 1064 l 542 1064 l 478 1169 l 413 1064 l 249 1064 m 346 1301 l 238 1307 q 274 1427 243 1382 q 382 1472 306 1472 q 451 1458 422 1472 q 500 1432 479 1443 q 526 1417 508 1426 q 563 1407 544 1407 q 594 1426 583 1407 q 607 1474 604 1444 l 717 1467 q 676 1346 713 1390 q 563 1301 639 1301 q 497 1315 524 1301 q 454 1338 471 1328 q 422 1357 438 1349 q 392 1365 407 1365 q 360 1347 371 1365 q 346 1301 349 1329 z "},"Ȁ":{"ha":951,"x_min":-3,"x_max":956,"o":"m -3 0 l 369 979 l 583 979 l 956 0 l 701 0 l 615 269 l 703 178 l 242 178 l 329 269 l 243 0 l -3 0 m 469 735 l 338 325 l 318 375 l 626 375 l 606 325 l 476 735 l 469 735 m 515 1063 l 356 1285 l 551 1285 l 646 1063 l 515 1063 m 307 1063 l 124 1285 l 319 1285 l 438 1063 l 307 1063 z "},"Ä":{"ha":951,"x_min":-3,"x_max":956,"o":"m -3 0 l 369 979 l 583 979 l 956 0 l 701 0 l 615 269 l 703 178 l 242 178 l 329 269 l 243 0 l -3 0 m 469 735 l 338 325 l 318 375 l 626 375 l 606 325 l 476 735 l 469 735 m 518 1078 l 518 1272 l 724 1272 l 724 1078 l 518 1078 m 229 1078 l 229 1272 l 435 1272 l 435 1078 l 229 1078 z "},"Ȧ":{"ha":951,"x_min":-3,"x_max":956,"o":"m -3 0 l 369 979 l 583 979 l 956 0 l 701 0 l 615 269 l 703 178 l 242 178 l 329 269 l 243 0 l -3 0 m 469 735 l 338 325 l 318 375 l 626 375 l 606 325 l 476 735 l 469 735 m 372 1079 l 372 1282 l 581 1282 l 581 1079 l 372 1079 z "},"Ạ":{"ha":951,"x_min":-3,"x_max":956,"o":"m -3 0 l 369 979 l 583 979 l 956 0 l 701 0 l 615 269 l 703 178 l 242 178 l 329 269 l 243 0 l -3 0 m 469 735 l 338 325 l 318 375 l 626 375 l 606 325 l 476 735 l 469 735 m 372 -307 l 372 -107 l 578 -107 l 578 -307 l 372 -307 z "},"À":{"ha":951,"x_min":-3,"x_max":956,"o":"m -3 0 l 369 979 l 583 979 l 956 0 l 701 0 l 615 269 l 703 178 l 242 178 l 329 269 l 243 0 l -3 0 m 469 735 l 338 325 l 318 375 l 626 375 l 606 325 l 476 735 l 469 735 m 397 1063 l 190 1285 l 422 1285 l 557 1063 l 397 1063 z "},"Ả":{"ha":951,"x_min":-3,"x_max":956,"o":"m -3 0 l 369 979 l 583 979 l 956 0 l 701 0 l 615 269 l 703 178 l 242 178 l 329 269 l 243 0 l -3 0 m 469 735 l 338 325 l 318 375 l 626 375 l 606 325 l 476 735 l 469 735 m 411 1063 l 411 1088 q 419 1121 411 1107 q 436 1146 426 1135 q 453 1167 446 1157 q 461 1190 461 1176 q 453 1208 461 1203 q 428 1213 444 1213 q 397 1209 413 1213 q 364 1197 381 1206 l 333 1288 q 399 1313 361 1304 q 479 1321 438 1321 q 590 1297 551 1321 q 628 1225 628 1272 q 615 1177 628 1196 q 586 1145 603 1158 q 556 1118 569 1132 q 543 1086 543 1104 l 543 1063 l 411 1063 z "},"Ȃ":{"ha":951,"x_min":-3,"x_max":956,"o":"m -3 0 l 369 979 l 583 979 l 956 0 l 701 0 l 615 269 l 703 178 l 242 178 l 329 269 l 243 0 l -3 0 m 469 735 l 338 325 l 318 375 l 626 375 l 606 325 l 476 735 l 469 735 m 379 1056 l 246 1067 q 308 1245 247 1185 q 476 1306 369 1306 q 644 1245 583 1306 q 707 1067 706 1185 l 574 1056 q 551 1126 572 1101 q 479 1151 529 1151 q 406 1127 429 1151 q 379 1056 382 1103 z "},"Ā":{"ha":951,"x_min":-3,"x_max":956,"o":"m -3 0 l 369 979 l 583 979 l 956 0 l 701 0 l 615 269 l 703 178 l 242 178 l 329 269 l 243 0 l -3 0 m 469 735 l 338 325 l 318 375 l 626 375 l 606 325 l 476 735 l 469 735 m 261 1108 l 261 1268 l 692 1268 l 692 1108 l 261 1108 z "},"Ą":{"ha":951,"x_min":-3,"x_max":956,"o":"m -3 0 l 369 979 l 583 979 l 956 0 l 701 0 l 615 269 l 703 178 l 242 178 l 329 269 l 243 0 l -3 0 m 469 735 l 338 325 l 318 375 l 626 375 l 606 325 l 476 735 l 469 735 m 799 -290 q 680 -256 722 -290 q 638 -157 638 -221 q 672 -39 638 -99 q 767 64 706 21 l 838 0 q 810 -31 822 -14 q 791 -68 799 -49 q 783 -107 783 -87 q 796 -149 783 -135 q 832 -162 808 -162 q 859 -160 844 -162 q 890 -150 874 -157 l 914 -268 q 856 -285 882 -281 q 799 -290 829 -290 z "},"Å":{"ha":951,"x_min":-3,"x_max":956,"o":"m -3 0 l 369 979 l 583 979 l 956 0 l 701 0 l 615 269 l 703 178 l 242 178 l 329 269 l 243 0 l -3 0 m 469 735 l 338 325 l 318 375 l 626 375 l 606 325 l 476 735 l 469 735 m 476 1043 q 389 1065 428 1043 q 327 1126 350 1088 q 304 1213 304 1165 q 327 1299 304 1261 q 389 1360 350 1338 q 476 1382 428 1382 q 564 1360 525 1382 q 626 1299 603 1338 q 649 1213 649 1261 q 626 1126 649 1165 q 564 1065 603 1088 q 476 1043 525 1043 m 475 1126 q 533 1151 510 1126 q 556 1213 556 1175 q 533 1274 556 1250 q 476 1299 510 1299 q 420 1274 443 1299 q 397 1213 397 1250 q 420 1151 397 1175 q 475 1126 443 1126 z "},"Ǻ":{"ha":951,"x_min":-3,"x_max":956,"o":"m -3 0 l 369 979 l 583 979 l 956 0 l 701 0 l 615 269 l 703 178 l 242 178 l 329 269 l 243 0 l -3 0 m 469 735 l 338 325 l 318 375 l 626 375 l 606 325 l 476 735 l 469 735 m 476 1058 q 375 1083 419 1058 q 305 1153 331 1108 q 279 1253 279 1199 q 305 1353 279 1308 q 376 1422 331 1397 q 476 1447 421 1447 q 524 1442 501 1447 q 567 1428 546 1438 l 603 1501 l 792 1501 l 650 1351 q 668 1305 661 1329 q 675 1253 675 1281 q 649 1153 675 1199 q 578 1083 624 1108 q 476 1058 533 1058 m 476 1157 q 540 1184 514 1157 q 565 1253 565 1211 q 540 1324 565 1297 q 476 1350 514 1350 q 414 1324 439 1350 q 389 1253 389 1297 q 414 1184 389 1211 q 476 1157 439 1157 z "},"Ã":{"ha":951,"x_min":-3,"x_max":956,"o":"m -3 0 l 369 979 l 583 979 l 956 0 l 701 0 l 615 269 l 703 178 l 242 178 l 329 269 l 243 0 l -3 0 m 469 735 l 338 325 l 318 375 l 626 375 l 606 325 l 476 735 l 469 735 m 321 1051 l 201 1060 q 240 1212 200 1153 q 357 1271 279 1271 q 436 1255 401 1271 q 493 1232 471 1239 q 532 1215 510 1225 q 579 1206 554 1206 q 621 1226 608 1206 q 632 1278 633 1246 l 751 1271 q 713 1119 753 1178 q 594 1060 674 1060 q 517 1074 553 1060 q 463 1097 481 1089 q 421 1115 446 1104 q 374 1125 396 1125 q 332 1106 344 1125 q 321 1051 319 1086 z "},"Æ":{"ha":1236,"x_min":-50,"x_max":1144,"o":"m -50 0 l 415 979 l 1144 979 l 1144 783 l 672 783 l 753 851 l 807 524 l 696 592 l 1121 592 l 1121 399 l 736 399 l 815 469 l 874 118 l 767 196 l 1144 196 l 1144 0 l 650 0 l 604 272 l 678 174 l 250 174 l 339 264 l 219 0 l -50 0 m 522 725 l 353 333 l 357 372 l 643 372 l 596 324 l 529 725 l 522 725 z "},"Ǽ":{"ha":1236,"x_min":-50,"x_max":1144,"o":"m -50 0 l 415 979 l 1144 979 l 1144 783 l 672 783 l 753 851 l 807 524 l 696 592 l 1121 592 l 1121 399 l 736 399 l 815 469 l 874 118 l 767 196 l 1144 196 l 1144 0 l 650 0 l 604 272 l 678 174 l 250 174 l 339 264 l 219 0 l -50 0 m 522 725 l 353 333 l 357 372 l 643 372 l 596 324 l 529 725 l 522 725 m 508 1063 l 642 1296 l 896 1296 l 688 1063 l 508 1063 z "},"B":{"ha":899,"x_min":100,"x_max":831,"o":"m 100 0 l 100 979 l 492 979 q 721 914 635 979 q 807 724 807 849 q 775 586 807 640 q 699 510 743 532 l 699 506 q 763 467 733 494 q 811 393 792 439 q 831 282 831 347 q 790 131 831 194 q 675 34 749 68 q 503 0 601 0 l 100 0 m 336 186 l 496 186 q 527 191 513 186 q 554 205 542 196 q 576 228 567 214 q 589 258 585 242 q 593 294 593 275 q 589 332 593 315 q 576 362 585 349 q 554 384 567 375 q 527 397 542 393 q 497 401 513 401 l 336 401 l 336 186 m 336 583 l 476 583 q 547 613 522 583 q 572 690 572 642 q 548 766 572 739 q 475 793 524 793 l 336 793 l 336 583 z "},"Ɓ":{"ha":1092,"x_min":6,"x_max":1024,"o":"m 293 0 l 293 813 l 275 813 q 213 789 231 813 q 194 704 194 765 l 194 628 l 6 628 l 6 711 q 72 915 6 850 q 275 979 138 979 l 690 979 q 916 914 832 979 q 1000 724 1000 849 q 968 586 1000 640 q 892 510 936 532 l 892 506 q 956 467 926 494 q 1004 393 985 439 q 1024 282 1024 347 q 983 131 1024 194 q 868 34 942 68 q 696 0 794 0 l 293 0 m 529 185 l 689 185 q 760 215 732 185 q 788 293 788 244 q 760 374 788 346 q 690 403 732 403 l 529 403 l 529 185 m 529 583 l 669 583 q 740 612 715 583 q 765 690 765 640 q 741 767 765 740 q 668 794 717 794 l 529 794 l 529 583 z "},"C":{"ha":840,"x_min":76,"x_max":771,"o":"m 493 -17 q 274 42 368 -17 q 128 213 181 100 q 76 490 76 326 q 129 767 76 654 q 275 937 182 879 q 493 994 368 994 q 653 975 585 994 q 771 906 721 956 l 706 717 q 612 770 657 756 q 514 785 567 785 q 376 717 428 785 q 325 492 325 649 q 376 265 325 335 q 514 194 426 194 q 611 209 567 194 q 704 261 656 224 l 771 74 q 651 4 719 25 q 493 -17 583 -17 z "},"Ć":{"ha":840,"x_min":76,"x_max":776,"o":"m 493 -17 q 274 42 368 -17 q 128 213 181 100 q 76 490 76 326 q 129 767 76 654 q 275 937 182 879 q 493 994 368 994 q 653 975 585 994 q 771 906 721 956 l 706 717 q 612 770 657 756 q 514 785 567 785 q 376 717 428 785 q 325 492 325 649 q 376 265 325 335 q 514 194 426 194 q 611 209 567 194 q 704 261 656 224 l 771 74 q 651 4 719 25 q 493 -17 583 -17 m 390 1063 l 524 1296 l 778 1296 l 569 1063 l 390 1063 z "},"Č":{"ha":840,"x_min":76,"x_max":771,"o":"m 493 -17 q 274 42 368 -17 q 128 213 181 100 q 76 490 76 326 q 129 767 76 654 q 275 937 182 879 q 493 994 368 994 q 653 975 585 994 q 771 906 721 956 l 706 717 q 612 770 657 756 q 514 785 567 785 q 376 717 428 785 q 325 492 325 649 q 376 265 325 335 q 514 194 426 194 q 611 209 567 194 q 704 261 656 224 l 771 74 q 651 4 719 25 q 493 -17 583 -17 m 383 1063 l 240 1285 l 411 1285 l 479 1169 l 549 1285 l 718 1285 l 575 1063 l 383 1063 z "},"Ç":{"ha":840,"x_min":76,"x_max":771,"o":"m 493 -17 q 274 42 368 -17 q 128 213 181 100 q 76 490 76 326 q 129 767 76 654 q 275 937 182 879 q 493 994 368 994 q 653 975 585 994 q 771 906 721 956 l 706 717 q 612 770 657 756 q 514 785 567 785 q 376 717 428 785 q 325 492 325 649 q 376 265 325 335 q 514 194 426 194 q 611 209 567 194 q 704 261 656 224 l 771 74 q 651 4 719 25 q 493 -17 583 -17 m 492 -290 q 413 -283 458 -290 q 339 -261 367 -276 l 372 -167 q 426 -187 394 -178 q 494 -196 457 -196 q 533 -187 519 -196 q 546 -160 546 -179 q 529 -131 546 -139 q 494 -124 513 -124 q 465 -126 485 -124 q 438 -129 446 -128 l 408 -103 l 428 28 l 526 28 l 510 -90 l 467 -61 q 502 -51 478 -54 q 557 -49 526 -49 q 610 -58 583 -49 q 656 -92 638 -68 q 675 -160 675 -117 q 653 -235 675 -207 q 589 -277 631 -264 q 492 -290 547 -290 z "},"Ḉ":{"ha":840,"x_min":76,"x_max":776,"o":"m 493 -17 q 274 42 368 -17 q 128 213 181 100 q 76 490 76 326 q 129 767 76 654 q 275 937 182 879 q 493 994 368 994 q 653 975 585 994 q 771 906 721 956 l 706 717 q 612 770 657 756 q 514 785 567 785 q 376 717 428 785 q 325 492 325 649 q 376 265 325 335 q 514 194 426 194 q 611 209 567 194 q 704 261 656 224 l 771 74 q 651 4 719 25 q 493 -17 583 -17 m 492 -290 q 413 -283 458 -290 q 339 -261 367 -276 l 372 -167 q 426 -187 394 -178 q 494 -196 457 -196 q 533 -187 519 -196 q 546 -160 546 -179 q 529 -131 546 -139 q 494 -124 513 -124 q 465 -126 485 -124 q 438 -129 446 -128 l 408 -103 l 428 28 l 526 28 l 510 -90 l 467 -61 q 502 -51 478 -54 q 557 -49 526 -49 q 610 -58 583 -49 q 656 -92 638 -68 q 675 -160 675 -117 q 653 -235 675 -207 q 589 -277 631 -264 q 492 -290 547 -290 m 390 1063 l 524 1296 l 778 1296 l 569 1063 l 390 1063 z "},"Ĉ":{"ha":840,"x_min":76,"x_max":771,"o":"m 493 -17 q 274 42 368 -17 q 128 213 181 100 q 76 490 76 326 q 129 767 76 654 q 275 937 182 879 q 493 994 368 994 q 653 975 585 994 q 771 906 721 956 l 706 717 q 612 770 657 756 q 514 785 567 785 q 376 717 428 785 q 325 492 325 649 q 376 265 325 335 q 514 194 426 194 q 611 209 567 194 q 704 261 656 224 l 771 74 q 651 4 719 25 q 493 -17 583 -17 m 240 1063 l 383 1285 l 575 1285 l 718 1063 l 547 1063 l 479 1178 l 410 1063 l 240 1063 z "},"Ċ":{"ha":840,"x_min":76,"x_max":771,"o":"m 493 -17 q 274 42 368 -17 q 128 213 181 100 q 76 490 76 326 q 129 767 76 654 q 275 937 182 879 q 493 994 368 994 q 653 975 585 994 q 771 906 721 956 l 706 717 q 612 770 657 756 q 514 785 567 785 q 376 717 428 785 q 325 492 325 649 q 376 265 325 335 q 514 194 426 194 q 611 209 567 194 q 704 261 656 224 l 771 74 q 651 4 719 25 q 493 -17 583 -17 m 375 1079 l 375 1282 l 583 1282 l 583 1079 l 375 1079 z "},"D":{"ha":968,"x_min":100,"x_max":892,"o":"m 100 0 l 100 979 l 475 979 q 702 923 610 979 q 843 758 794 867 q 892 490 892 649 q 843 222 892 332 q 701 56 794 113 q 475 0 608 0 l 100 0 m 344 207 l 457 207 q 595 276 549 207 q 642 490 642 344 q 595 703 642 635 q 457 772 549 772 l 344 772 l 344 207 z "},"Ǆ":{"ha":1742,"x_min":100,"x_max":1686,"o":"m 100 0 l 100 979 l 475 979 q 702 923 610 979 q 843 758 794 867 q 892 490 892 649 q 843 222 892 332 q 701 56 794 113 q 475 0 608 0 l 100 0 m 344 207 l 457 207 q 595 276 549 207 q 642 490 642 344 q 595 703 642 635 q 457 772 549 772 l 344 772 l 344 207 m 1028 0 l 1028 171 l 1438 854 l 1460 776 l 1028 776 l 1028 979 l 1672 979 l 1672 811 l 1260 125 l 1239 203 l 1688 203 l 1688 0 l 1028 0 m 1250 1063 l 1107 1285 l 1278 1285 l 1346 1169 l 1415 1285 l 1585 1285 l 1442 1063 l 1250 1063 z "},"Ð":{"ha":968,"x_min":7,"x_max":892,"o":"m 100 0 l 100 979 l 475 979 q 702 923 610 979 q 843 758 794 867 q 892 490 892 649 q 843 222 892 332 q 701 56 794 113 q 475 0 608 0 l 100 0 m 344 207 l 457 207 q 595 276 549 207 q 642 490 642 344 q 595 703 642 635 q 457 772 549 772 l 344 772 l 344 207 m 7 411 l 7 579 l 544 579 l 544 411 l 7 411 z "},"Ď":{"ha":968,"x_min":100,"x_max":892,"o":"m 100 0 l 100 979 l 475 979 q 702 923 610 979 q 843 758 794 867 q 892 490 892 649 q 843 222 892 332 q 701 56 794 113 q 475 0 608 0 l 100 0 m 344 207 l 457 207 q 595 276 549 207 q 642 490 642 344 q 595 703 642 635 q 457 772 549 772 l 344 772 l 344 207 m 379 1063 l 236 1285 l 407 1285 l 475 1169 l 544 1285 l 714 1285 l 571 1063 l 379 1063 z "},"Đ":{"ha":968,"x_min":7,"x_max":892,"o":"m 100 0 l 100 979 l 475 979 q 702 923 610 979 q 843 758 794 867 q 892 490 892 649 q 843 222 892 332 q 701 56 794 113 q 475 0 608 0 l 100 0 m 344 207 l 457 207 q 595 276 549 207 q 642 490 642 344 q 595 703 642 635 q 457 772 549 772 l 344 772 l 344 207 m 7 411 l 7 579 l 544 579 l 544 411 l 7 411 z "},"Ḍ":{"ha":968,"x_min":100,"x_max":892,"o":"m 100 0 l 100 979 l 475 979 q 702 923 610 979 q 843 758 794 867 q 892 490 892 649 q 843 222 892 332 q 701 56 794 113 q 475 0 608 0 l 100 0 m 344 207 l 457 207 q 595 276 549 207 q 642 490 642 344 q 595 703 642 635 q 457 772 549 772 l 344 772 l 344 207 m 372 -307 l 372 -107 l 578 -107 l 578 -307 l 372 -307 z "},"Ɗ":{"ha":1161,"x_min":6,"x_max":1085,"o":"m 293 0 l 293 813 l 275 813 q 213 789 231 813 q 194 704 194 765 l 194 628 l 6 628 l 6 711 q 72 915 6 850 q 278 979 138 979 l 668 979 q 895 923 803 979 q 1036 758 988 867 q 1085 490 1085 649 q 1036 222 1085 332 q 895 56 988 113 q 668 0 803 0 l 293 0 m 539 207 l 650 207 q 788 276 742 207 q 835 490 835 344 q 788 703 835 635 q 650 772 742 772 l 539 772 l 539 207 z "},"Ḏ":{"ha":968,"x_min":100,"x_max":892,"o":"m 100 0 l 100 979 l 475 979 q 702 923 610 979 q 843 758 794 867 q 892 490 892 649 q 843 222 892 332 q 701 56 794 113 q 475 0 608 0 l 100 0 m 344 207 l 457 207 q 595 276 549 207 q 642 490 642 344 q 595 703 642 635 q 457 772 549 772 l 344 772 l 344 207 m 257 -271 l 257 -111 l 693 -111 l 693 -271 l 257 -271 z "},"ǅ":{"ha":1626,"x_min":100,"x_max":1578,"o":"m 100 0 l 100 979 l 475 979 q 702 923 610 979 q 843 758 794 867 q 892 490 892 649 q 843 222 892 332 q 701 56 794 113 q 475 0 608 0 l 100 0 m 344 207 l 457 207 q 595 276 549 207 q 642 490 642 344 q 595 703 642 635 q 457 772 549 772 l 344 772 l 344 207 m 1036 0 l 1036 164 l 1343 586 l 1335 528 l 1038 528 l 1038 703 l 1565 703 l 1565 547 l 1253 125 l 1263 175 l 1578 175 l 1578 0 l 1036 0 m 1206 781 l 1072 1053 l 1238 1053 l 1306 901 l 1374 1053 l 1539 1053 l 1406 781 l 1206 781 z "},"E":{"ha":794,"x_min":100,"x_max":701,"o":"m 100 0 l 100 979 l 701 979 l 701 783 l 336 783 l 336 592 l 674 592 l 674 399 l 336 399 l 336 196 l 701 196 l 701 0 l 100 0 z "},"É":{"ha":794,"x_min":100,"x_max":710,"o":"m 100 0 l 100 979 l 701 979 l 701 783 l 336 783 l 336 592 l 674 592 l 674 399 l 336 399 l 336 196 l 701 196 l 701 0 l 100 0 m 322 1063 l 456 1296 l 710 1296 l 501 1063 l 322 1063 z "},"Ĕ":{"ha":794,"x_min":100,"x_max":701,"o":"m 100 0 l 100 979 l 701 979 l 701 783 l 336 783 l 336 592 l 674 592 l 674 399 l 336 399 l 336 196 l 701 196 l 701 0 l 100 0 m 411 1056 q 243 1117 304 1056 q 181 1296 182 1179 l 314 1306 q 338 1235 317 1260 q 411 1210 360 1210 q 485 1235 463 1210 q 508 1306 507 1260 l 642 1296 q 579 1117 640 1179 q 411 1056 518 1056 z "},"Ě":{"ha":794,"x_min":100,"x_max":701,"o":"m 100 0 l 100 979 l 701 979 l 701 783 l 336 783 l 336 592 l 674 592 l 674 399 l 336 399 l 336 196 l 701 196 l 701 0 l 100 0 m 315 1063 l 172 1285 l 343 1285 l 411 1169 l 481 1285 l 650 1285 l 507 1063 l 315 1063 z "},"Ȩ":{"ha":794,"x_min":100,"x_max":701,"o":"m 100 0 l 100 979 l 701 979 l 701 783 l 336 783 l 336 592 l 674 592 l 674 399 l 336 399 l 336 196 l 701 196 l 701 0 l 100 0 m 422 -290 q 343 -283 389 -290 q 269 -261 297 -276 l 303 -167 q 356 -187 325 -178 q 425 -196 388 -196 q 463 -187 450 -196 q 476 -160 476 -179 q 460 -131 476 -139 q 425 -124 443 -124 q 396 -126 415 -124 q 368 -129 376 -128 l 339 -103 l 358 28 l 457 28 l 440 -90 l 397 -61 q 433 -51 408 -54 q 488 -49 457 -49 q 541 -58 514 -49 q 587 -92 568 -68 q 606 -160 606 -117 q 583 -235 606 -207 q 519 -277 561 -264 q 422 -290 478 -290 z "},"Ḝ":{"ha":794,"x_min":100,"x_max":701,"o":"m 100 0 l 100 979 l 701 979 l 701 783 l 336 783 l 336 592 l 674 592 l 674 399 l 336 399 l 336 196 l 701 196 l 701 0 l 100 0 m 422 -290 q 343 -283 389 -290 q 269 -261 297 -276 l 303 -167 q 356 -187 325 -178 q 425 -196 388 -196 q 463 -187 450 -196 q 476 -160 476 -179 q 460 -131 476 -139 q 425 -124 443 -124 q 396 -126 415 -124 q 368 -129 376 -128 l 339 -103 l 358 28 l 457 28 l 440 -90 l 397 -61 q 433 -51 408 -54 q 488 -49 457 -49 q 541 -58 514 -49 q 587 -92 568 -68 q 606 -160 606 -117 q 583 -235 606 -207 q 519 -277 561 -264 q 422 -290 478 -290 m 411 1056 q 243 1117 304 1056 q 181 1296 182 1179 l 314 1306 q 338 1235 317 1260 q 411 1210 360 1210 q 485 1235 463 1210 q 508 1306 507 1260 l 642 1296 q 579 1117 640 1179 q 411 1056 518 1056 z "},"Ê":{"ha":794,"x_min":100,"x_max":701,"o":"m 100 0 l 100 979 l 701 979 l 701 783 l 336 783 l 336 592 l 674 592 l 674 399 l 336 399 l 336 196 l 701 196 l 701 0 l 100 0 m 172 1063 l 315 1285 l 507 1285 l 650 1063 l 479 1063 l 411 1178 l 342 1063 l 172 1063 z "},"Ế":{"ha":794,"x_min":100,"x_max":799,"o":"m 100 0 l 100 979 l 701 979 l 701 783 l 336 783 l 336 592 l 674 592 l 674 399 l 336 399 l 336 196 l 701 196 l 701 0 l 100 0 m 186 1064 l 319 1307 l 511 1307 l 644 1064 l 483 1064 l 415 1200 l 347 1064 l 186 1064 m 572 1258 l 636 1471 l 799 1471 l 697 1258 l 572 1258 z "},"Ệ":{"ha":794,"x_min":100,"x_max":701,"o":"m 100 0 l 100 979 l 701 979 l 701 783 l 336 783 l 336 592 l 674 592 l 674 399 l 336 399 l 336 196 l 701 196 l 701 0 l 100 0 m 308 -307 l 308 -107 l 514 -107 l 514 -307 l 308 -307 m 172 1063 l 315 1285 l 507 1285 l 650 1063 l 479 1063 l 411 1178 l 342 1063 l 172 1063 z "},"Ề":{"ha":794,"x_min":100,"x_max":731,"o":"m 100 0 l 100 979 l 701 979 l 701 783 l 336 783 l 336 592 l 674 592 l 674 399 l 336 399 l 336 196 l 701 196 l 701 0 l 100 0 m 186 1064 l 319 1307 l 511 1307 l 644 1064 l 483 1064 l 415 1200 l 347 1064 l 186 1064 m 604 1258 l 503 1471 l 667 1471 l 729 1258 l 604 1258 z "},"Ể":{"ha":794,"x_min":100,"x_max":756,"o":"m 100 0 l 100 979 l 701 979 l 701 783 l 336 783 l 336 592 l 674 592 l 674 399 l 336 399 l 336 196 l 701 196 l 701 0 l 100 0 m 186 1064 l 319 1251 l 511 1251 l 644 1064 l 483 1064 l 415 1174 l 347 1064 l 186 1064 m 558 1253 q 564 1285 558 1271 q 578 1313 569 1300 q 592 1335 586 1325 q 597 1358 597 1346 q 590 1376 597 1371 q 564 1381 582 1381 q 537 1376 550 1381 q 511 1364 524 1372 l 483 1449 q 548 1472 511 1464 q 625 1481 585 1481 q 722 1459 689 1481 q 756 1399 756 1438 q 744 1357 756 1375 q 719 1324 733 1339 q 694 1291 706 1308 q 681 1253 682 1274 l 558 1253 z "},"Ễ":{"ha":794,"x_min":100,"x_max":701,"o":"m 100 0 l 100 979 l 701 979 l 701 783 l 336 783 l 336 592 l 674 592 l 674 399 l 336 399 l 336 196 l 701 196 l 701 0 l 100 0 m 183 1064 l 317 1251 l 508 1251 l 642 1064 l 476 1064 l 413 1169 l 347 1064 l 183 1064 m 281 1301 l 172 1307 q 209 1427 178 1382 q 317 1472 240 1472 q 385 1458 357 1472 q 435 1432 414 1443 q 461 1417 443 1426 q 497 1407 479 1407 q 528 1426 518 1407 q 542 1474 539 1444 l 651 1467 q 610 1346 647 1390 q 497 1301 574 1301 q 432 1315 458 1301 q 389 1338 406 1328 q 357 1357 372 1349 q 326 1365 342 1365 q 294 1347 306 1365 q 281 1301 283 1329 z "},"Ȅ":{"ha":794,"x_min":60,"x_max":701,"o":"m 100 0 l 100 979 l 701 979 l 701 783 l 336 783 l 336 592 l 674 592 l 674 399 l 336 399 l 336 196 l 701 196 l 701 0 l 100 0 m 450 1063 l 290 1285 l 486 1285 l 581 1063 l 450 1063 m 242 1063 l 58 1285 l 254 1285 l 372 1063 l 242 1063 z "},"Ë":{"ha":794,"x_min":100,"x_max":701,"o":"m 100 0 l 100 979 l 701 979 l 701 783 l 336 783 l 336 592 l 674 592 l 674 399 l 336 399 l 336 196 l 701 196 l 701 0 l 100 0 m 453 1078 l 453 1272 l 658 1272 l 658 1078 l 453 1078 m 164 1078 l 164 1272 l 369 1272 l 369 1078 l 164 1078 z "},"Ė":{"ha":794,"x_min":100,"x_max":701,"o":"m 100 0 l 100 979 l 701 979 l 701 783 l 336 783 l 336 592 l 674 592 l 674 399 l 336 399 l 336 196 l 701 196 l 701 0 l 100 0 m 307 1079 l 307 1282 l 515 1282 l 515 1079 l 307 1079 z "},"Ẹ":{"ha":794,"x_min":100,"x_max":701,"o":"m 100 0 l 100 979 l 701 979 l 701 783 l 336 783 l 336 592 l 674 592 l 674 399 l 336 399 l 336 196 l 701 196 l 701 0 l 100 0 m 308 -307 l 308 -107 l 514 -107 l 514 -307 l 308 -307 z "},"È":{"ha":794,"x_min":100,"x_max":701,"o":"m 100 0 l 100 979 l 701 979 l 701 783 l 336 783 l 336 592 l 674 592 l 674 399 l 336 399 l 336 196 l 701 196 l 701 0 l 100 0 m 332 1063 l 125 1285 l 357 1285 l 492 1063 l 332 1063 z "},"Ẻ":{"ha":794,"x_min":100,"x_max":701,"o":"m 100 0 l 100 979 l 701 979 l 701 783 l 336 783 l 336 592 l 674 592 l 674 399 l 336 399 l 336 196 l 701 196 l 701 0 l 100 0 m 346 1063 l 346 1088 q 353 1121 346 1107 q 371 1146 361 1135 q 388 1167 381 1157 q 396 1190 396 1176 q 388 1208 396 1203 q 363 1213 379 1213 q 331 1209 347 1213 q 299 1197 315 1206 l 268 1288 q 334 1313 296 1304 q 414 1321 372 1321 q 524 1297 486 1321 q 563 1225 563 1272 q 550 1177 563 1196 q 521 1145 538 1158 q 491 1118 504 1132 q 478 1086 478 1104 l 478 1063 l 346 1063 z "},"Ȇ":{"ha":794,"x_min":100,"x_max":701,"o":"m 100 0 l 100 979 l 701 979 l 701 783 l 336 783 l 336 592 l 674 592 l 674 399 l 336 399 l 336 196 l 701 196 l 701 0 l 100 0 m 314 1056 l 181 1067 q 243 1245 182 1185 q 411 1306 304 1306 q 579 1245 518 1306 q 642 1067 640 1185 l 508 1056 q 485 1126 507 1101 q 414 1151 464 1151 q 340 1127 364 1151 q 314 1056 317 1103 z "},"Ē":{"ha":794,"x_min":100,"x_max":701,"o":"m 100 0 l 100 979 l 701 979 l 701 783 l 336 783 l 336 592 l 674 592 l 674 399 l 336 399 l 336 196 l 701 196 l 701 0 l 100 0 m 196 1108 l 196 1268 l 626 1268 l 626 1108 l 196 1108 z "},"Ḗ":{"ha":794,"x_min":100,"x_max":701,"o":"m 100 0 l 100 979 l 701 979 l 701 783 l 336 783 l 336 592 l 674 592 l 674 399 l 336 399 l 336 196 l 701 196 l 701 0 l 100 0 m 194 1093 l 194 1231 l 628 1231 l 628 1093 l 194 1093 m 307 1289 l 403 1486 l 635 1486 l 465 1289 l 307 1289 z "},"Ḕ":{"ha":794,"x_min":100,"x_max":701,"o":"m 100 0 l 100 979 l 701 979 l 701 783 l 336 783 l 336 592 l 674 592 l 674 399 l 336 399 l 336 196 l 701 196 l 701 0 l 100 0 m 357 1289 l 188 1486 l 419 1486 l 515 1289 l 357 1289 m 194 1093 l 194 1231 l 628 1231 l 628 1093 l 194 1093 z "},"Ę":{"ha":794,"x_min":100,"x_max":714,"o":"m 100 0 l 100 979 l 701 979 l 701 783 l 336 783 l 336 592 l 674 592 l 674 399 l 336 399 l 336 196 l 701 196 l 701 0 l 100 0 m 597 -290 q 478 -256 521 -290 q 436 -157 436 -221 q 470 -39 436 -99 q 565 64 504 21 l 636 0 q 609 -31 621 -14 q 590 -68 597 -49 q 582 -107 582 -87 q 594 -149 582 -135 q 631 -162 607 -162 q 658 -160 643 -162 q 689 -150 672 -157 l 713 -268 q 654 -285 681 -281 q 597 -290 628 -290 z "},"Ẽ":{"ha":794,"x_min":100,"x_max":701,"o":"m 100 0 l 100 979 l 701 979 l 701 783 l 336 783 l 336 592 l 674 592 l 674 399 l 336 399 l 336 196 l 701 196 l 701 0 l 100 0 m 256 1051 l 136 1060 q 174 1212 135 1153 q 292 1271 214 1271 q 371 1255 336 1271 q 428 1232 406 1239 q 467 1215 444 1225 q 514 1206 489 1206 q 556 1226 543 1206 q 567 1278 568 1246 l 686 1271 q 648 1119 688 1178 q 529 1060 608 1060 q 451 1074 488 1060 q 397 1097 415 1089 q 356 1115 381 1104 q 308 1125 331 1125 q 267 1106 279 1125 q 256 1051 254 1086 z "},"Ə":{"ha":997,"x_min":76,"x_max":921,"o":"m 492 -15 q 280 40 374 -15 q 131 204 186 94 q 76 479 76 314 l 76 582 l 739 582 l 739 404 l 286 404 l 329 426 q 378 249 335 311 q 497 188 421 188 q 626 263 579 188 q 674 478 674 339 q 619 708 674 638 q 446 778 564 778 q 358 770 400 778 q 279 747 317 763 q 208 711 242 732 l 140 914 q 234 957 178 939 q 353 985 290 975 q 469 994 415 994 q 728 937 628 994 q 874 769 828 879 q 921 497 921 658 q 891 283 921 378 q 805 122 861 189 q 670 20 749 56 q 492 -15 592 -15 z "},"F":{"ha":756,"x_min":100,"x_max":701,"o":"m 100 0 l 100 979 l 701 979 l 701 783 l 344 783 l 344 575 l 679 575 l 679 379 l 344 379 l 344 0 l 100 0 z "},"G":{"ha":928,"x_min":76,"x_max":838,"o":"m 506 -15 q 278 42 375 -15 q 129 213 182 100 q 76 492 76 325 q 127 767 76 656 q 275 937 178 879 q 506 994 372 994 q 625 985 568 994 q 731 956 682 975 q 814 907 779 938 l 749 719 q 638 770 694 756 q 524 785 581 785 q 378 719 432 785 q 324 494 324 653 q 372 261 324 336 q 521 186 419 186 q 616 192 576 186 q 694 213 656 197 l 635 153 l 635 383 l 490 383 l 490 554 l 838 554 l 838 54 q 741 17 794 32 q 628 -7 688 1 q 506 -15 568 -15 z "},"Ğ":{"ha":928,"x_min":76,"x_max":838,"o":"m 506 -15 q 278 42 375 -15 q 129 213 182 100 q 76 492 76 325 q 127 767 76 656 q 275 937 178 879 q 506 994 372 994 q 625 985 568 994 q 731 956 682 975 q 814 907 779 938 l 749 719 q 638 770 694 756 q 524 785 581 785 q 378 719 432 785 q 324 494 324 653 q 372 261 324 336 q 521 186 419 186 q 616 192 576 186 q 694 213 656 197 l 635 153 l 635 383 l 490 383 l 490 554 l 838 554 l 838 54 q 741 17 794 32 q 628 -7 688 1 q 506 -15 568 -15 m 510 1056 q 342 1117 403 1056 q 279 1296 281 1179 l 413 1306 q 437 1235 415 1260 q 510 1210 458 1210 q 583 1235 561 1210 q 607 1306 606 1260 l 740 1296 q 678 1117 739 1179 q 510 1056 617 1056 z "},"Ǧ":{"ha":928,"x_min":76,"x_max":838,"o":"m 506 -15 q 278 42 375 -15 q 129 213 182 100 q 76 492 76 325 q 127 767 76 656 q 275 937 178 879 q 506 994 372 994 q 625 985 568 994 q 731 956 682 975 q 814 907 779 938 l 749 719 q 638 770 694 756 q 524 785 581 785 q 378 719 432 785 q 324 494 324 653 q 372 261 324 336 q 521 186 419 186 q 616 192 576 186 q 694 213 656 197 l 635 153 l 635 383 l 490 383 l 490 554 l 838 554 l 838 54 q 741 17 794 32 q 628 -7 688 1 q 506 -15 568 -15 m 414 1063 l 271 1285 l 442 1285 l 510 1169 l 579 1285 l 749 1285 l 606 1063 l 414 1063 z "},"Ĝ":{"ha":928,"x_min":76,"x_max":838,"o":"m 506 -15 q 278 42 375 -15 q 129 213 182 100 q 76 492 76 325 q 127 767 76 656 q 275 937 178 879 q 506 994 372 994 q 625 985 568 994 q 731 956 682 975 q 814 907 779 938 l 749 719 q 638 770 694 756 q 524 785 581 785 q 378 719 432 785 q 324 494 324 653 q 372 261 324 336 q 521 186 419 186 q 616 192 576 186 q 694 213 656 197 l 635 153 l 635 383 l 490 383 l 490 554 l 838 554 l 838 54 q 741 17 794 32 q 628 -7 688 1 q 506 -15 568 -15 m 271 1063 l 414 1285 l 606 1285 l 749 1063 l 578 1063 l 510 1178 l 440 1063 l 271 1063 z "},"Ģ":{"ha":928,"x_min":76,"x_max":838,"o":"m 506 -15 q 278 42 375 -15 q 129 213 182 100 q 76 492 76 325 q 127 767 76 656 q 275 937 178 879 q 506 994 372 994 q 625 985 568 994 q 731 956 682 975 q 814 907 779 938 l 749 719 q 638 770 694 756 q 524 785 581 785 q 378 719 432 785 q 324 494 324 653 q 372 261 324 336 q 521 186 419 186 q 616 192 576 186 q 694 213 656 197 l 635 153 l 635 383 l 490 383 l 490 554 l 838 554 l 838 54 q 741 17 794 32 q 628 -7 688 1 q 506 -15 568 -15 m 521 -442 l 440 -387 q 482 -317 468 -356 q 496 -244 496 -278 l 539 -265 l 406 -265 l 406 -94 l 601 -94 l 601 -225 q 583 -342 601 -287 q 521 -442 565 -397 z "},"Ġ":{"ha":928,"x_min":76,"x_max":838,"o":"m 506 -15 q 278 42 375 -15 q 129 213 182 100 q 76 492 76 325 q 127 767 76 656 q 275 937 178 879 q 506 994 372 994 q 625 985 568 994 q 731 956 682 975 q 814 907 779 938 l 749 719 q 638 770 694 756 q 524 785 581 785 q 378 719 432 785 q 324 494 324 653 q 372 261 324 336 q 521 186 419 186 q 616 192 576 186 q 694 213 656 197 l 635 153 l 635 383 l 490 383 l 490 554 l 838 554 l 838 54 q 741 17 794 32 q 628 -7 688 1 q 506 -15 568 -15 m 406 1079 l 406 1282 l 614 1282 l 614 1079 l 406 1079 z "},"Ḡ":{"ha":928,"x_min":76,"x_max":838,"o":"m 506 -15 q 278 42 375 -15 q 129 213 182 100 q 76 492 76 325 q 127 767 76 656 q 275 937 178 879 q 506 994 372 994 q 625 985 568 994 q 731 956 682 975 q 814 907 779 938 l 749 719 q 638 770 694 756 q 524 785 581 785 q 378 719 432 785 q 324 494 324 653 q 372 261 324 336 q 521 186 419 186 q 616 192 576 186 q 694 213 656 197 l 635 153 l 635 383 l 490 383 l 490 554 l 838 554 l 838 54 q 741 17 794 32 q 628 -7 688 1 q 506 -15 568 -15 m 294 1108 l 294 1268 l 725 1268 l 725 1108 l 294 1108 z "},"H":{"ha":967,"x_min":100,"x_max":868,"o":"m 100 0 l 100 979 l 344 979 l 344 597 l 622 597 l 622 979 l 868 979 l 868 0 l 622 0 l 622 392 l 344 392 l 344 0 l 100 0 z "},"Ħ":{"ha":1019,"x_min":36,"x_max":982,"o":"m 125 0 l 125 700 l 36 700 l 36 865 l 125 865 l 125 979 l 371 979 l 371 857 l 649 857 l 649 979 l 894 979 l 894 865 l 982 865 l 982 700 l 894 700 l 894 0 l 649 0 l 649 371 l 371 371 l 371 0 l 125 0 m 371 576 l 649 576 l 649 710 l 371 710 l 371 576 z "},"Ḫ":{"ha":967,"x_min":100,"x_max":868,"o":"m 100 0 l 100 979 l 344 979 l 344 597 l 622 597 l 622 979 l 868 979 l 868 0 l 622 0 l 622 392 l 344 392 l 344 0 l 100 0 m 483 -294 q 310 -238 369 -294 q 249 -86 251 -182 l 383 -75 q 411 -135 386 -117 q 483 -154 436 -154 q 555 -135 531 -154 q 583 -75 579 -117 l 718 -86 q 657 -238 717 -182 q 483 -294 597 -294 z "},"Ĥ":{"ha":967,"x_min":100,"x_max":868,"o":"m 100 0 l 100 979 l 344 979 l 344 597 l 622 597 l 622 979 l 868 979 l 868 0 l 622 0 l 622 392 l 344 392 l 344 0 l 100 0 m 244 1063 l 388 1285 l 579 1285 l 722 1063 l 551 1063 l 483 1178 l 414 1063 l 244 1063 z "},"Ḥ":{"ha":967,"x_min":100,"x_max":868,"o":"m 100 0 l 100 979 l 344 979 l 344 597 l 622 597 l 622 979 l 868 979 l 868 0 l 622 0 l 622 392 l 344 392 l 344 0 l 100 0 m 381 -307 l 381 -107 l 586 -107 l 586 -307 l 381 -307 z "},"I":{"ha":444,"x_min":100,"x_max":344,"o":"m 100 0 l 100 979 l 344 979 l 344 0 l 100 0 z "},"Ĳ":{"ha":994,"x_min":100,"x_max":894,"o":"m 100 0 l 100 979 l 344 979 l 344 0 l 100 0 m 478 -15 l 461 190 l 579 196 q 619 210 604 199 q 642 243 635 221 q 650 294 650 265 l 650 979 l 896 979 l 896 271 q 865 124 896 185 q 776 30 835 64 q 625 -7 717 -4 l 478 -15 z "},"Í":{"ha":444,"x_min":100,"x_max":519,"o":"m 100 0 l 100 979 l 344 979 l 344 0 l 100 0 m 132 1063 l 265 1296 l 519 1296 l 311 1063 l 132 1063 z "},"Ĭ":{"ha":444,"x_min":-10,"x_max":453,"o":"m 100 0 l 100 979 l 344 979 l 344 0 l 100 0 m 221 1056 q 53 1117 114 1056 q -10 1296 -8 1179 l 124 1306 q 148 1235 126 1260 q 221 1210 169 1210 q 294 1235 272 1210 q 318 1306 317 1260 l 451 1296 q 389 1117 450 1179 q 221 1056 328 1056 z "},"Î":{"ha":444,"x_min":-18,"x_max":461,"o":"m 100 0 l 100 979 l 344 979 l 344 0 l 100 0 m -18 1063 l 125 1285 l 317 1285 l 460 1063 l 289 1063 l 221 1178 l 151 1063 l -18 1063 z "},"Ȉ":{"ha":444,"x_min":-131,"x_max":392,"o":"m 100 0 l 100 979 l 344 979 l 344 0 l 100 0 m 260 1063 l 100 1285 l 296 1285 l 390 1063 l 260 1063 m 51 1063 l -132 1285 l 64 1285 l 182 1063 l 51 1063 z "},"Ï":{"ha":444,"x_min":-26,"x_max":468,"o":"m 100 0 l 100 979 l 344 979 l 344 0 l 100 0 m 263 1078 l 263 1272 l 468 1272 l 468 1078 l 263 1078 m -26 1078 l -26 1272 l 179 1272 l 179 1078 l -26 1078 z "},"Ḯ":{"ha":444,"x_min":-14,"x_max":460,"o":"m 100 0 l 100 979 l 344 979 l 344 0 l 100 0 m 132 1265 l 229 1463 l 460 1463 l 290 1265 l 132 1265 m -15 1060 l -15 1219 l 192 1219 l 192 1060 l -15 1060 m 250 1060 l 250 1219 l 457 1219 l 457 1060 l 250 1060 z "},"İ":{"ha":444,"x_min":100,"x_max":344,"o":"m 100 0 l 100 979 l 344 979 l 344 0 l 100 0 m 117 1079 l 117 1282 l 325 1282 l 325 1079 l 117 1079 z "},"Ị":{"ha":444,"x_min":100,"x_max":344,"o":"m 100 0 l 100 979 l 344 979 l 344 0 l 100 0 m 118 -307 l 118 -107 l 324 -107 l 324 -307 l 118 -307 z "},"Ì":{"ha":444,"x_min":-65,"x_max":344,"o":"m 100 0 l 100 979 l 344 979 l 344 0 l 100 0 m 142 1063 l -65 1285 l 167 1285 l 301 1063 l 142 1063 z "},"Ỉ":{"ha":444,"x_min":78,"x_max":374,"o":"m 100 0 l 100 979 l 344 979 l 344 0 l 100 0 m 156 1063 l 156 1088 q 163 1121 156 1107 q 181 1146 171 1135 q 198 1167 190 1157 q 206 1190 206 1176 q 197 1208 206 1203 q 172 1213 189 1213 q 141 1209 157 1213 q 108 1197 125 1206 l 78 1288 q 144 1313 106 1304 q 224 1321 182 1321 q 334 1297 296 1321 q 372 1225 372 1272 q 360 1177 372 1196 q 331 1145 347 1158 q 301 1118 314 1132 q 288 1086 288 1104 l 288 1063 l 156 1063 z "},"Ȋ":{"ha":444,"x_min":-10,"x_max":453,"o":"m 100 0 l 100 979 l 344 979 l 344 0 l 100 0 m 124 1056 l -10 1067 q 53 1245 -8 1185 q 221 1306 114 1306 q 389 1245 328 1306 q 451 1067 450 1185 l 318 1056 q 295 1126 317 1101 q 224 1151 274 1151 q 150 1127 174 1151 q 124 1056 126 1103 z "},"Ī":{"ha":444,"x_min":6,"x_max":438,"o":"m 100 0 l 100 979 l 344 979 l 344 0 l 100 0 m 6 1108 l 6 1268 l 436 1268 l 436 1108 l 6 1108 z "},"Į":{"ha":444,"x_min":88,"x_max":364,"o":"m 100 0 l 100 979 l 344 979 l 344 0 l 100 0 m 249 -290 q 130 -256 172 -290 q 88 -157 88 -221 q 122 -39 88 -99 q 217 64 156 21 l 288 0 q 260 -31 272 -14 q 241 -68 249 -49 q 233 -107 233 -87 q 246 -149 233 -135 q 282 -162 258 -162 q 309 -160 294 -162 q 340 -150 324 -157 l 364 -268 q 306 -285 332 -281 q 249 -290 279 -290 z "},"Ĩ":{"ha":444,"x_min":-54,"x_max":497,"o":"m 100 0 l 100 979 l 344 979 l 344 0 l 100 0 m 65 1051 l -54 1060 q -16 1212 -56 1153 q 101 1271 24 1271 q 181 1255 146 1271 q 238 1232 215 1239 q 276 1215 254 1225 q 324 1206 299 1206 q 365 1226 353 1206 q 376 1278 378 1246 l 496 1271 q 458 1119 497 1178 q 339 1060 418 1060 q 261 1074 297 1060 q 207 1097 225 1089 q 165 1115 190 1104 q 118 1125 140 1125 q 76 1106 89 1125 q 65 1051 64 1086 z "},"J":{"ha":550,"x_min":17,"x_max":451,"o":"m 33 -15 l 17 190 l 135 196 q 175 210 160 199 q 198 243 190 221 q 206 294 206 265 l 206 979 l 451 979 l 451 271 q 421 124 451 185 q 331 30 390 64 q 181 -7 272 -4 l 33 -15 z "},"Ĵ":{"ha":550,"x_min":17,"x_max":567,"o":"m 33 -15 l 17 190 l 135 196 q 175 210 160 199 q 198 243 190 221 q 206 294 206 265 l 206 979 l 451 979 l 451 271 q 421 124 451 185 q 331 30 390 64 q 181 -7 272 -4 l 33 -15 m 89 1063 l 232 1285 l 424 1285 l 567 1063 l 396 1063 l 328 1178 l 258 1063 l 89 1063 z "},"K":{"ha":928,"x_min":100,"x_max":943,"o":"m 100 0 l 100 979 l 344 979 l 344 569 l 354 569 l 633 979 l 915 979 l 522 447 l 544 565 l 943 0 l 638 0 l 354 440 l 344 440 l 344 0 l 100 0 z "},"Ķ":{"ha":928,"x_min":100,"x_max":943,"o":"m 100 0 l 100 979 l 344 979 l 344 569 l 354 569 l 633 979 l 915 979 l 522 447 l 544 565 l 943 0 l 638 0 l 354 440 l 344 440 l 344 0 l 100 0 m 471 -442 l 390 -387 q 432 -317 418 -356 q 446 -244 446 -278 l 489 -265 l 356 -265 l 356 -94 l 551 -94 l 551 -225 q 533 -342 551 -287 q 471 -442 515 -397 z "},"L":{"ha":750,"x_min":100,"x_max":689,"o":"m 100 0 l 100 979 l 344 979 l 344 206 l 689 206 l 689 0 l 100 0 z "},"Ǉ":{"ha":1346,"x_min":100,"x_max":1246,"o":"m 100 0 l 100 979 l 344 979 l 344 206 l 689 206 l 689 0 l 100 0 m 828 -15 l 811 190 l 929 196 q 969 210 954 199 q 992 243 985 221 q 1000 294 1000 265 l 1000 979 l 1246 979 l 1246 271 q 1215 124 1246 185 q 1126 30 1185 64 q 975 -7 1067 -4 l 828 -15 z "},"Ĺ":{"ha":750,"x_min":100,"x_max":689,"o":"m 100 0 l 100 979 l 344 979 l 344 206 l 689 206 l 689 0 l 100 0 m 128 1063 l 261 1296 l 515 1296 l 307 1063 l 128 1063 z "},"Ľ":{"ha":750,"x_min":100,"x_max":689,"o":"m 100 0 l 100 979 l 344 979 l 344 206 l 689 206 l 689 0 l 100 0 m 438 631 l 438 979 l 622 979 l 592 631 l 438 631 z "},"Ļ":{"ha":750,"x_min":100,"x_max":689,"o":"m 100 0 l 100 979 l 344 979 l 344 206 l 689 206 l 689 0 l 100 0 m 407 -442 l 326 -387 q 368 -317 354 -356 q 382 -244 382 -278 l 425 -265 l 292 -265 l 292 -94 l 488 -94 l 488 -225 q 469 -342 488 -287 q 407 -442 451 -397 z "},"Ŀ":{"ha":750,"x_min":100,"x_max":689,"o":"m 100 0 l 100 979 l 344 979 l 344 206 l 689 206 l 689 0 l 100 0 m 419 450 l 419 667 l 669 667 l 669 450 l 419 450 z "},"Ḷ":{"ha":750,"x_min":100,"x_max":689,"o":"m 100 0 l 100 979 l 344 979 l 344 206 l 689 206 l 689 0 l 100 0 m 288 -307 l 288 -107 l 493 -107 l 493 -307 l 288 -307 z "},"ǈ":{"ha":1132,"x_min":100,"x_max":1065,"o":"m 100 0 l 100 979 l 344 979 l 344 206 l 689 206 l 689 0 l 100 0 m 822 822 l 822 1039 l 1064 1039 l 1064 822 l 822 822 m 721 -268 l 700 -89 l 756 -81 q 803 -56 785 -76 q 821 15 821 -36 l 821 703 l 1065 703 l 1065 19 q 1056 -90 1065 -42 q 1017 -174 1046 -139 q 934 -229 989 -208 q 789 -261 879 -250 l 721 -268 z "},"Ḻ":{"ha":750,"x_min":100,"x_max":689,"o":"m 100 0 l 100 979 l 344 979 l 344 206 l 689 206 l 689 0 l 100 0 m 172 -271 l 172 -111 l 608 -111 l 608 -271 l 172 -271 z "},"Ł":{"ha":756,"x_min":-44,"x_max":694,"o":"m 104 0 l 104 979 l 349 979 l 349 206 l 693 206 l 693 0 l 104 0 m 58 293 l -43 442 l 496 793 l 597 646 l 58 293 z "},"M":{"ha":1139,"x_min":103,"x_max":1036,"o":"m 103 0 l 103 979 l 389 979 l 578 433 l 565 433 l 753 979 l 1036 979 l 1036 0 l 806 0 l 806 638 l 796 638 l 635 183 l 503 183 l 343 639 l 332 639 l 332 0 l 103 0 z "},"Ṃ":{"ha":1139,"x_min":103,"x_max":1036,"o":"m 103 0 l 103 979 l 389 979 l 578 433 l 565 433 l 753 979 l 1036 979 l 1036 0 l 806 0 l 806 638 l 796 638 l 635 183 l 503 183 l 343 639 l 332 639 l 332 0 l 103 0 m 436 -307 l 436 -107 l 642 -107 l 642 -307 l 436 -307 z "},"N":{"ha":969,"x_min":100,"x_max":871,"o":"m 100 0 l 100 979 l 281 979 l 671 344 l 644 344 l 644 979 l 871 979 l 871 0 l 675 0 l 299 619 l 325 619 l 325 0 l 100 0 z "},"Ǌ":{"ha":1521,"x_min":100,"x_max":1421,"o":"m 100 0 l 100 979 l 281 979 l 671 344 l 644 344 l 644 979 l 871 979 l 871 0 l 675 0 l 299 619 l 325 619 l 325 0 l 100 0 m 1003 -15 l 986 190 l 1104 196 q 1144 210 1129 199 q 1167 243 1160 221 q 1175 294 1175 265 l 1175 979 l 1421 979 l 1421 271 q 1390 124 1421 185 q 1301 30 1360 64 q 1150 -7 1242 -4 l 1003 -15 z "},"Ń":{"ha":969,"x_min":100,"x_max":871,"o":"m 100 0 l 100 979 l 281 979 l 671 344 l 644 344 l 644 979 l 871 979 l 871 0 l 675 0 l 299 619 l 325 619 l 325 0 l 100 0 m 407 1063 l 540 1296 l 794 1296 l 586 1063 l 407 1063 z "},"Ň":{"ha":969,"x_min":100,"x_max":871,"o":"m 100 0 l 100 979 l 281 979 l 671 344 l 644 344 l 644 979 l 871 979 l 871 0 l 675 0 l 299 619 l 325 619 l 325 0 l 100 0 m 400 1063 l 257 1285 l 428 1285 l 496 1169 l 565 1285 l 735 1285 l 592 1063 l 400 1063 z "},"Ņ":{"ha":969,"x_min":100,"x_max":871,"o":"m 100 0 l 100 979 l 281 979 l 671 344 l 644 344 l 644 979 l 871 979 l 871 0 l 675 0 l 299 619 l 325 619 l 325 0 l 100 0 m 503 -442 l 422 -387 q 464 -317 450 -356 q 478 -244 478 -278 l 521 -265 l 388 -265 l 388 -94 l 583 -94 l 583 -225 q 565 -342 583 -287 q 503 -442 547 -397 z "},"Ṅ":{"ha":969,"x_min":100,"x_max":871,"o":"m 100 0 l 100 979 l 281 979 l 671 344 l 644 344 l 644 979 l 871 979 l 871 0 l 675 0 l 299 619 l 325 619 l 325 0 l 100 0 m 392 1079 l 392 1282 l 600 1282 l 600 1079 l 392 1079 z "},"Ṇ":{"ha":969,"x_min":100,"x_max":871,"o":"m 100 0 l 100 979 l 281 979 l 671 344 l 644 344 l 644 979 l 871 979 l 871 0 l 675 0 l 299 619 l 325 619 l 325 0 l 100 0 m 383 -307 l 383 -107 l 589 -107 l 589 -307 l 383 -307 z "},"ǋ":{"ha":1350,"x_min":100,"x_max":1285,"o":"m 100 0 l 100 979 l 281 979 l 671 344 l 644 344 l 644 979 l 871 979 l 871 0 l 675 0 l 299 619 l 325 619 l 325 0 l 100 0 m 1042 822 l 1042 1039 l 1283 1039 l 1283 822 l 1042 822 m 940 -268 l 919 -89 l 975 -81 q 1022 -56 1004 -76 q 1040 15 1040 -36 l 1040 703 l 1285 703 l 1285 19 q 1275 -90 1285 -42 q 1237 -174 1265 -139 q 1153 -229 1208 -208 q 1008 -261 1099 -250 l 940 -268 z "},"Ṉ":{"ha":969,"x_min":100,"x_max":871,"o":"m 100 0 l 100 979 l 281 979 l 671 344 l 644 344 l 644 979 l 871 979 l 871 0 l 675 0 l 299 619 l 325 619 l 325 0 l 100 0 m 268 -271 l 268 -111 l 704 -111 l 704 -271 l 268 -271 z "},"Ñ":{"ha":969,"x_min":100,"x_max":871,"o":"m 100 0 l 100 979 l 281 979 l 671 344 l 644 344 l 644 979 l 871 979 l 871 0 l 675 0 l 299 619 l 325 619 l 325 0 l 100 0 m 340 1051 l 221 1060 q 259 1212 219 1153 q 376 1271 299 1271 q 456 1255 421 1271 q 513 1232 490 1239 q 551 1215 529 1225 q 599 1206 574 1206 q 640 1226 628 1206 q 651 1278 653 1246 l 771 1271 q 733 1119 772 1178 q 614 1060 693 1060 q 536 1074 572 1060 q 482 1097 500 1089 q 440 1115 465 1104 q 393 1125 415 1125 q 351 1106 364 1125 q 340 1051 339 1086 z "},"Ŋ":{"ha":969,"x_min":100,"x_max":871,"o":"m 543 -262 l 526 -96 l 578 -87 q 628 -72 610 -83 q 647 -25 647 -61 l 647 151 l 671 8 l 299 619 l 325 619 l 325 0 l 100 0 l 100 979 l 281 979 l 671 344 l 644 344 l 644 979 l 871 979 l 871 14 q 869 -58 871 -21 q 854 -128 867 -94 q 813 -187 842 -161 q 731 -233 783 -214 q 593 -258 678 -251 l 543 -262 z "},"O":{"ha":1000,"x_min":76,"x_max":924,"o":"m 500 -15 q 325 18 403 -15 q 192 117 247 51 q 106 277 136 183 q 76 489 76 371 q 106 701 76 607 q 192 861 136 794 q 326 961 249 928 q 500 994 403 994 q 675 960 597 994 q 808 861 753 926 q 893 703 863 796 q 924 492 924 610 q 893 278 924 372 q 808 119 863 185 q 675 19 753 53 q 500 -15 597 -15 m 500 194 q 597 227 560 194 q 654 326 635 260 q 674 490 674 392 q 654 656 674 590 q 597 753 635 721 q 500 785 558 785 q 403 752 442 785 q 344 654 364 719 q 325 489 325 589 q 344 325 325 390 q 403 227 364 260 q 500 194 442 194 z "},"Ó":{"ha":1000,"x_min":76,"x_max":924,"o":"m 500 -15 q 325 18 403 -15 q 192 117 247 51 q 106 277 136 183 q 76 489 76 371 q 106 701 76 607 q 192 861 136 794 q 326 961 249 928 q 500 994 403 994 q 675 960 597 994 q 808 861 753 926 q 893 703 863 796 q 924 492 924 610 q 893 278 924 372 q 808 119 863 185 q 675 19 753 53 q 500 -15 597 -15 m 500 194 q 597 227 560 194 q 654 326 635 260 q 674 490 674 392 q 654 656 674 590 q 597 753 635 721 q 500 785 558 785 q 403 752 442 785 q 344 654 364 719 q 325 489 325 589 q 344 325 325 390 q 403 227 364 260 q 500 194 442 194 m 411 1063 l 544 1296 l 799 1296 l 590 1063 l 411 1063 z "},"Ŏ":{"ha":1000,"x_min":76,"x_max":924,"o":"m 500 -15 q 325 18 403 -15 q 192 117 247 51 q 106 277 136 183 q 76 489 76 371 q 106 701 76 607 q 192 861 136 794 q 326 961 249 928 q 500 994 403 994 q 675 960 597 994 q 808 861 753 926 q 893 703 863 796 q 924 492 924 610 q 893 278 924 372 q 808 119 863 185 q 675 19 753 53 q 500 -15 597 -15 m 500 194 q 597 227 560 194 q 654 326 635 260 q 674 490 674 392 q 654 656 674 590 q 597 753 635 721 q 500 785 558 785 q 403 752 442 785 q 344 654 364 719 q 325 489 325 589 q 344 325 325 390 q 403 227 364 260 q 500 194 442 194 m 500 1056 q 332 1117 393 1056 q 269 1296 271 1179 l 403 1306 q 427 1235 406 1260 q 500 1210 449 1210 q 574 1235 551 1210 q 597 1306 596 1260 l 731 1296 q 668 1117 729 1179 q 500 1056 607 1056 z "},"Ô":{"ha":1000,"x_min":76,"x_max":924,"o":"m 500 -15 q 325 18 403 -15 q 192 117 247 51 q 106 277 136 183 q 76 489 76 371 q 106 701 76 607 q 192 861 136 794 q 326 961 249 928 q 500 994 403 994 q 675 960 597 994 q 808 861 753 926 q 893 703 863 796 q 924 492 924 610 q 893 278 924 372 q 808 119 863 185 q 675 19 753 53 q 500 -15 597 -15 m 500 194 q 597 227 560 194 q 654 326 635 260 q 674 490 674 392 q 654 656 674 590 q 597 753 635 721 q 500 785 558 785 q 403 752 442 785 q 344 654 364 719 q 325 489 325 589 q 344 325 325 390 q 403 227 364 260 q 500 194 442 194 m 261 1063 l 404 1285 l 596 1285 l 739 1063 l 568 1063 l 500 1178 l 431 1063 l 261 1063 z "},"Ố":{"ha":1000,"x_min":76,"x_max":924,"o":"m 500 -15 q 325 18 403 -15 q 192 117 247 51 q 106 277 136 183 q 76 489 76 371 q 106 701 76 607 q 192 861 136 794 q 326 961 249 928 q 500 994 403 994 q 675 960 597 994 q 808 861 753 926 q 893 703 863 796 q 924 492 924 610 q 893 278 924 372 q 808 119 863 185 q 675 19 753 53 q 500 -15 597 -15 m 500 194 q 597 227 560 194 q 654 326 635 260 q 674 490 674 392 q 654 656 674 590 q 597 753 635 721 q 500 785 558 785 q 403 752 442 785 q 344 654 364 719 q 325 489 325 589 q 344 325 325 390 q 403 227 364 260 q 500 194 442 194 m 275 1064 l 408 1307 l 600 1307 l 733 1064 l 572 1064 l 504 1200 l 436 1064 l 275 1064 m 661 1258 l 725 1471 l 888 1471 l 786 1258 l 661 1258 z "},"Ộ":{"ha":1000,"x_min":76,"x_max":924,"o":"m 500 -15 q 325 18 403 -15 q 192 117 247 51 q 106 277 136 183 q 76 489 76 371 q 106 701 76 607 q 192 861 136 794 q 326 961 249 928 q 500 994 403 994 q 675 960 597 994 q 808 861 753 926 q 893 703 863 796 q 924 492 924 610 q 893 278 924 372 q 808 119 863 185 q 675 19 753 53 q 500 -15 597 -15 m 500 194 q 597 227 560 194 q 654 326 635 260 q 674 490 674 392 q 654 656 674 590 q 597 753 635 721 q 500 785 558 785 q 403 752 442 785 q 344 654 364 719 q 325 489 325 589 q 344 325 325 390 q 403 227 364 260 q 500 194 442 194 m 399 -307 l 399 -107 l 604 -107 l 604 -307 l 399 -307 m 261 1063 l 404 1285 l 596 1285 l 739 1063 l 568 1063 l 500 1178 l 431 1063 l 261 1063 z "},"Ồ":{"ha":1000,"x_min":76,"x_max":924,"o":"m 500 -15 q 325 18 403 -15 q 192 117 247 51 q 106 277 136 183 q 76 489 76 371 q 106 701 76 607 q 192 861 136 794 q 326 961 249 928 q 500 994 403 994 q 675 960 597 994 q 808 861 753 926 q 893 703 863 796 q 924 492 924 610 q 893 278 924 372 q 808 119 863 185 q 675 19 753 53 q 500 -15 597 -15 m 500 194 q 597 227 560 194 q 654 326 635 260 q 674 490 674 392 q 654 656 674 590 q 597 753 635 721 q 500 785 558 785 q 403 752 442 785 q 344 654 364 719 q 325 489 325 589 q 344 325 325 390 q 403 227 364 260 q 500 194 442 194 m 275 1064 l 408 1307 l 600 1307 l 733 1064 l 572 1064 l 504 1200 l 436 1064 l 275 1064 m 693 1258 l 592 1471 l 756 1471 l 818 1258 l 693 1258 z "},"Ổ":{"ha":1000,"x_min":76,"x_max":924,"o":"m 500 -15 q 325 18 403 -15 q 192 117 247 51 q 106 277 136 183 q 76 489 76 371 q 106 701 76 607 q 192 861 136 794 q 326 961 249 928 q 500 994 403 994 q 675 960 597 994 q 808 861 753 926 q 893 703 863 796 q 924 492 924 610 q 893 278 924 372 q 808 119 863 185 q 675 19 753 53 q 500 -15 597 -15 m 500 194 q 597 227 560 194 q 654 326 635 260 q 674 490 674 392 q 654 656 674 590 q 597 753 635 721 q 500 785 558 785 q 403 752 442 785 q 344 654 364 719 q 325 489 325 589 q 344 325 325 390 q 403 227 364 260 q 500 194 442 194 m 275 1064 l 408 1251 l 600 1251 l 733 1064 l 572 1064 l 504 1174 l 436 1064 l 275 1064 m 647 1253 q 653 1285 647 1271 q 667 1313 658 1300 q 681 1335 675 1325 q 686 1358 686 1346 q 678 1376 686 1371 q 653 1381 671 1381 q 626 1376 639 1381 q 600 1364 613 1372 l 572 1449 q 637 1472 600 1464 q 714 1481 674 1481 q 811 1459 778 1481 q 844 1399 844 1438 q 833 1357 844 1375 q 808 1324 822 1339 q 783 1291 794 1308 q 769 1253 771 1274 l 647 1253 z "},"Ỗ":{"ha":1000,"x_min":76,"x_max":924,"o":"m 500 -15 q 325 18 403 -15 q 192 117 247 51 q 106 277 136 183 q 76 489 76 371 q 106 701 76 607 q 192 861 136 794 q 326 961 249 928 q 500 994 403 994 q 675 960 597 994 q 808 861 753 926 q 893 703 863 796 q 924 492 924 610 q 893 278 924 372 q 808 119 863 185 q 675 19 753 53 q 500 -15 597 -15 m 500 194 q 597 227 560 194 q 654 326 635 260 q 674 490 674 392 q 654 656 674 590 q 597 753 635 721 q 500 785 558 785 q 403 752 442 785 q 344 654 364 719 q 325 489 325 589 q 344 325 325 390 q 403 227 364 260 q 500 194 442 194 m 272 1064 l 406 1251 l 597 1251 l 731 1064 l 565 1064 l 501 1169 l 436 1064 l 272 1064 m 369 1301 l 261 1307 q 298 1427 267 1382 q 406 1472 329 1472 q 474 1458 446 1472 q 524 1432 503 1443 q 550 1417 532 1426 q 586 1407 568 1407 q 617 1426 607 1407 q 631 1474 628 1444 l 740 1467 q 699 1346 736 1390 q 586 1301 663 1301 q 521 1315 547 1301 q 478 1338 494 1328 q 446 1357 461 1349 q 415 1365 431 1365 q 383 1347 394 1365 q 369 1301 372 1329 z "},"Ȍ":{"ha":1000,"x_min":76,"x_max":924,"o":"m 500 -15 q 325 18 403 -15 q 192 117 247 51 q 106 277 136 183 q 76 489 76 371 q 106 701 76 607 q 192 861 136 794 q 326 961 249 928 q 500 994 403 994 q 675 960 597 994 q 808 861 753 926 q 893 703 863 796 q 924 492 924 610 q 893 278 924 372 q 808 119 863 185 q 675 19 753 53 q 500 -15 597 -15 m 500 194 q 597 227 560 194 q 654 326 635 260 q 674 490 674 392 q 654 656 674 590 q 597 753 635 721 q 500 785 558 785 q 403 752 442 785 q 344 654 364 719 q 325 489 325 589 q 344 325 325 390 q 403 227 364 260 q 500 194 442 194 m 539 1063 l 379 1285 l 575 1285 l 669 1063 l 539 1063 m 331 1063 l 147 1285 l 343 1285 l 461 1063 l 331 1063 z "},"Ö":{"ha":1000,"x_min":76,"x_max":924,"o":"m 500 -15 q 325 18 403 -15 q 192 117 247 51 q 106 277 136 183 q 76 489 76 371 q 106 701 76 607 q 192 861 136 794 q 326 961 249 928 q 500 994 403 994 q 675 960 597 994 q 808 861 753 926 q 893 703 863 796 q 924 492 924 610 q 893 278 924 372 q 808 119 863 185 q 675 19 753 53 q 500 -15 597 -15 m 500 194 q 597 227 560 194 q 654 326 635 260 q 674 490 674 392 q 654 656 674 590 q 597 753 635 721 q 500 785 558 785 q 403 752 442 785 q 344 654 364 719 q 325 489 325 589 q 344 325 325 390 q 403 227 364 260 q 500 194 442 194 m 542 1078 l 542 1272 l 747 1272 l 747 1078 l 542 1078 m 253 1078 l 253 1272 l 458 1272 l 458 1078 l 253 1078 z "},"Ȫ":{"ha":1000,"x_min":76,"x_max":924,"o":"m 500 -15 q 325 18 403 -15 q 192 117 247 51 q 106 277 136 183 q 76 489 76 371 q 106 701 76 607 q 192 861 136 794 q 326 961 249 928 q 500 994 403 994 q 675 960 597 994 q 808 861 753 926 q 893 703 863 796 q 924 492 924 610 q 893 278 924 372 q 808 119 863 185 q 675 19 753 53 q 500 -15 597 -15 m 500 194 q 597 227 560 194 q 654 326 635 260 q 674 490 674 392 q 654 656 674 590 q 597 753 635 721 q 500 785 558 785 q 403 752 442 785 q 344 654 364 719 q 325 489 325 589 q 344 325 325 390 q 403 227 364 260 q 500 194 442 194 m 282 1303 l 282 1450 l 718 1450 l 718 1303 l 282 1303 m 264 1067 l 264 1228 l 469 1228 l 469 1067 l 264 1067 m 531 1067 l 531 1228 l 736 1228 l 736 1067 l 531 1067 z "},"Ȱ":{"ha":1000,"x_min":76,"x_max":924,"o":"m 500 -15 q 325 18 403 -15 q 192 117 247 51 q 106 277 136 183 q 76 489 76 371 q 106 701 76 607 q 192 861 136 794 q 326 961 249 928 q 500 994 403 994 q 675 960 597 994 q 808 861 753 926 q 893 703 863 796 q 924 492 924 610 q 893 278 924 372 q 808 119 863 185 q 675 19 753 53 q 500 -15 597 -15 m 500 194 q 597 227 560 194 q 654 326 635 260 q 674 490 674 392 q 654 656 674 590 q 597 753 635 721 q 500 785 558 785 q 403 752 442 785 q 344 654 364 719 q 325 489 325 589 q 344 325 325 390 q 403 227 364 260 q 500 194 442 194 m 304 1293 l 304 1431 l 696 1431 l 696 1293 l 304 1293 m 404 1075 l 404 1232 l 596 1232 l 596 1075 l 404 1075 z "},"Ọ":{"ha":1000,"x_min":76,"x_max":924,"o":"m 500 -15 q 325 18 403 -15 q 192 117 247 51 q 106 277 136 183 q 76 489 76 371 q 106 701 76 607 q 192 861 136 794 q 326 961 249 928 q 500 994 403 994 q 675 960 597 994 q 808 861 753 926 q 893 703 863 796 q 924 492 924 610 q 893 278 924 372 q 808 119 863 185 q 675 19 753 53 q 500 -15 597 -15 m 500 194 q 597 227 560 194 q 654 326 635 260 q 674 490 674 392 q 654 656 674 590 q 597 753 635 721 q 500 785 558 785 q 403 752 442 785 q 344 654 364 719 q 325 489 325 589 q 344 325 325 390 q 403 227 364 260 q 500 194 442 194 m 399 -307 l 399 -107 l 604 -107 l 604 -307 l 399 -307 z "},"Ò":{"ha":1000,"x_min":76,"x_max":924,"o":"m 500 -15 q 325 18 403 -15 q 192 117 247 51 q 106 277 136 183 q 76 489 76 371 q 106 701 76 607 q 192 861 136 794 q 326 961 249 928 q 500 994 403 994 q 675 960 597 994 q 808 861 753 926 q 893 703 863 796 q 924 492 924 610 q 893 278 924 372 q 808 119 863 185 q 675 19 753 53 q 500 -15 597 -15 m 500 194 q 597 227 560 194 q 654 326 635 260 q 674 490 674 392 q 654 656 674 590 q 597 753 635 721 q 500 785 558 785 q 403 752 442 785 q 344 654 364 719 q 325 489 325 589 q 344 325 325 390 q 403 227 364 260 q 500 194 442 194 m 421 1063 l 214 1285 l 446 1285 l 581 1063 l 421 1063 z "},"Ỏ":{"ha":1000,"x_min":76,"x_max":924,"o":"m 500 -15 q 325 18 403 -15 q 192 117 247 51 q 106 277 136 183 q 76 489 76 371 q 106 701 76 607 q 192 861 136 794 q 326 961 249 928 q 500 994 403 994 q 675 960 597 994 q 808 861 753 926 q 893 703 863 796 q 924 492 924 610 q 893 278 924 372 q 808 119 863 185 q 675 19 753 53 q 500 -15 597 -15 m 500 194 q 597 227 560 194 q 654 326 635 260 q 674 490 674 392 q 654 656 674 590 q 597 753 635 721 q 500 785 558 785 q 403 752 442 785 q 344 654 364 719 q 325 489 325 589 q 344 325 325 390 q 403 227 364 260 q 500 194 442 194 m 435 1063 l 435 1088 q 442 1121 435 1107 q 460 1146 450 1135 q 477 1167 469 1157 q 485 1190 485 1176 q 476 1208 485 1203 q 451 1213 468 1213 q 420 1209 436 1213 q 388 1197 404 1206 l 357 1288 q 423 1313 385 1304 q 503 1321 461 1321 q 613 1297 575 1321 q 651 1225 651 1272 q 639 1177 651 1196 q 610 1145 626 1158 q 580 1118 593 1132 q 567 1086 567 1104 l 567 1063 l 435 1063 z "},"Ơ":{"ha":1000,"x_min":76,"x_max":940,"o":"m 500 -15 q 325 18 403 -15 q 192 117 247 51 q 106 277 136 183 q 76 489 76 371 q 106 701 76 607 q 192 861 136 794 q 326 961 249 928 q 500 994 403 994 q 675 960 597 994 q 808 861 753 926 q 893 703 863 796 q 924 492 924 610 q 893 278 924 372 q 808 119 863 185 q 675 19 753 53 q 500 -15 597 -15 m 500 194 q 597 227 560 194 q 654 326 635 260 q 674 490 674 392 q 654 656 674 590 q 597 753 635 721 q 500 785 558 785 q 403 752 442 785 q 344 654 364 719 q 325 489 325 589 q 344 325 325 390 q 403 227 364 260 q 500 194 442 194 m 635 869 l 597 985 q 631 981 617 982 q 653 979 644 979 q 701 994 682 979 q 728 1036 719 1008 q 736 1103 736 1064 l 736 1151 l 940 1151 l 940 1088 q 918 978 940 1029 q 860 899 896 928 q 779 869 824 869 l 635 869 z "},"Ớ":{"ha":1000,"x_min":76,"x_max":940,"o":"m 500 -15 q 325 18 403 -15 q 192 117 247 51 q 106 277 136 183 q 76 489 76 371 q 106 701 76 607 q 192 861 136 794 q 326 961 249 928 q 500 994 403 994 q 675 960 597 994 q 808 861 753 926 q 893 703 863 796 q 924 492 924 610 q 893 278 924 372 q 808 119 863 185 q 675 19 753 53 q 500 -15 597 -15 m 500 194 q 597 227 560 194 q 654 326 635 260 q 674 490 674 392 q 654 656 674 590 q 597 753 635 721 q 500 785 558 785 q 403 752 442 785 q 344 654 364 719 q 325 489 325 589 q 344 325 325 390 q 403 227 364 260 q 500 194 442 194 m 635 869 l 597 985 q 631 981 617 982 q 653 979 644 979 q 701 994 682 979 q 728 1036 719 1008 q 736 1103 736 1064 l 736 1151 l 940 1151 l 940 1088 q 918 978 940 1029 q 860 899 896 928 q 779 869 824 869 l 635 869 m 351 1063 l 485 1296 l 739 1296 l 531 1063 l 351 1063 z "},"Ợ":{"ha":1000,"x_min":76,"x_max":940,"o":"m 500 -15 q 325 18 403 -15 q 192 117 247 51 q 106 277 136 183 q 76 489 76 371 q 106 701 76 607 q 192 861 136 794 q 326 961 249 928 q 500 994 403 994 q 675 960 597 994 q 808 861 753 926 q 893 703 863 796 q 924 492 924 610 q 893 278 924 372 q 808 119 863 185 q 675 19 753 53 q 500 -15 597 -15 m 500 194 q 597 227 560 194 q 654 326 635 260 q 674 490 674 392 q 654 656 674 590 q 597 753 635 721 q 500 785 558 785 q 403 752 442 785 q 344 654 364 719 q 325 489 325 589 q 344 325 325 390 q 403 227 364 260 q 500 194 442 194 m 635 869 l 597 985 q 631 981 617 982 q 653 979 644 979 q 701 994 682 979 q 728 1036 719 1008 q 736 1103 736 1064 l 736 1151 l 940 1151 l 940 1088 q 918 978 940 1029 q 860 899 896 928 q 779 869 824 869 l 635 869 m 403 -307 l 403 -107 l 608 -107 l 608 -307 l 403 -307 z "},"Ờ":{"ha":1000,"x_min":76,"x_max":940,"o":"m 500 -15 q 325 18 403 -15 q 192 117 247 51 q 106 277 136 183 q 76 489 76 371 q 106 701 76 607 q 192 861 136 794 q 326 961 249 928 q 500 994 403 994 q 675 960 597 994 q 808 861 753 926 q 893 703 863 796 q 924 492 924 610 q 893 278 924 372 q 808 119 863 185 q 675 19 753 53 q 500 -15 597 -15 m 500 194 q 597 227 560 194 q 654 326 635 260 q 674 490 674 392 q 654 656 674 590 q 597 753 635 721 q 500 785 558 785 q 403 752 442 785 q 344 654 364 719 q 325 489 325 589 q 344 325 325 390 q 403 227 364 260 q 500 194 442 194 m 635 869 l 597 985 q 631 981 617 982 q 653 979 644 979 q 701 994 682 979 q 728 1036 719 1008 q 736 1103 736 1064 l 736 1151 l 940 1151 l 940 1088 q 918 978 940 1029 q 860 899 896 928 q 779 869 824 869 l 635 869 m 361 1063 l 154 1285 l 386 1285 l 521 1063 l 361 1063 z "},"Ở":{"ha":1000,"x_min":76,"x_max":940,"o":"m 500 -15 q 325 18 403 -15 q 192 117 247 51 q 106 277 136 183 q 76 489 76 371 q 106 701 76 607 q 192 861 136 794 q 326 961 249 928 q 500 994 403 994 q 675 960 597 994 q 808 861 753 926 q 893 703 863 796 q 924 492 924 610 q 893 278 924 372 q 808 119 863 185 q 675 19 753 53 q 500 -15 597 -15 m 500 194 q 597 227 560 194 q 654 326 635 260 q 674 490 674 392 q 654 656 674 590 q 597 753 635 721 q 500 785 558 785 q 403 752 442 785 q 344 654 364 719 q 325 489 325 589 q 344 325 325 390 q 403 227 364 260 q 500 194 442 194 m 635 869 l 597 985 q 631 981 617 982 q 653 979 644 979 q 701 994 682 979 q 728 1036 719 1008 q 736 1103 736 1064 l 736 1151 l 940 1151 l 940 1088 q 918 978 940 1029 q 860 899 896 928 q 779 869 824 869 l 635 869 m 375 1063 l 375 1088 q 383 1121 375 1107 q 400 1146 390 1135 q 417 1167 410 1157 q 425 1190 425 1176 q 417 1208 425 1203 q 392 1213 408 1213 q 360 1209 376 1213 q 328 1197 344 1206 l 297 1288 q 363 1313 325 1304 q 443 1321 401 1321 q 553 1297 515 1321 q 592 1225 592 1272 q 579 1177 592 1196 q 550 1145 567 1158 q 520 1118 533 1132 q 507 1086 507 1104 l 507 1063 l 375 1063 z "},"Ỡ":{"ha":1000,"x_min":76,"x_max":940,"o":"m 500 -15 q 325 18 403 -15 q 192 117 247 51 q 106 277 136 183 q 76 489 76 371 q 106 701 76 607 q 192 861 136 794 q 326 961 249 928 q 500 994 403 994 q 675 960 597 994 q 808 861 753 926 q 893 703 863 796 q 924 492 924 610 q 893 278 924 372 q 808 119 863 185 q 675 19 753 53 q 500 -15 597 -15 m 500 194 q 597 227 560 194 q 654 326 635 260 q 674 490 674 392 q 654 656 674 590 q 597 753 635 721 q 500 785 558 785 q 403 752 442 785 q 344 654 364 719 q 325 489 325 589 q 344 325 325 390 q 403 227 364 260 q 500 194 442 194 m 635 869 l 597 985 q 631 981 617 982 q 653 979 644 979 q 701 994 682 979 q 728 1036 719 1008 q 736 1103 736 1064 l 736 1151 l 940 1151 l 940 1088 q 918 978 940 1029 q 860 899 896 928 q 779 869 824 869 l 635 869 m 257 1051 l 138 1060 q 157 1170 138 1122 q 215 1244 176 1218 q 304 1271 253 1271 q 371 1256 343 1271 q 419 1229 399 1242 q 451 1211 433 1221 q 489 1201 469 1201 q 533 1224 519 1201 q 546 1278 547 1246 l 665 1271 q 645 1160 665 1207 q 588 1086 625 1113 q 500 1060 551 1060 q 432 1074 460 1060 q 388 1099 404 1089 q 354 1119 372 1108 q 314 1129 336 1129 q 269 1105 279 1129 q 257 1051 258 1081 z "},"Ő":{"ha":1000,"x_min":76,"x_max":924,"o":"m 500 -15 q 325 18 403 -15 q 192 117 247 51 q 106 277 136 183 q 76 489 76 371 q 106 701 76 607 q 192 861 136 794 q 326 961 249 928 q 500 994 403 994 q 675 960 597 994 q 808 861 753 926 q 893 703 863 796 q 924 492 924 610 q 893 278 924 372 q 808 119 863 185 q 675 19 753 53 q 500 -15 597 -15 m 500 194 q 597 227 560 194 q 654 326 635 260 q 674 490 674 392 q 654 656 674 590 q 597 753 635 721 q 500 785 558 785 q 403 752 442 785 q 344 654 364 719 q 325 489 325 589 q 344 325 325 390 q 403 227 364 260 q 500 194 442 194 m 331 1063 l 425 1285 l 621 1285 l 461 1063 l 331 1063 m 540 1063 l 658 1285 l 853 1285 l 671 1063 l 540 1063 z "},"Ȏ":{"ha":1000,"x_min":76,"x_max":924,"o":"m 500 -15 q 325 18 403 -15 q 192 117 247 51 q 106 277 136 183 q 76 489 76 371 q 106 701 76 607 q 192 861 136 794 q 326 961 249 928 q 500 994 403 994 q 675 960 597 994 q 808 861 753 926 q 893 703 863 796 q 924 492 924 610 q 893 278 924 372 q 808 119 863 185 q 675 19 753 53 q 500 -15 597 -15 m 500 194 q 597 227 560 194 q 654 326 635 260 q 674 490 674 392 q 654 656 674 590 q 597 753 635 721 q 500 785 558 785 q 403 752 442 785 q 344 654 364 719 q 325 489 325 589 q 344 325 325 390 q 403 227 364 260 q 500 194 442 194 m 403 1056 l 269 1067 q 332 1245 271 1185 q 500 1306 393 1306 q 668 1245 607 1306 q 731 1067 729 1185 l 597 1056 q 574 1126 596 1101 q 503 1151 553 1151 q 429 1127 453 1151 q 403 1056 406 1103 z "},"Ō":{"ha":1000,"x_min":76,"x_max":924,"o":"m 500 -15 q 325 18 403 -15 q 192 117 247 51 q 106 277 136 183 q 76 489 76 371 q 106 701 76 607 q 192 861 136 794 q 326 961 249 928 q 500 994 403 994 q 675 960 597 994 q 808 861 753 926 q 893 703 863 796 q 924 492 924 610 q 893 278 924 372 q 808 119 863 185 q 675 19 753 53 q 500 -15 597 -15 m 500 194 q 597 227 560 194 q 654 326 635 260 q 674 490 674 392 q 654 656 674 590 q 597 753 635 721 q 500 785 558 785 q 403 752 442 785 q 344 654 364 719 q 325 489 325 589 q 344 325 325 390 q 403 227 364 260 q 500 194 442 194 m 285 1108 l 285 1268 l 715 1268 l 715 1108 l 285 1108 z "},"Ṓ":{"ha":1000,"x_min":76,"x_max":924,"o":"m 500 -15 q 325 18 403 -15 q 192 117 247 51 q 106 277 136 183 q 76 489 76 371 q 106 701 76 607 q 192 861 136 794 q 326 961 249 928 q 500 994 403 994 q 675 960 597 994 q 808 861 753 926 q 893 703 863 796 q 924 492 924 610 q 893 278 924 372 q 808 119 863 185 q 675 19 753 53 q 500 -15 597 -15 m 500 194 q 597 227 560 194 q 654 326 635 260 q 674 490 674 392 q 654 656 674 590 q 597 753 635 721 q 500 785 558 785 q 403 752 442 785 q 344 654 364 719 q 325 489 325 589 q 344 325 325 390 q 403 227 364 260 q 500 194 442 194 m 283 1093 l 283 1231 l 717 1231 l 717 1093 l 283 1093 m 396 1289 l 492 1486 l 724 1486 l 554 1289 l 396 1289 z "},"Ṑ":{"ha":1000,"x_min":76,"x_max":924,"o":"m 500 -15 q 325 18 403 -15 q 192 117 247 51 q 106 277 136 183 q 76 489 76 371 q 106 701 76 607 q 192 861 136 794 q 326 961 249 928 q 500 994 403 994 q 675 960 597 994 q 808 861 753 926 q 893 703 863 796 q 924 492 924 610 q 893 278 924 372 q 808 119 863 185 q 675 19 753 53 q 500 -15 597 -15 m 500 194 q 597 227 560 194 q 654 326 635 260 q 674 490 674 392 q 654 656 674 590 q 597 753 635 721 q 500 785 558 785 q 403 752 442 785 q 344 654 364 719 q 325 489 325 589 q 344 325 325 390 q 403 227 364 260 q 500 194 442 194 m 446 1289 l 276 1486 l 508 1486 l 604 1289 l 446 1289 m 283 1093 l 283 1231 l 717 1231 l 717 1093 l 283 1093 z "},"Ǫ":{"ha":1000,"x_min":76,"x_max":924,"o":"m 500 -15 q 325 18 403 -15 q 192 117 247 51 q 106 277 136 183 q 76 489 76 371 q 106 701 76 607 q 192 861 136 794 q 326 961 249 928 q 500 994 403 994 q 675 960 597 994 q 808 861 753 926 q 893 703 863 796 q 924 492 924 610 q 893 278 924 372 q 808 119 863 185 q 675 19 753 53 q 500 -15 597 -15 m 500 194 q 597 227 560 194 q 654 326 635 260 q 674 490 674 392 q 654 656 674 590 q 597 753 635 721 q 500 785 558 785 q 403 752 442 785 q 344 654 364 719 q 325 489 325 589 q 344 325 325 390 q 403 227 364 260 q 500 194 442 194 m 536 -290 q 417 -256 460 -290 q 375 -157 375 -221 q 409 -39 375 -99 q 504 64 443 21 l 575 0 q 548 -31 560 -14 q 528 -68 536 -49 q 521 -107 521 -87 q 533 -149 521 -135 q 569 -162 546 -162 q 597 -160 582 -162 q 628 -150 611 -157 l 651 -268 q 593 -285 619 -281 q 536 -290 567 -290 z "},"Ø":{"ha":1000,"x_min":76,"x_max":924,"o":"m 500 -15 q 325 18 403 -15 q 192 117 247 51 q 106 277 136 183 q 76 489 76 371 q 106 701 76 607 q 192 861 136 794 q 326 961 249 928 q 500 994 403 994 q 675 960 597 994 q 808 861 753 926 q 893 703 863 796 q 924 492 924 610 q 893 278 924 372 q 808 119 863 185 q 675 19 753 53 q 500 -15 597 -15 m 500 194 q 597 227 560 194 q 654 326 635 260 q 674 490 674 392 q 654 656 674 590 q 597 753 635 721 q 500 785 558 785 q 403 752 442 785 q 344 654 364 719 q 325 489 325 589 q 344 325 325 390 q 403 227 364 260 q 500 194 442 194 m 326 -101 l 165 -22 l 251 154 l 319 261 l 568 808 l 590 907 l 676 1083 l 838 1004 l 751 828 l 683 722 l 435 175 l 411 75 l 326 -101 z "},"Ǿ":{"ha":1000,"x_min":76,"x_max":924,"o":"m 500 -15 q 325 18 403 -15 q 192 117 247 51 q 106 277 136 183 q 76 489 76 371 q 106 701 76 607 q 192 861 136 794 q 326 961 249 928 q 500 994 403 994 q 675 960 597 994 q 808 861 753 926 q 893 703 863 796 q 924 492 924 610 q 893 278 924 372 q 808 119 863 185 q 675 19 753 53 q 500 -15 597 -15 m 500 194 q 597 227 560 194 q 654 326 635 260 q 674 490 674 392 q 654 656 674 590 q 597 753 635 721 q 500 785 558 785 q 403 752 442 785 q 344 654 364 719 q 325 489 325 589 q 344 325 325 390 q 403 227 364 260 q 500 194 442 194 m 326 -101 l 165 -22 l 251 154 l 319 261 l 568 808 l 590 907 l 676 1083 l 838 1004 l 751 828 l 683 722 l 435 175 l 411 75 l 326 -101 m 411 1063 l 544 1296 l 799 1296 l 590 1063 l 411 1063 z "},"Õ":{"ha":1000,"x_min":76,"x_max":924,"o":"m 500 -15 q 325 18 403 -15 q 192 117 247 51 q 106 277 136 183 q 76 489 76 371 q 106 701 76 607 q 192 861 136 794 q 326 961 249 928 q 500 994 403 994 q 675 960 597 994 q 808 861 753 926 q 893 703 863 796 q 924 492 924 610 q 893 278 924 372 q 808 119 863 185 q 675 19 753 53 q 500 -15 597 -15 m 500 194 q 597 227 560 194 q 654 326 635 260 q 674 490 674 392 q 654 656 674 590 q 597 753 635 721 q 500 785 558 785 q 403 752 442 785 q 344 654 364 719 q 325 489 325 589 q 344 325 325 390 q 403 227 364 260 q 500 194 442 194 m 344 1051 l 225 1060 q 263 1212 224 1153 q 381 1271 303 1271 q 460 1255 425 1271 q 517 1232 494 1239 q 556 1215 533 1225 q 603 1206 578 1206 q 644 1226 632 1206 q 656 1278 657 1246 l 775 1271 q 737 1119 776 1178 q 618 1060 697 1060 q 540 1074 576 1060 q 486 1097 504 1089 q 444 1115 469 1104 q 397 1125 419 1125 q 356 1106 368 1125 q 344 1051 343 1086 z "},"Ṍ":{"ha":1000,"x_min":76,"x_max":924,"o":"m 500 -15 q 325 18 403 -15 q 192 117 247 51 q 106 277 136 183 q 76 489 76 371 q 106 701 76 607 q 192 861 136 794 q 326 961 249 928 q 500 994 403 994 q 675 960 597 994 q 808 861 753 926 q 893 703 863 796 q 924 492 924 610 q 893 278 924 372 q 808 119 863 185 q 675 19 753 53 q 500 -15 597 -15 m 500 194 q 597 227 560 194 q 654 326 635 260 q 674 490 674 392 q 654 656 674 590 q 597 753 635 721 q 500 785 558 785 q 403 752 442 785 q 344 654 364 719 q 325 489 325 589 q 344 325 325 390 q 403 227 364 260 q 500 194 442 194 m 418 1285 l 515 1482 l 746 1482 l 576 1285 l 418 1285 m 586 1063 q 519 1076 546 1063 q 475 1101 493 1090 q 450 1117 467 1107 q 415 1126 433 1126 q 382 1107 392 1126 q 369 1063 372 1088 l 261 1069 q 278 1163 265 1122 q 321 1227 290 1204 q 406 1250 351 1250 q 481 1236 450 1250 q 525 1213 511 1222 q 553 1196 538 1204 q 586 1188 569 1188 q 619 1208 610 1188 q 631 1251 629 1228 l 740 1246 q 701 1114 735 1165 q 586 1063 668 1063 z "},"Ṏ":{"ha":1000,"x_min":76,"x_max":924,"o":"m 500 -15 q 325 18 403 -15 q 192 117 247 51 q 106 277 136 183 q 76 489 76 371 q 106 701 76 607 q 192 861 136 794 q 326 961 249 928 q 500 994 403 994 q 675 960 597 994 q 808 861 753 926 q 893 703 863 796 q 924 492 924 610 q 893 278 924 372 q 808 119 863 185 q 675 19 753 53 q 500 -15 597 -15 m 500 194 q 597 227 560 194 q 654 326 635 260 q 674 490 674 392 q 654 656 674 590 q 597 753 635 721 q 500 785 558 785 q 403 752 442 785 q 344 654 364 719 q 325 489 325 589 q 344 325 325 390 q 403 227 364 260 q 500 194 442 194 m 586 1063 q 519 1076 546 1063 q 475 1101 493 1090 q 450 1117 467 1107 q 415 1126 433 1126 q 383 1107 393 1126 q 369 1063 374 1088 l 261 1069 q 278 1163 265 1122 q 321 1227 290 1204 q 406 1250 351 1250 q 481 1236 450 1250 q 525 1213 511 1222 q 553 1196 538 1204 q 586 1188 569 1188 q 619 1208 610 1188 q 631 1251 629 1228 l 740 1246 q 701 1114 735 1165 q 586 1063 668 1063 m 264 1300 l 264 1458 l 469 1458 l 469 1300 l 264 1300 m 531 1300 l 531 1458 l 736 1458 l 736 1300 l 531 1300 z "},"Ȭ":{"ha":1000,"x_min":76,"x_max":924,"o":"m 500 -15 q 325 18 403 -15 q 192 117 247 51 q 106 277 136 183 q 76 489 76 371 q 106 701 76 607 q 192 861 136 794 q 326 961 249 928 q 500 994 403 994 q 675 960 597 994 q 808 861 753 926 q 893 703 863 796 q 924 492 924 610 q 893 278 924 372 q 808 119 863 185 q 675 19 753 53 q 500 -15 597 -15 m 500 194 q 597 227 560 194 q 654 326 635 260 q 674 490 674 392 q 654 656 674 590 q 597 753 635 721 q 500 785 558 785 q 403 752 442 785 q 344 654 364 719 q 325 489 325 589 q 344 325 325 390 q 403 227 364 260 q 500 194 442 194 m 283 1313 l 283 1451 l 719 1451 l 719 1313 l 283 1313 m 586 1063 q 519 1077 546 1063 q 475 1103 493 1092 q 450 1118 467 1108 q 415 1128 433 1128 q 382 1108 392 1128 q 369 1064 372 1088 l 261 1071 q 278 1164 265 1124 q 321 1228 290 1204 q 406 1251 351 1251 q 481 1237 450 1251 q 525 1213 511 1222 q 553 1197 538 1206 q 586 1188 569 1188 q 619 1208 610 1188 q 631 1251 629 1228 l 740 1246 q 701 1114 735 1165 q 586 1063 668 1063 z "},"Œ":{"ha":1292,"x_min":76,"x_max":1199,"o":"m 511 0 q 323 36 404 0 q 186 138 242 72 q 103 293 131 204 q 76 489 76 382 q 103 686 76 597 q 186 841 131 775 q 323 943 242 907 q 513 979 404 979 l 1199 979 l 1199 783 l 832 783 l 832 592 l 1172 592 l 1172 399 l 832 399 l 832 196 l 1199 196 l 1199 0 l 511 0 m 524 201 l 596 201 l 596 778 l 522 778 q 374 703 422 778 q 325 489 325 629 q 374 274 325 347 q 524 201 424 201 z "},"P":{"ha":872,"x_min":100,"x_max":813,"o":"m 100 0 l 100 979 l 515 979 q 671 941 604 979 q 775 831 738 903 q 813 661 813 760 q 775 491 813 564 q 671 377 738 418 q 515 336 604 336 l 344 336 l 344 0 l 100 0 m 344 526 l 471 526 q 547 560 521 526 q 572 656 572 593 q 547 753 572 718 q 471 789 521 789 l 344 789 l 344 526 z "},"Þ":{"ha":868,"x_min":100,"x_max":810,"o":"m 100 0 l 100 979 l 344 979 l 344 826 l 511 826 q 667 788 601 826 q 772 678 733 750 q 810 508 810 607 q 772 339 810 413 q 667 225 733 265 q 511 185 601 185 l 344 185 l 344 0 l 100 0 m 344 375 l 467 375 q 543 408 517 375 q 569 504 569 440 q 543 601 569 567 q 467 636 517 636 l 344 636 l 344 375 z "},"Q":{"ha":1000,"x_min":76,"x_max":935,"o":"m 717 -314 l 578 -60 q 548 -25 565 -36 q 503 -14 531 -14 l 675 53 q 747 43 715 53 q 803 15 779 33 q 843 -32 826 -3 l 935 -208 l 717 -314 m 500 -15 q 324 18 401 -15 q 192 117 247 51 q 106 277 136 183 q 76 490 76 371 q 106 701 76 607 q 192 861 136 794 q 325 961 247 928 q 500 994 403 994 q 675 960 597 994 q 808 861 753 926 q 893 702 863 796 q 924 492 924 608 q 893 278 924 372 q 808 119 863 185 q 675 19 753 53 q 500 -15 597 -15 m 500 194 q 597 227 558 194 q 654 326 635 260 q 674 490 674 392 q 654 656 674 590 q 597 753 635 721 q 500 785 558 785 q 403 752 442 785 q 344 654 364 719 q 325 489 325 589 q 344 325 325 390 q 403 227 364 260 q 500 194 442 194 z "},"R":{"ha":894,"x_min":100,"x_max":864,"o":"m 100 0 l 100 979 l 499 979 q 731 899 649 979 q 813 675 813 819 q 788 542 813 597 q 724 453 763 486 q 644 407 685 421 l 647 401 l 665 399 q 703 367 685 390 q 742 294 722 343 l 864 0 l 594 0 l 485 276 q 463 316 474 301 q 438 337 453 331 q 401 343 424 343 l 344 343 l 344 0 l 100 0 m 344 526 l 471 526 q 547 561 521 526 q 572 658 572 596 q 547 755 572 721 q 468 789 521 789 l 344 789 l 344 526 z "},"Ŕ":{"ha":894,"x_min":100,"x_max":864,"o":"m 100 0 l 100 979 l 499 979 q 731 899 649 979 q 813 675 813 819 q 788 542 813 597 q 724 453 763 486 q 644 407 685 421 l 647 401 l 665 399 q 703 367 685 390 q 742 294 722 343 l 864 0 l 594 0 l 485 276 q 463 316 474 301 q 438 337 453 331 q 401 343 424 343 l 344 343 l 344 0 l 100 0 m 344 526 l 471 526 q 547 561 521 526 q 572 658 572 596 q 547 755 572 721 q 468 789 521 789 l 344 789 l 344 526 m 357 1063 l 490 1296 l 744 1296 l 536 1063 l 357 1063 z "},"Ř":{"ha":894,"x_min":100,"x_max":864,"o":"m 100 0 l 100 979 l 499 979 q 731 899 649 979 q 813 675 813 819 q 788 542 813 597 q 724 453 763 486 q 644 407 685 421 l 647 401 l 665 399 q 703 367 685 390 q 742 294 722 343 l 864 0 l 594 0 l 485 276 q 463 316 474 301 q 438 337 453 331 q 401 343 424 343 l 344 343 l 344 0 l 100 0 m 344 526 l 471 526 q 547 561 521 526 q 572 658 572 596 q 547 755 572 721 q 468 789 521 789 l 344 789 l 344 526 m 350 1063 l 207 1285 l 378 1285 l 446 1169 l 515 1285 l 685 1285 l 542 1063 l 350 1063 z "},"Ŗ":{"ha":894,"x_min":100,"x_max":864,"o":"m 100 0 l 100 979 l 499 979 q 731 899 649 979 q 813 675 813 819 q 788 542 813 597 q 724 453 763 486 q 644 407 685 421 l 647 401 l 665 399 q 703 367 685 390 q 742 294 722 343 l 864 0 l 594 0 l 485 276 q 463 316 474 301 q 438 337 453 331 q 401 343 424 343 l 344 343 l 344 0 l 100 0 m 344 526 l 471 526 q 547 561 521 526 q 572 658 572 596 q 547 755 572 721 q 468 789 521 789 l 344 789 l 344 526 m 463 -442 l 382 -387 q 424 -317 410 -356 q 438 -244 438 -278 l 481 -265 l 347 -265 l 347 -94 l 543 -94 l 543 -225 q 525 -342 543 -287 q 463 -442 507 -397 z "},"Ȑ":{"ha":894,"x_min":93,"x_max":864,"o":"m 100 0 l 100 979 l 499 979 q 731 899 649 979 q 813 675 813 819 q 788 542 813 597 q 724 453 763 486 q 644 407 685 421 l 647 401 l 665 399 q 703 367 685 390 q 742 294 722 343 l 864 0 l 594 0 l 485 276 q 463 316 474 301 q 438 337 453 331 q 401 343 424 343 l 344 343 l 344 0 l 100 0 m 344 526 l 471 526 q 547 561 521 526 q 572 658 572 596 q 547 755 572 721 q 468 789 521 789 l 344 789 l 344 526 m 485 1063 l 325 1285 l 521 1285 l 615 1063 l 485 1063 m 276 1063 l 93 1285 l 289 1285 l 407 1063 l 276 1063 z "},"Ṛ":{"ha":894,"x_min":100,"x_max":864,"o":"m 100 0 l 100 979 l 499 979 q 731 899 649 979 q 813 675 813 819 q 788 542 813 597 q 724 453 763 486 q 644 407 685 421 l 647 401 l 665 399 q 703 367 685 390 q 742 294 722 343 l 864 0 l 594 0 l 485 276 q 463 316 474 301 q 438 337 453 331 q 401 343 424 343 l 344 343 l 344 0 l 100 0 m 344 526 l 471 526 q 547 561 521 526 q 572 658 572 596 q 547 755 572 721 q 468 789 521 789 l 344 789 l 344 526 m 343 -307 l 343 -107 l 549 -107 l 549 -307 l 343 -307 z "},"Ȓ":{"ha":894,"x_min":100,"x_max":864,"o":"m 100 0 l 100 979 l 499 979 q 731 899 649 979 q 813 675 813 819 q 788 542 813 597 q 724 453 763 486 q 644 407 685 421 l 647 401 l 665 399 q 703 367 685 390 q 742 294 722 343 l 864 0 l 594 0 l 485 276 q 463 316 474 301 q 438 337 453 331 q 401 343 424 343 l 344 343 l 344 0 l 100 0 m 344 526 l 471 526 q 547 561 521 526 q 572 658 572 596 q 547 755 572 721 q 468 789 521 789 l 344 789 l 344 526 m 349 1056 l 215 1067 q 278 1245 217 1185 q 446 1306 339 1306 q 614 1245 553 1306 q 676 1067 675 1185 l 543 1056 q 520 1126 542 1101 q 449 1151 499 1151 q 375 1127 399 1151 q 349 1056 351 1103 z "},"Ṟ":{"ha":894,"x_min":100,"x_max":864,"o":"m 100 0 l 100 979 l 499 979 q 731 899 649 979 q 813 675 813 819 q 788 542 813 597 q 724 453 763 486 q 644 407 685 421 l 647 401 l 665 399 q 703 367 685 390 q 742 294 722 343 l 864 0 l 594 0 l 485 276 q 463 316 474 301 q 438 337 453 331 q 401 343 424 343 l 344 343 l 344 0 l 100 0 m 344 526 l 471 526 q 547 561 521 526 q 572 658 572 596 q 547 755 572 721 q 468 789 521 789 l 344 789 l 344 526 m 228 -271 l 228 -111 l 664 -111 l 664 -271 l 228 -271 z "},"S":{"ha":840,"x_min":74,"x_max":783,"o":"m 417 -15 q 291 -6 356 -15 q 170 19 226 3 q 74 60 114 36 l 140 251 q 226 215 179 229 q 322 194 272 200 q 414 188 372 188 q 507 210 469 188 q 544 285 544 232 q 533 333 544 315 q 501 362 522 351 q 450 379 479 372 l 317 407 q 143 503 199 431 q 88 686 88 575 q 134 849 88 779 q 263 956 181 918 q 453 994 346 994 q 568 985 511 994 q 672 958 625 975 q 753 915 719 942 l 686 725 q 582 776 643 760 q 467 792 521 792 q 395 781 426 792 q 347 749 364 769 q 329 696 329 728 q 353 630 329 654 q 424 596 378 606 l 554 569 q 726 481 668 549 q 783 303 783 414 q 738 134 783 206 q 610 24 693 63 q 417 -15 526 -15 z "},"Ś":{"ha":840,"x_min":74,"x_max":783,"o":"m 417 -15 q 291 -6 356 -15 q 170 19 226 3 q 74 60 114 36 l 140 251 q 226 215 179 229 q 322 194 272 200 q 414 188 372 188 q 507 210 469 188 q 544 285 544 232 q 533 333 544 315 q 501 362 522 351 q 450 379 479 372 l 317 407 q 143 503 199 431 q 88 686 88 575 q 134 849 88 779 q 263 956 181 918 q 453 994 346 994 q 568 985 511 994 q 672 958 625 975 q 753 915 719 942 l 686 725 q 582 776 643 760 q 467 792 521 792 q 395 781 426 792 q 347 749 364 769 q 329 696 329 728 q 353 630 329 654 q 424 596 378 606 l 554 569 q 726 481 668 549 q 783 303 783 414 q 738 134 783 206 q 610 24 693 63 q 417 -15 526 -15 m 350 1063 l 483 1296 l 738 1296 l 529 1063 l 350 1063 z "},"Ṥ":{"ha":840,"x_min":74,"x_max":783,"o":"m 417 -15 q 291 -6 356 -15 q 170 19 226 3 q 74 60 114 36 l 140 251 q 226 215 179 229 q 322 194 272 200 q 414 188 372 188 q 507 210 469 188 q 544 285 544 232 q 533 333 544 315 q 501 362 522 351 q 450 379 479 372 l 317 407 q 143 503 199 431 q 88 686 88 575 q 134 849 88 779 q 263 956 181 918 q 453 994 346 994 q 568 985 511 994 q 672 958 625 975 q 753 915 719 942 l 686 725 q 582 776 643 760 q 467 792 521 792 q 395 781 426 792 q 347 749 364 769 q 329 696 329 728 q 353 630 329 654 q 424 596 378 606 l 554 569 q 726 481 668 549 q 783 303 783 414 q 738 134 783 206 q 610 24 693 63 q 417 -15 526 -15 m 238 1301 l 238 1461 l 431 1461 l 431 1301 l 238 1301 m 358 1061 l 474 1338 l 700 1338 l 521 1061 l 358 1061 z "},"Š":{"ha":840,"x_min":74,"x_max":783,"o":"m 417 -15 q 291 -6 356 -15 q 170 19 226 3 q 74 60 114 36 l 140 251 q 226 215 179 229 q 322 194 272 200 q 414 188 372 188 q 507 210 469 188 q 544 285 544 232 q 533 333 544 315 q 501 362 522 351 q 450 379 479 372 l 317 407 q 143 503 199 431 q 88 686 88 575 q 134 849 88 779 q 263 956 181 918 q 453 994 346 994 q 568 985 511 994 q 672 958 625 975 q 753 915 719 942 l 686 725 q 582 776 643 760 q 467 792 521 792 q 395 781 426 792 q 347 749 364 769 q 329 696 329 728 q 353 630 329 654 q 424 596 378 606 l 554 569 q 726 481 668 549 q 783 303 783 414 q 738 134 783 206 q 610 24 693 63 q 417 -15 526 -15 m 343 1063 l 200 1285 l 371 1285 l 439 1169 l 508 1285 l 678 1285 l 535 1063 l 343 1063 z "},"Ṧ":{"ha":840,"x_min":74,"x_max":783,"o":"m 417 -15 q 291 -6 356 -15 q 170 19 226 3 q 74 60 114 36 l 140 251 q 226 215 179 229 q 322 194 272 200 q 414 188 372 188 q 507 210 469 188 q 544 285 544 232 q 533 333 544 315 q 501 362 522 351 q 450 379 479 372 l 317 407 q 143 503 199 431 q 88 686 88 575 q 134 849 88 779 q 263 956 181 918 q 453 994 346 994 q 568 985 511 994 q 672 958 625 975 q 753 915 719 942 l 686 725 q 582 776 643 760 q 467 792 521 792 q 395 781 426 792 q 347 749 364 769 q 329 696 329 728 q 353 630 329 654 q 424 596 378 606 l 554 569 q 726 481 668 549 q 783 303 783 414 q 738 134 783 206 q 610 24 693 63 q 417 -15 526 -15 m 343 1068 l 219 1288 l 381 1288 l 439 1167 l 497 1288 l 658 1288 l 535 1068 l 343 1068 m 333 1343 l 333 1500 l 544 1500 l 544 1343 l 333 1343 z "},"Ş":{"ha":840,"x_min":74,"x_max":783,"o":"m 417 -15 q 291 -6 356 -15 q 170 19 226 3 q 74 60 114 36 l 140 251 q 226 215 179 229 q 322 194 272 200 q 414 188 372 188 q 507 210 469 188 q 544 285 544 232 q 533 333 544 315 q 501 362 522 351 q 450 379 479 372 l 317 407 q 143 503 199 431 q 88 686 88 575 q 134 849 88 779 q 263 956 181 918 q 453 994 346 994 q 568 985 511 994 q 672 958 625 975 q 753 915 719 942 l 686 725 q 582 776 643 760 q 467 792 521 792 q 395 781 426 792 q 347 749 364 769 q 329 696 329 728 q 353 630 329 654 q 424 596 378 606 l 554 569 q 726 481 668 549 q 783 303 783 414 q 738 134 783 206 q 610 24 693 63 q 417 -15 526 -15 m 433 -290 q 354 -283 400 -290 q 281 -261 308 -276 l 314 -167 q 367 -187 336 -178 q 436 -196 399 -196 q 474 -187 461 -196 q 488 -160 488 -179 q 471 -131 488 -139 q 436 -124 454 -124 q 407 -126 426 -124 q 379 -129 388 -128 l 350 -103 l 369 28 l 468 28 l 451 -90 l 408 -61 q 444 -51 419 -54 q 499 -49 468 -49 q 552 -58 525 -49 q 598 -92 579 -68 q 617 -160 617 -117 q 594 -235 617 -207 q 531 -277 572 -264 q 433 -290 489 -290 z "},"Ŝ":{"ha":840,"x_min":74,"x_max":783,"o":"m 417 -15 q 291 -6 356 -15 q 170 19 226 3 q 74 60 114 36 l 140 251 q 226 215 179 229 q 322 194 272 200 q 414 188 372 188 q 507 210 469 188 q 544 285 544 232 q 533 333 544 315 q 501 362 522 351 q 450 379 479 372 l 317 407 q 143 503 199 431 q 88 686 88 575 q 134 849 88 779 q 263 956 181 918 q 453 994 346 994 q 568 985 511 994 q 672 958 625 975 q 753 915 719 942 l 686 725 q 582 776 643 760 q 467 792 521 792 q 395 781 426 792 q 347 749 364 769 q 329 696 329 728 q 353 630 329 654 q 424 596 378 606 l 554 569 q 726 481 668 549 q 783 303 783 414 q 738 134 783 206 q 610 24 693 63 q 417 -15 526 -15 m 200 1063 l 343 1285 l 535 1285 l 678 1063 l 507 1063 l 439 1178 l 369 1063 l 200 1063 z "},"Ș":{"ha":840,"x_min":74,"x_max":783,"o":"m 417 -15 q 291 -6 356 -15 q 170 19 226 3 q 74 60 114 36 l 140 251 q 226 215 179 229 q 322 194 272 200 q 414 188 372 188 q 507 210 469 188 q 544 285 544 232 q 533 333 544 315 q 501 362 522 351 q 450 379 479 372 l 317 407 q 143 503 199 431 q 88 686 88 575 q 134 849 88 779 q 263 956 181 918 q 453 994 346 994 q 568 985 511 994 q 672 958 625 975 q 753 915 719 942 l 686 725 q 582 776 643 760 q 467 792 521 792 q 395 781 426 792 q 347 749 364 769 q 329 696 329 728 q 353 630 329 654 q 424 596 378 606 l 554 569 q 726 481 668 549 q 783 303 783 414 q 738 134 783 206 q 610 24 693 63 q 417 -15 526 -15 m 439 -442 l 358 -387 q 400 -317 386 -356 q 414 -244 414 -278 l 457 -265 l 324 -265 l 324 -94 l 519 -94 l 519 -225 q 501 -342 519 -287 q 439 -442 483 -397 z "},"Ṡ":{"ha":840,"x_min":74,"x_max":783,"o":"m 417 -15 q 291 -6 356 -15 q 170 19 226 3 q 74 60 114 36 l 140 251 q 226 215 179 229 q 322 194 272 200 q 414 188 372 188 q 507 210 469 188 q 544 285 544 232 q 533 333 544 315 q 501 362 522 351 q 450 379 479 372 l 317 407 q 143 503 199 431 q 88 686 88 575 q 134 849 88 779 q 263 956 181 918 q 453 994 346 994 q 568 985 511 994 q 672 958 625 975 q 753 915 719 942 l 686 725 q 582 776 643 760 q 467 792 521 792 q 395 781 426 792 q 347 749 364 769 q 329 696 329 728 q 353 630 329 654 q 424 596 378 606 l 554 569 q 726 481 668 549 q 783 303 783 414 q 738 134 783 206 q 610 24 693 63 q 417 -15 526 -15 m 335 1079 l 335 1282 l 543 1282 l 543 1079 l 335 1079 z "},"Ṣ":{"ha":840,"x_min":74,"x_max":783,"o":"m 417 -15 q 291 -6 356 -15 q 170 19 226 3 q 74 60 114 36 l 140 251 q 226 215 179 229 q 322 194 272 200 q 414 188 372 188 q 507 210 469 188 q 544 285 544 232 q 533 333 544 315 q 501 362 522 351 q 450 379 479 372 l 317 407 q 143 503 199 431 q 88 686 88 575 q 134 849 88 779 q 263 956 181 918 q 453 994 346 994 q 568 985 511 994 q 672 958 625 975 q 753 915 719 942 l 686 725 q 582 776 643 760 q 467 792 521 792 q 395 781 426 792 q 347 749 364 769 q 329 696 329 728 q 353 630 329 654 q 424 596 378 606 l 554 569 q 726 481 668 549 q 783 303 783 414 q 738 134 783 206 q 610 24 693 63 q 417 -15 526 -15 m 319 -307 l 319 -107 l 525 -107 l 525 -307 l 319 -307 z "},"Ṩ":{"ha":840,"x_min":74,"x_max":783,"o":"m 417 -15 q 291 -6 356 -15 q 170 19 226 3 q 74 60 114 36 l 140 251 q 226 215 179 229 q 322 194 272 200 q 414 188 372 188 q 507 210 469 188 q 544 285 544 232 q 533 333 544 315 q 501 362 522 351 q 450 379 479 372 l 317 407 q 143 503 199 431 q 88 686 88 575 q 134 849 88 779 q 263 956 181 918 q 453 994 346 994 q 568 985 511 994 q 672 958 625 975 q 753 915 719 942 l 686 725 q 582 776 643 760 q 467 792 521 792 q 395 781 426 792 q 347 749 364 769 q 329 696 329 728 q 353 630 329 654 q 424 596 378 606 l 554 569 q 726 481 668 549 q 783 303 783 414 q 738 134 783 206 q 610 24 693 63 q 417 -15 526 -15 m 319 -307 l 319 -107 l 525 -107 l 525 -307 l 319 -307 m 335 1079 l 335 1282 l 543 1282 l 543 1079 l 335 1079 z "},"ẞ":{"ha":953,"x_min":100,"x_max":883,"o":"m 607 -15 q 500 -4 551 -15 q 404 32 449 7 l 457 208 q 506 185 482 192 q 556 179 531 179 q 628 208 604 179 q 651 292 651 236 q 625 376 651 351 q 554 401 599 401 l 458 401 l 458 578 l 510 578 q 553 592 533 578 q 584 630 572 606 q 596 688 596 654 q 569 768 596 740 q 482 796 543 796 q 379 752 414 796 q 344 617 344 708 l 344 0 l 100 0 l 100 611 q 138 817 100 731 q 261 950 176 904 q 481 996 346 996 q 672 963 593 996 q 791 869 750 929 q 832 726 832 810 q 819 636 832 676 q 787 565 807 596 q 739 514 767 535 l 739 507 q 843 422 803 483 q 883 269 883 361 q 850 124 883 189 q 756 22 817 60 q 607 -15 694 -15 z "},"T":{"ha":819,"x_min":43,"x_max":776,"o":"m 288 0 l 288 772 l 43 772 l 43 979 l 776 979 l 776 772 l 532 772 l 532 0 l 288 0 z "},"Ŧ":{"ha":819,"x_min":43,"x_max":776,"o":"m 288 0 l 288 772 l 43 772 l 43 979 l 776 979 l 776 772 l 532 772 l 532 0 l 288 0 m 140 346 l 140 514 l 678 514 l 678 346 l 140 346 z "},"Ť":{"ha":819,"x_min":43,"x_max":776,"o":"m 288 0 l 288 772 l 43 772 l 43 979 l 776 979 l 776 772 l 532 772 l 532 0 l 288 0 m 314 1063 l 171 1285 l 342 1285 l 410 1169 l 479 1285 l 649 1285 l 506 1063 l 314 1063 z "},"Ţ":{"ha":819,"x_min":43,"x_max":776,"o":"m 288 0 l 288 772 l 43 772 l 43 979 l 776 979 l 776 772 l 532 772 l 532 0 l 288 0 m 421 -290 q 342 -283 388 -290 q 268 -261 296 -276 l 301 -167 q 355 -187 324 -178 q 424 -196 386 -196 q 462 -187 449 -196 q 475 -160 475 -179 q 458 -131 475 -139 q 424 -124 442 -124 q 394 -126 414 -124 q 367 -129 375 -128 l 338 -103 l 357 28 l 456 28 l 439 -90 l 396 -61 q 431 -51 407 -54 q 486 -49 456 -49 q 540 -58 513 -49 q 585 -92 567 -68 q 604 -160 604 -117 q 582 -235 604 -207 q 518 -277 560 -264 q 421 -290 476 -290 z "},"Ț":{"ha":819,"x_min":43,"x_max":776,"o":"m 288 0 l 288 772 l 43 772 l 43 979 l 776 979 l 776 772 l 532 772 l 532 0 l 288 0 m 426 -442 l 346 -387 q 388 -317 374 -356 q 401 -244 401 -278 l 444 -265 l 311 -265 l 311 -94 l 507 -94 l 507 -225 q 489 -342 507 -287 q 426 -442 471 -397 z "},"Ṭ":{"ha":819,"x_min":43,"x_max":776,"o":"m 288 0 l 288 772 l 43 772 l 43 979 l 776 979 l 776 772 l 532 772 l 532 0 l 288 0 m 307 -307 l 307 -107 l 513 -107 l 513 -307 l 307 -307 z "},"Ṯ":{"ha":819,"x_min":43,"x_max":776,"o":"m 288 0 l 288 772 l 43 772 l 43 979 l 776 979 l 776 772 l 532 772 l 532 0 l 288 0 m 192 -271 l 192 -111 l 628 -111 l 628 -271 l 192 -271 z "},"U":{"ha":921,"x_min":89,"x_max":832,"o":"m 460 -15 q 183 76 276 -15 q 89 351 89 167 l 89 979 l 335 979 l 335 369 q 365 240 335 279 q 461 201 396 201 q 560 240 532 201 q 588 369 588 279 l 588 979 l 832 979 l 832 351 q 738 76 832 168 q 460 -15 643 -15 z "},"Ú":{"ha":921,"x_min":89,"x_max":832,"o":"m 460 -15 q 183 76 276 -15 q 89 351 89 167 l 89 979 l 335 979 l 335 369 q 365 240 335 279 q 461 201 396 201 q 560 240 532 201 q 588 369 588 279 l 588 979 l 832 979 l 832 351 q 738 76 832 168 q 460 -15 643 -15 m 371 1063 l 504 1296 l 758 1296 l 550 1063 l 371 1063 z "},"Ŭ":{"ha":921,"x_min":89,"x_max":832,"o":"m 460 -15 q 183 76 276 -15 q 89 351 89 167 l 89 979 l 335 979 l 335 369 q 365 240 335 279 q 461 201 396 201 q 560 240 532 201 q 588 369 588 279 l 588 979 l 832 979 l 832 351 q 738 76 832 168 q 460 -15 643 -15 m 460 1056 q 292 1117 353 1056 q 229 1296 231 1179 l 363 1306 q 387 1235 365 1260 q 460 1210 408 1210 q 533 1235 511 1210 q 557 1306 556 1260 l 690 1296 q 628 1117 689 1179 q 460 1056 567 1056 z "},"Û":{"ha":921,"x_min":89,"x_max":832,"o":"m 460 -15 q 183 76 276 -15 q 89 351 89 167 l 89 979 l 335 979 l 335 369 q 365 240 335 279 q 461 201 396 201 q 560 240 532 201 q 588 369 588 279 l 588 979 l 832 979 l 832 351 q 738 76 832 168 q 460 -15 643 -15 m 221 1063 l 364 1285 l 556 1285 l 699 1063 l 528 1063 l 460 1178 l 390 1063 l 221 1063 z "},"Ȕ":{"ha":921,"x_min":89,"x_max":832,"o":"m 460 -15 q 183 76 276 -15 q 89 351 89 167 l 89 979 l 335 979 l 335 369 q 365 240 335 279 q 461 201 396 201 q 560 240 532 201 q 588 369 588 279 l 588 979 l 832 979 l 832 351 q 738 76 832 168 q 460 -15 643 -15 m 499 1063 l 339 1285 l 535 1285 l 629 1063 l 499 1063 m 290 1063 l 107 1285 l 303 1285 l 421 1063 l 290 1063 z "},"Ü":{"ha":921,"x_min":89,"x_max":832,"o":"m 460 -15 q 183 76 276 -15 q 89 351 89 167 l 89 979 l 335 979 l 335 369 q 365 240 335 279 q 461 201 396 201 q 560 240 532 201 q 588 369 588 279 l 588 979 l 832 979 l 832 351 q 738 76 832 168 q 460 -15 643 -15 m 501 1078 l 501 1272 l 707 1272 l 707 1078 l 501 1078 m 213 1078 l 213 1272 l 418 1272 l 418 1078 l 213 1078 z "},"Ụ":{"ha":921,"x_min":89,"x_max":832,"o":"m 460 -15 q 183 76 276 -15 q 89 351 89 167 l 89 979 l 335 979 l 335 369 q 365 240 335 279 q 461 201 396 201 q 560 240 532 201 q 588 369 588 279 l 588 979 l 832 979 l 832 351 q 738 76 832 168 q 460 -15 643 -15 m 357 -307 l 357 -107 l 563 -107 l 563 -307 l 357 -307 z "},"Ù":{"ha":921,"x_min":89,"x_max":832,"o":"m 460 -15 q 183 76 276 -15 q 89 351 89 167 l 89 979 l 335 979 l 335 369 q 365 240 335 279 q 461 201 396 201 q 560 240 532 201 q 588 369 588 279 l 588 979 l 832 979 l 832 351 q 738 76 832 168 q 460 -15 643 -15 m 381 1063 l 174 1285 l 406 1285 l 540 1063 l 381 1063 z "},"Ủ":{"ha":921,"x_min":89,"x_max":832,"o":"m 460 -15 q 183 76 276 -15 q 89 351 89 167 l 89 979 l 335 979 l 335 369 q 365 240 335 279 q 461 201 396 201 q 560 240 532 201 q 588 369 588 279 l 588 979 l 832 979 l 832 351 q 738 76 832 168 q 460 -15 643 -15 m 394 1063 l 394 1088 q 402 1121 394 1107 q 419 1146 410 1135 q 437 1167 429 1157 q 444 1190 444 1176 q 436 1208 444 1203 q 411 1213 428 1213 q 380 1209 396 1213 q 347 1197 364 1206 l 317 1288 q 383 1313 344 1304 q 463 1321 421 1321 q 573 1297 535 1321 q 611 1225 611 1272 q 599 1177 611 1196 q 569 1145 586 1158 q 540 1118 553 1132 q 526 1086 526 1104 l 526 1063 l 394 1063 z "},"Ư":{"ha":921,"x_min":89,"x_max":935,"o":"m 460 -15 q 183 76 276 -15 q 89 351 89 167 l 89 979 l 335 979 l 335 369 q 365 240 335 279 q 461 201 396 201 q 560 240 532 201 q 588 369 588 279 l 588 979 l 832 979 l 832 351 q 738 76 832 168 q 460 -15 643 -15 m 797 869 l 653 958 l 653 979 q 701 992 683 979 q 728 1035 719 1006 q 736 1114 736 1064 l 736 1150 l 935 1150 l 935 1086 q 918 983 935 1029 q 870 907 901 938 q 797 869 839 876 z "},"Ứ":{"ha":921,"x_min":89,"x_max":935,"o":"m 460 -15 q 183 76 276 -15 q 89 351 89 167 l 89 979 l 335 979 l 335 369 q 365 240 335 279 q 461 201 396 201 q 560 240 532 201 q 588 369 588 279 l 588 979 l 832 979 l 832 351 q 738 76 832 168 q 460 -15 643 -15 m 797 869 l 653 958 l 653 979 q 701 992 683 979 q 728 1035 719 1006 q 736 1114 736 1064 l 736 1150 l 935 1150 l 935 1086 q 918 983 935 1029 q 870 907 901 938 q 797 869 839 876 m 371 1063 l 504 1296 l 758 1296 l 550 1063 l 371 1063 z "},"Ự":{"ha":921,"x_min":89,"x_max":935,"o":"m 460 -15 q 183 76 276 -15 q 89 351 89 167 l 89 979 l 335 979 l 335 369 q 365 240 335 279 q 461 201 396 201 q 560 240 532 201 q 588 369 588 279 l 588 979 l 832 979 l 832 351 q 738 76 832 168 q 460 -15 643 -15 m 797 869 l 653 958 l 653 979 q 701 992 683 979 q 728 1035 719 1006 q 736 1114 736 1064 l 736 1150 l 935 1150 l 935 1086 q 918 983 935 1029 q 870 907 901 938 q 797 869 839 876 m 357 -307 l 357 -107 l 563 -107 l 563 -307 l 357 -307 z "},"Ừ":{"ha":921,"x_min":89,"x_max":935,"o":"m 460 -15 q 183 76 276 -15 q 89 351 89 167 l 89 979 l 335 979 l 335 369 q 365 240 335 279 q 461 201 396 201 q 560 240 532 201 q 588 369 588 279 l 588 979 l 832 979 l 832 351 q 738 76 832 168 q 460 -15 643 -15 m 797 869 l 653 958 l 653 979 q 701 992 683 979 q 728 1035 719 1006 q 736 1114 736 1064 l 736 1150 l 935 1150 l 935 1086 q 918 983 935 1029 q 870 907 901 938 q 797 869 839 876 m 381 1063 l 174 1285 l 406 1285 l 540 1063 l 381 1063 z "},"Ử":{"ha":921,"x_min":89,"x_max":935,"o":"m 460 -15 q 183 76 276 -15 q 89 351 89 167 l 89 979 l 335 979 l 335 369 q 365 240 335 279 q 461 201 396 201 q 560 240 532 201 q 588 369 588 279 l 588 979 l 832 979 l 832 351 q 738 76 832 168 q 460 -15 643 -15 m 797 869 l 653 958 l 653 979 q 701 992 683 979 q 728 1035 719 1006 q 736 1114 736 1064 l 736 1150 l 935 1150 l 935 1086 q 918 983 935 1029 q 870 907 901 938 q 797 869 839 876 m 394 1063 l 394 1088 q 402 1121 394 1107 q 419 1146 410 1135 q 437 1167 429 1157 q 444 1190 444 1176 q 436 1208 444 1203 q 411 1213 428 1213 q 380 1209 396 1213 q 347 1197 364 1206 l 317 1288 q 383 1313 344 1304 q 463 1321 421 1321 q 573 1297 535 1321 q 611 1225 611 1272 q 599 1177 611 1196 q 569 1145 586 1158 q 540 1118 553 1132 q 526 1086 526 1104 l 526 1063 l 394 1063 z "},"Ữ":{"ha":921,"x_min":89,"x_max":935,"o":"m 460 -15 q 183 76 276 -15 q 89 351 89 167 l 89 979 l 335 979 l 335 369 q 365 240 335 279 q 461 201 396 201 q 560 240 532 201 q 588 369 588 279 l 588 979 l 832 979 l 832 351 q 738 76 832 168 q 460 -15 643 -15 m 797 869 l 653 958 l 653 979 q 701 992 683 979 q 728 1035 719 1006 q 736 1114 736 1064 l 736 1150 l 935 1150 l 935 1086 q 918 983 935 1029 q 870 907 901 938 q 797 869 839 876 m 276 1051 l 157 1060 q 176 1170 157 1122 q 234 1244 196 1218 q 324 1271 272 1271 q 390 1256 363 1271 q 439 1229 418 1242 q 471 1211 453 1221 q 508 1201 489 1201 q 553 1224 539 1201 q 565 1278 567 1246 l 685 1271 q 665 1160 685 1207 q 608 1086 644 1113 q 519 1060 571 1060 q 451 1074 479 1060 q 407 1099 424 1089 q 374 1119 392 1108 q 333 1129 356 1129 q 288 1105 299 1129 q 276 1051 278 1081 z "},"Ű":{"ha":921,"x_min":89,"x_max":832,"o":"m 460 -15 q 183 76 276 -15 q 89 351 89 167 l 89 979 l 335 979 l 335 369 q 365 240 335 279 q 461 201 396 201 q 560 240 532 201 q 588 369 588 279 l 588 979 l 832 979 l 832 351 q 738 76 832 168 q 460 -15 643 -15 m 290 1063 l 385 1285 l 581 1285 l 421 1063 l 290 1063 m 500 1063 l 618 1285 l 813 1285 l 631 1063 l 500 1063 z "},"Ȗ":{"ha":921,"x_min":89,"x_max":832,"o":"m 460 -15 q 183 76 276 -15 q 89 351 89 167 l 89 979 l 335 979 l 335 369 q 365 240 335 279 q 461 201 396 201 q 560 240 532 201 q 588 369 588 279 l 588 979 l 832 979 l 832 351 q 738 76 832 168 q 460 -15 643 -15 m 363 1056 l 229 1067 q 292 1245 231 1185 q 460 1306 353 1306 q 628 1245 567 1306 q 690 1067 689 1185 l 557 1056 q 534 1126 556 1101 q 463 1151 513 1151 q 389 1127 413 1151 q 363 1056 365 1103 z "},"Ū":{"ha":921,"x_min":89,"x_max":832,"o":"m 460 -15 q 183 76 276 -15 q 89 351 89 167 l 89 979 l 335 979 l 335 369 q 365 240 335 279 q 461 201 396 201 q 560 240 532 201 q 588 369 588 279 l 588 979 l 832 979 l 832 351 q 738 76 832 168 q 460 -15 643 -15 m 244 1108 l 244 1268 l 675 1268 l 675 1108 l 244 1108 z "},"Ṻ":{"ha":921,"x_min":89,"x_max":832,"o":"m 460 -15 q 183 76 276 -15 q 89 351 89 167 l 89 979 l 335 979 l 335 369 q 365 240 335 279 q 461 201 396 201 q 560 240 532 201 q 588 369 588 279 l 588 979 l 832 979 l 832 351 q 738 76 832 168 q 460 -15 643 -15 m 242 1094 l 242 1243 l 678 1243 l 678 1094 l 242 1094 m 224 1318 l 224 1478 l 429 1478 l 429 1318 l 224 1318 m 490 1318 l 490 1478 l 696 1478 l 696 1318 l 490 1318 z "},"Ų":{"ha":921,"x_min":89,"x_max":832,"o":"m 460 -15 q 183 76 276 -15 q 89 351 89 167 l 89 979 l 335 979 l 335 369 q 365 240 335 279 q 461 201 396 201 q 560 240 532 201 q 588 369 588 279 l 588 979 l 832 979 l 832 351 q 738 76 832 168 q 460 -15 643 -15 m 488 -290 q 369 -256 411 -290 q 326 -157 326 -221 q 360 -39 326 -99 q 456 64 394 21 l 526 0 q 499 -31 511 -14 q 480 -68 488 -49 q 472 -107 472 -87 q 485 -149 472 -135 q 521 -162 497 -162 q 548 -160 533 -162 q 579 -150 563 -157 l 603 -268 q 544 -285 571 -281 q 488 -290 518 -290 z "},"Ů":{"ha":921,"x_min":89,"x_max":832,"o":"m 460 -15 q 183 76 276 -15 q 89 351 89 167 l 89 979 l 335 979 l 335 369 q 365 240 335 279 q 461 201 396 201 q 560 240 532 201 q 588 369 588 279 l 588 979 l 832 979 l 832 351 q 738 76 832 168 q 460 -15 643 -15 m 460 1043 q 372 1065 411 1043 q 310 1126 333 1088 q 288 1213 288 1165 q 310 1299 288 1261 q 372 1360 333 1338 q 460 1382 411 1382 q 547 1360 508 1382 q 609 1299 586 1338 q 632 1213 632 1261 q 609 1126 632 1165 q 547 1065 586 1088 q 460 1043 508 1043 m 458 1126 q 516 1151 493 1126 q 539 1213 539 1175 q 516 1274 539 1250 q 460 1299 493 1299 q 403 1274 426 1299 q 381 1213 381 1250 q 403 1151 381 1175 q 458 1126 426 1126 z "},"Ũ":{"ha":921,"x_min":89,"x_max":832,"o":"m 460 -15 q 183 76 276 -15 q 89 351 89 167 l 89 979 l 335 979 l 335 369 q 365 240 335 279 q 461 201 396 201 q 560 240 532 201 q 588 369 588 279 l 588 979 l 832 979 l 832 351 q 738 76 832 168 q 460 -15 643 -15 m 304 1051 l 185 1060 q 223 1212 183 1153 q 340 1271 263 1271 q 419 1255 385 1271 q 476 1232 454 1239 q 515 1215 493 1225 q 563 1206 538 1206 q 604 1226 592 1206 q 615 1278 617 1246 l 735 1271 q 697 1119 736 1178 q 578 1060 657 1060 q 500 1074 536 1060 q 446 1097 464 1089 q 404 1115 429 1104 q 357 1125 379 1125 q 315 1106 328 1125 q 304 1051 303 1086 z "},"Ṹ":{"ha":921,"x_min":89,"x_max":832,"o":"m 460 -15 q 183 76 276 -15 q 89 351 89 167 l 89 979 l 335 979 l 335 369 q 365 240 335 279 q 461 201 396 201 q 560 240 532 201 q 588 369 588 279 l 588 979 l 832 979 l 832 351 q 738 76 832 168 q 460 -15 643 -15 m 378 1285 l 475 1482 l 706 1482 l 536 1285 l 378 1285 m 546 1063 q 479 1076 506 1063 q 435 1101 453 1090 q 410 1117 426 1107 q 375 1126 393 1126 q 342 1107 351 1126 q 329 1063 332 1088 l 221 1069 q 238 1163 225 1122 q 281 1227 250 1204 q 365 1250 311 1250 q 440 1236 410 1250 q 485 1213 471 1222 q 513 1196 497 1204 q 546 1188 529 1188 q 579 1208 569 1188 q 590 1251 589 1228 l 700 1246 q 661 1114 694 1165 q 546 1063 628 1063 z "},"V":{"ha":876,"x_min":-17,"x_max":894,"o":"m 338 0 l -17 979 l 246 979 l 440 313 l 438 313 l 632 979 l 894 979 l 539 0 l 338 0 z "},"W":{"ha":1332,"x_min":44,"x_max":1286,"o":"m 290 0 l 44 979 l 306 979 l 421 311 l 435 311 l 582 979 l 763 979 l 915 308 l 924 308 l 1040 979 l 1286 979 l 1040 0 l 815 0 l 671 636 l 660 636 l 507 0 l 290 0 z "},"Ẃ":{"ha":1332,"x_min":44,"x_max":1286,"o":"m 290 0 l 44 979 l 306 979 l 421 311 l 435 311 l 582 979 l 763 979 l 915 308 l 924 308 l 1040 979 l 1286 979 l 1040 0 l 815 0 l 671 636 l 660 636 l 507 0 l 290 0 m 576 1063 l 710 1296 l 964 1296 l 756 1063 l 576 1063 z "},"Ŵ":{"ha":1332,"x_min":44,"x_max":1286,"o":"m 290 0 l 44 979 l 306 979 l 421 311 l 435 311 l 582 979 l 763 979 l 915 308 l 924 308 l 1040 979 l 1286 979 l 1040 0 l 815 0 l 671 636 l 660 636 l 507 0 l 290 0 m 426 1063 l 569 1285 l 761 1285 l 904 1063 l 733 1063 l 665 1178 l 596 1063 l 426 1063 z "},"Ẅ":{"ha":1332,"x_min":44,"x_max":1286,"o":"m 290 0 l 44 979 l 306 979 l 421 311 l 435 311 l 582 979 l 763 979 l 915 308 l 924 308 l 1040 979 l 1286 979 l 1040 0 l 815 0 l 671 636 l 660 636 l 507 0 l 290 0 m 707 1078 l 707 1272 l 913 1272 l 913 1078 l 707 1078 m 418 1078 l 418 1272 l 624 1272 l 624 1078 l 418 1078 z "},"Ẁ":{"ha":1332,"x_min":44,"x_max":1286,"o":"m 290 0 l 44 979 l 306 979 l 421 311 l 435 311 l 582 979 l 763 979 l 915 308 l 924 308 l 1040 979 l 1286 979 l 1040 0 l 815 0 l 671 636 l 660 636 l 507 0 l 290 0 m 586 1063 l 379 1285 l 611 1285 l 746 1063 l 586 1063 z "},"X":{"ha":865,"x_min":15,"x_max":850,"o":"m 15 0 l 275 549 l 275 443 l 24 979 l 303 979 l 432 624 l 432 624 l 564 979 l 842 979 l 590 444 l 590 547 l 850 0 l 571 0 l 435 368 l 431 368 l 292 0 l 15 0 z "},"Y":{"ha":804,"x_min":-21,"x_max":826,"o":"m 279 0 l 279 510 l 322 342 l -21 979 l 247 979 l 401 618 l 407 618 l 563 979 l 826 979 l 482 342 l 525 510 l 524 0 l 279 0 z "},"Ý":{"ha":804,"x_min":-21,"x_max":826,"o":"m 279 0 l 279 510 l 322 342 l -21 979 l 247 979 l 401 618 l 407 618 l 563 979 l 826 979 l 482 342 l 525 510 l 524 0 l 279 0 m 314 1063 l 447 1296 l 701 1296 l 493 1063 l 314 1063 z "},"Ŷ":{"ha":804,"x_min":-21,"x_max":826,"o":"m 279 0 l 279 510 l 322 342 l -21 979 l 247 979 l 401 618 l 407 618 l 563 979 l 826 979 l 482 342 l 525 510 l 524 0 l 279 0 m 164 1063 l 307 1285 l 499 1285 l 642 1063 l 471 1063 l 403 1178 l 333 1063 l 164 1063 z "},"Ÿ":{"ha":804,"x_min":-21,"x_max":826,"o":"m 279 0 l 279 510 l 322 342 l -21 979 l 247 979 l 401 618 l 407 618 l 563 979 l 826 979 l 482 342 l 525 510 l 524 0 l 279 0 m 444 1078 l 444 1272 l 650 1272 l 650 1078 l 444 1078 m 156 1078 l 156 1272 l 361 1272 l 361 1078 l 156 1078 z "},"Ẏ":{"ha":804,"x_min":-21,"x_max":826,"o":"m 279 0 l 279 510 l 322 342 l -21 979 l 247 979 l 401 618 l 407 618 l 563 979 l 826 979 l 482 342 l 525 510 l 524 0 l 279 0 m 299 1079 l 299 1282 l 507 1282 l 507 1079 l 299 1079 z "},"Ỵ":{"ha":804,"x_min":-21,"x_max":826,"o":"m 279 0 l 279 510 l 322 342 l -21 979 l 247 979 l 401 618 l 407 618 l 563 979 l 826 979 l 482 342 l 525 510 l 524 0 l 279 0 m 301 -307 l 301 -107 l 507 -107 l 507 -307 l 301 -307 z "},"Ỳ":{"ha":804,"x_min":-21,"x_max":826,"o":"m 279 0 l 279 510 l 322 342 l -21 979 l 247 979 l 401 618 l 407 618 l 563 979 l 826 979 l 482 342 l 525 510 l 524 0 l 279 0 m 324 1063 l 117 1285 l 349 1285 l 483 1063 l 324 1063 z "},"Ƴ":{"ha":792,"x_min":-21,"x_max":821,"o":"m 279 0 l 279 510 l 322 342 l -21 979 l 247 979 l 401 618 l 407 618 l 500 825 q 595 958 542 919 q 715 996 649 996 q 777 990 749 996 q 821 975 806 983 l 821 790 q 801 797 811 794 q 781 800 792 800 q 719 778 736 800 q 681 718 701 756 l 482 342 l 525 510 l 524 0 l 279 0 z "},"Ỷ":{"ha":804,"x_min":-21,"x_max":826,"o":"m 279 0 l 279 510 l 322 342 l -21 979 l 247 979 l 401 618 l 407 618 l 563 979 l 826 979 l 482 342 l 525 510 l 524 0 l 279 0 m 338 1063 l 338 1088 q 345 1121 338 1107 q 363 1146 353 1135 q 380 1167 372 1157 q 388 1190 388 1176 q 379 1208 388 1203 q 354 1213 371 1213 q 323 1209 339 1213 q 290 1197 307 1206 l 260 1288 q 326 1313 288 1304 q 406 1321 364 1321 q 516 1297 478 1321 q 554 1225 554 1272 q 542 1177 554 1196 q 513 1145 529 1158 q 483 1118 496 1132 q 469 1086 469 1104 l 469 1063 l 338 1063 z "},"Ȳ":{"ha":804,"x_min":-21,"x_max":826,"o":"m 279 0 l 279 510 l 322 342 l -21 979 l 247 979 l 401 618 l 407 618 l 563 979 l 826 979 l 482 342 l 525 510 l 524 0 l 279 0 m 188 1108 l 188 1268 l 618 1268 l 618 1108 l 188 1108 z "},"Ỹ":{"ha":804,"x_min":-21,"x_max":826,"o":"m 279 0 l 279 510 l 322 342 l -21 979 l 247 979 l 401 618 l 407 618 l 563 979 l 826 979 l 482 342 l 525 510 l 524 0 l 279 0 m 247 1051 l 128 1060 q 166 1212 126 1153 q 283 1271 206 1271 q 363 1255 328 1271 q 419 1232 397 1239 q 458 1215 436 1225 q 506 1206 481 1206 q 547 1226 535 1206 q 558 1278 560 1246 l 678 1271 q 640 1119 679 1178 q 521 1060 600 1060 q 443 1074 479 1060 q 389 1097 407 1089 q 347 1115 372 1104 q 300 1125 322 1125 q 258 1106 271 1125 q 247 1051 246 1086 z "},"Z":{"ha":790,"x_min":76,"x_max":736,"o":"m 76 0 l 76 171 l 486 854 l 508 776 l 76 776 l 76 979 l 721 979 l 721 811 l 308 125 l 288 203 l 736 203 l 736 0 l 76 0 z "},"Ź":{"ha":790,"x_min":76,"x_max":736,"o":"m 76 0 l 76 171 l 486 854 l 508 776 l 76 776 l 76 979 l 721 979 l 721 811 l 308 125 l 288 203 l 736 203 l 736 0 l 76 0 m 306 1063 l 439 1296 l 693 1296 l 485 1063 l 306 1063 z "},"Ž":{"ha":790,"x_min":76,"x_max":736,"o":"m 76 0 l 76 171 l 486 854 l 508 776 l 76 776 l 76 979 l 721 979 l 721 811 l 308 125 l 288 203 l 736 203 l 736 0 l 76 0 m 299 1063 l 156 1285 l 326 1285 l 394 1169 l 464 1285 l 633 1285 l 490 1063 l 299 1063 z "},"Ż":{"ha":790,"x_min":76,"x_max":736,"o":"m 76 0 l 76 171 l 486 854 l 508 776 l 76 776 l 76 979 l 721 979 l 721 811 l 308 125 l 288 203 l 736 203 l 736 0 l 76 0 m 290 1079 l 290 1282 l 499 1282 l 499 1079 l 290 1079 z "},"Ẓ":{"ha":790,"x_min":76,"x_max":736,"o":"m 76 0 l 76 171 l 486 854 l 508 776 l 76 776 l 76 979 l 721 979 l 721 811 l 308 125 l 288 203 l 736 203 l 736 0 l 76 0 m 297 -307 l 297 -107 l 503 -107 l 503 -307 l 297 -307 z "},"a":{"ha":782,"x_min":65,"x_max":704,"o":"m 290 -15 q 183 15 235 -15 q 98 99 131 46 q 65 218 65 151 q 105 333 65 285 q 221 405 144 381 q 407 429 297 429 l 496 429 l 496 308 l 451 308 q 385 304 413 308 q 338 291 357 300 q 310 265 319 282 q 300 222 300 249 q 322 171 300 192 q 378 150 344 150 q 422 165 400 150 q 456 209 443 181 q 469 278 469 238 l 469 457 q 438 527 469 507 q 349 547 407 547 q 254 535 306 547 q 146 490 203 522 l 89 644 q 194 687 143 671 q 298 710 244 703 q 414 718 351 718 q 567 687 501 718 q 668 590 632 656 q 704 422 704 525 l 704 0 l 511 0 l 511 138 l 500 138 q 448 54 475 89 q 384 2 421 19 q 290 -15 347 -15 z "},"á":{"ha":782,"x_min":65,"x_max":704,"o":"m 290 -15 q 183 15 235 -15 q 98 99 131 46 q 65 218 65 151 q 105 333 65 285 q 221 405 144 381 q 407 429 297 429 l 496 429 l 496 308 l 451 308 q 385 304 413 308 q 338 291 357 300 q 310 265 319 282 q 300 222 300 249 q 322 171 300 192 q 378 150 344 150 q 422 165 400 150 q 456 209 443 181 q 469 278 469 238 l 469 457 q 438 527 469 507 q 349 547 407 547 q 254 535 306 547 q 146 490 203 522 l 89 644 q 194 687 143 671 q 298 710 244 703 q 414 718 351 718 q 567 687 501 718 q 668 590 632 656 q 704 422 704 525 l 704 0 l 511 0 l 511 138 l 500 138 q 448 54 475 89 q 384 2 421 19 q 290 -15 347 -15 m 299 781 l 411 1053 l 650 1053 l 468 781 l 299 781 z "},"ă":{"ha":782,"x_min":65,"x_max":704,"o":"m 290 -15 q 183 15 235 -15 q 98 99 131 46 q 65 218 65 151 q 105 333 65 285 q 221 405 144 381 q 407 429 297 429 l 496 429 l 496 308 l 451 308 q 385 304 413 308 q 338 291 357 300 q 310 265 319 282 q 300 222 300 249 q 322 171 300 192 q 378 150 344 150 q 422 165 400 150 q 456 209 443 181 q 469 278 469 238 l 469 457 q 438 527 469 507 q 349 547 407 547 q 254 535 306 547 q 146 490 203 522 l 89 644 q 194 687 143 671 q 298 710 244 703 q 414 718 351 718 q 567 687 501 718 q 668 590 632 656 q 704 422 704 525 l 704 0 l 511 0 l 511 138 l 500 138 q 448 54 475 89 q 384 2 421 19 q 290 -15 347 -15 m 394 778 q 262 811 310 778 q 193 907 214 844 q 169 1054 172 969 l 307 1065 q 327 962 311 997 q 394 926 343 926 q 462 962 446 926 q 482 1065 478 997 l 619 1054 q 597 907 618 969 q 527 811 575 844 q 394 778 479 778 z "},"ắ":{"ha":782,"x_min":65,"x_max":704,"o":"m 290 -15 q 183 15 235 -15 q 98 99 131 46 q 65 218 65 151 q 105 333 65 285 q 221 405 144 381 q 407 429 297 429 l 496 429 l 496 308 l 451 308 q 385 304 413 308 q 338 291 357 300 q 310 265 319 282 q 300 222 300 249 q 322 171 300 192 q 378 150 344 150 q 422 165 400 150 q 456 209 443 181 q 469 278 469 238 l 469 457 q 438 527 469 507 q 349 547 407 547 q 254 535 306 547 q 146 490 203 522 l 89 644 q 194 687 143 671 q 298 710 244 703 q 414 718 351 718 q 567 687 501 718 q 668 590 632 656 q 704 422 704 525 l 704 0 l 511 0 l 511 138 l 500 138 q 448 54 475 89 q 384 2 421 19 q 290 -15 347 -15 m 394 778 q 216 834 275 778 q 161 986 157 890 l 283 996 q 314 929 282 950 q 394 908 346 908 q 476 929 444 908 q 506 996 507 950 l 628 986 q 572 834 631 890 q 394 778 514 778 m 322 996 l 396 1194 l 604 1194 l 457 996 l 322 996 z "},"ặ":{"ha":782,"x_min":65,"x_max":704,"o":"m 290 -15 q 183 15 235 -15 q 98 99 131 46 q 65 218 65 151 q 105 333 65 285 q 221 405 144 381 q 407 429 297 429 l 496 429 l 496 308 l 451 308 q 385 304 413 308 q 338 291 357 300 q 310 265 319 282 q 300 222 300 249 q 322 171 300 192 q 378 150 344 150 q 422 165 400 150 q 456 209 443 181 q 469 278 469 238 l 469 457 q 438 527 469 507 q 349 547 407 547 q 254 535 306 547 q 146 490 203 522 l 89 644 q 194 687 143 671 q 298 710 244 703 q 414 718 351 718 q 567 687 501 718 q 668 590 632 656 q 704 422 704 525 l 704 0 l 511 0 l 511 138 l 500 138 q 448 54 475 89 q 384 2 421 19 q 290 -15 347 -15 m 261 -307 l 261 -107 l 467 -107 l 467 -307 l 261 -307 m 394 778 q 262 811 310 778 q 193 907 214 844 q 169 1054 172 969 l 307 1065 q 327 962 311 997 q 394 926 343 926 q 462 962 446 926 q 482 1065 478 997 l 619 1054 q 597 907 618 969 q 527 811 575 844 q 394 778 479 778 z "},"ằ":{"ha":782,"x_min":65,"x_max":704,"o":"m 290 -15 q 183 15 235 -15 q 98 99 131 46 q 65 218 65 151 q 105 333 65 285 q 221 405 144 381 q 407 429 297 429 l 496 429 l 496 308 l 451 308 q 385 304 413 308 q 338 291 357 300 q 310 265 319 282 q 300 222 300 249 q 322 171 300 192 q 378 150 344 150 q 422 165 400 150 q 456 209 443 181 q 469 278 469 238 l 469 457 q 438 527 469 507 q 349 547 407 547 q 254 535 306 547 q 146 490 203 522 l 89 644 q 194 687 143 671 q 298 710 244 703 q 414 718 351 718 q 567 687 501 718 q 668 590 632 656 q 704 422 704 525 l 704 0 l 511 0 l 511 138 l 500 138 q 448 54 475 89 q 384 2 421 19 q 290 -15 347 -15 m 394 778 q 216 834 275 778 q 161 986 157 890 l 283 996 q 314 929 282 950 q 394 908 346 908 q 476 929 444 908 q 506 996 507 950 l 628 986 q 572 834 631 890 q 394 778 514 778 m 336 996 l 192 1194 l 400 1194 l 472 996 l 336 996 z "},"ẳ":{"ha":782,"x_min":65,"x_max":704,"o":"m 290 -15 q 183 15 235 -15 q 98 99 131 46 q 65 218 65 151 q 105 333 65 285 q 221 405 144 381 q 407 429 297 429 l 496 429 l 496 308 l 451 308 q 385 304 413 308 q 338 291 357 300 q 310 265 319 282 q 300 222 300 249 q 322 171 300 192 q 378 150 344 150 q 422 165 400 150 q 456 209 443 181 q 469 278 469 238 l 469 457 q 438 527 469 507 q 349 547 407 547 q 254 535 306 547 q 146 490 203 522 l 89 644 q 194 687 143 671 q 298 710 244 703 q 414 718 351 718 q 567 687 501 718 q 668 590 632 656 q 704 422 704 525 l 704 0 l 511 0 l 511 138 l 500 138 q 448 54 475 89 q 384 2 421 19 q 290 -15 347 -15 m 394 778 q 216 834 275 778 q 161 986 157 890 l 283 996 q 314 929 282 950 q 394 908 346 908 q 476 929 444 908 q 506 996 507 950 l 628 986 q 572 834 631 890 q 394 778 514 778 m 324 997 q 329 1034 324 1018 q 344 1065 335 1050 q 358 1093 353 1081 q 364 1118 364 1106 q 356 1138 364 1132 q 328 1143 347 1143 q 299 1138 315 1143 q 269 1125 283 1133 l 242 1217 q 310 1242 271 1233 q 396 1251 350 1251 q 500 1228 464 1251 q 536 1164 536 1206 q 524 1118 536 1139 q 498 1079 513 1097 q 470 1041 483 1061 q 457 997 457 1021 l 324 997 z "},"ẵ":{"ha":782,"x_min":65,"x_max":704,"o":"m 290 -15 q 183 15 235 -15 q 98 99 131 46 q 65 218 65 151 q 105 333 65 285 q 221 405 144 381 q 407 429 297 429 l 496 429 l 496 308 l 451 308 q 385 304 413 308 q 338 291 357 300 q 310 265 319 282 q 300 222 300 249 q 322 171 300 192 q 378 150 344 150 q 422 165 400 150 q 456 209 443 181 q 469 278 469 238 l 469 457 q 438 527 469 507 q 349 547 407 547 q 254 535 306 547 q 146 490 203 522 l 89 644 q 194 687 143 671 q 298 710 244 703 q 414 718 351 718 q 567 687 501 718 q 668 590 632 656 q 704 422 704 525 l 704 0 l 511 0 l 511 138 l 500 138 q 448 54 475 89 q 384 2 421 19 q 290 -15 347 -15 m 394 778 q 219 837 278 778 q 161 999 160 896 l 281 1003 q 319 933 288 956 q 394 910 351 910 q 470 933 438 910 q 508 1003 503 956 l 628 999 q 570 837 629 896 q 394 778 511 778 m 264 1058 l 156 1065 q 172 1154 160 1115 q 215 1216 185 1193 q 300 1239 244 1239 q 369 1225 340 1239 q 418 1199 399 1211 q 444 1183 426 1193 q 481 1174 463 1174 q 512 1193 501 1174 q 525 1240 522 1213 l 635 1233 q 597 1108 629 1157 q 481 1058 564 1058 q 415 1071 442 1058 q 372 1094 389 1083 q 340 1114 356 1106 q 310 1122 325 1122 q 277 1104 288 1122 q 264 1058 267 1086 z "},"ǎ":{"ha":782,"x_min":65,"x_max":704,"o":"m 290 -15 q 183 15 235 -15 q 98 99 131 46 q 65 218 65 151 q 105 333 65 285 q 221 405 144 381 q 407 429 297 429 l 496 429 l 496 308 l 451 308 q 385 304 413 308 q 338 291 357 300 q 310 265 319 282 q 300 222 300 249 q 322 171 300 192 q 378 150 344 150 q 422 165 400 150 q 456 209 443 181 q 469 278 469 238 l 469 457 q 438 527 469 507 q 349 547 407 547 q 254 535 306 547 q 146 490 203 522 l 89 644 q 194 687 143 671 q 298 710 244 703 q 414 718 351 718 q 567 687 501 718 q 668 590 632 656 q 704 422 704 525 l 704 0 l 511 0 l 511 138 l 500 138 q 448 54 475 89 q 384 2 421 19 q 290 -15 347 -15 m 294 781 l 161 1053 l 326 1053 l 394 901 l 463 1053 l 628 1053 l 494 781 l 294 781 z "},"â":{"ha":782,"x_min":65,"x_max":704,"o":"m 290 -15 q 183 15 235 -15 q 98 99 131 46 q 65 218 65 151 q 105 333 65 285 q 221 405 144 381 q 407 429 297 429 l 496 429 l 496 308 l 451 308 q 385 304 413 308 q 338 291 357 300 q 310 265 319 282 q 300 222 300 249 q 322 171 300 192 q 378 150 344 150 q 422 165 400 150 q 456 209 443 181 q 469 278 469 238 l 469 457 q 438 527 469 507 q 349 547 407 547 q 254 535 306 547 q 146 490 203 522 l 89 644 q 194 687 143 671 q 298 710 244 703 q 414 718 351 718 q 567 687 501 718 q 668 590 632 656 q 704 422 704 525 l 704 0 l 511 0 l 511 138 l 500 138 q 448 54 475 89 q 384 2 421 19 q 290 -15 347 -15 m 161 783 l 294 1053 l 494 1053 l 628 783 l 463 783 l 394 933 l 326 783 l 161 783 z "},"ấ":{"ha":782,"x_min":65,"x_max":782,"o":"m 290 -15 q 183 15 235 -15 q 98 99 131 46 q 65 218 65 151 q 105 333 65 285 q 221 405 144 381 q 407 429 297 429 l 496 429 l 496 308 l 451 308 q 385 304 413 308 q 338 291 357 300 q 310 265 319 282 q 300 222 300 249 q 322 171 300 192 q 378 150 344 150 q 422 165 400 150 q 456 209 443 181 q 469 278 469 238 l 469 457 q 438 527 469 507 q 349 547 407 547 q 254 535 306 547 q 146 490 203 522 l 89 644 q 194 687 143 671 q 298 710 244 703 q 414 718 351 718 q 567 687 501 718 q 668 590 632 656 q 704 422 704 525 l 704 0 l 511 0 l 511 138 l 500 138 q 448 54 475 89 q 384 2 421 19 q 290 -15 347 -15 m 169 792 l 303 1038 l 494 1038 l 628 792 l 467 792 l 399 928 l 331 792 l 169 792 m 556 988 l 619 1200 l 782 1200 l 681 988 l 556 988 z "},"ậ":{"ha":782,"x_min":65,"x_max":704,"o":"m 290 -15 q 183 15 235 -15 q 98 99 131 46 q 65 218 65 151 q 105 333 65 285 q 221 405 144 381 q 407 429 297 429 l 496 429 l 496 308 l 451 308 q 385 304 413 308 q 338 291 357 300 q 310 265 319 282 q 300 222 300 249 q 322 171 300 192 q 378 150 344 150 q 422 165 400 150 q 456 209 443 181 q 469 278 469 238 l 469 457 q 438 527 469 507 q 349 547 407 547 q 254 535 306 547 q 146 490 203 522 l 89 644 q 194 687 143 671 q 298 710 244 703 q 414 718 351 718 q 567 687 501 718 q 668 590 632 656 q 704 422 704 525 l 704 0 l 511 0 l 511 138 l 500 138 q 448 54 475 89 q 384 2 421 19 q 290 -15 347 -15 m 261 -307 l 261 -107 l 467 -107 l 467 -307 l 261 -307 m 161 783 l 294 1053 l 494 1053 l 628 783 l 463 783 l 394 933 l 326 783 l 161 783 z "},"ầ":{"ha":782,"x_min":65,"x_max":714,"o":"m 290 -15 q 183 15 235 -15 q 98 99 131 46 q 65 218 65 151 q 105 333 65 285 q 221 405 144 381 q 407 429 297 429 l 496 429 l 496 308 l 451 308 q 385 304 413 308 q 338 291 357 300 q 310 265 319 282 q 300 222 300 249 q 322 171 300 192 q 378 150 344 150 q 422 165 400 150 q 456 209 443 181 q 469 278 469 238 l 469 457 q 438 527 469 507 q 349 547 407 547 q 254 535 306 547 q 146 490 203 522 l 89 644 q 194 687 143 671 q 298 710 244 703 q 414 718 351 718 q 567 687 501 718 q 668 590 632 656 q 704 422 704 525 l 704 0 l 511 0 l 511 138 l 500 138 q 448 54 475 89 q 384 2 421 19 q 290 -15 347 -15 m 169 792 l 303 1038 l 494 1038 l 628 792 l 467 792 l 399 928 l 331 792 l 169 792 m 588 988 l 486 1200 l 650 1200 l 713 988 l 588 988 z "},"ẩ":{"ha":782,"x_min":65,"x_max":749,"o":"m 290 -15 q 183 15 235 -15 q 98 99 131 46 q 65 218 65 151 q 105 333 65 285 q 221 405 144 381 q 407 429 297 429 l 496 429 l 496 308 l 451 308 q 385 304 413 308 q 338 291 357 300 q 310 265 319 282 q 300 222 300 249 q 322 171 300 192 q 378 150 344 150 q 422 165 400 150 q 456 209 443 181 q 469 278 469 238 l 469 457 q 438 527 469 507 q 349 547 407 547 q 254 535 306 547 q 146 490 203 522 l 89 644 q 194 687 143 671 q 298 710 244 703 q 414 718 351 718 q 567 687 501 718 q 668 590 632 656 q 704 422 704 525 l 704 0 l 511 0 l 511 138 l 500 138 q 448 54 475 89 q 384 2 421 19 q 290 -15 347 -15 m 169 801 l 303 1047 l 494 1047 l 628 801 l 467 801 l 399 938 l 331 801 l 169 801 m 551 999 q 558 1031 551 1017 q 572 1058 564 1046 q 585 1081 579 1071 q 590 1104 590 1092 q 583 1122 590 1117 q 556 1126 575 1126 q 529 1122 543 1126 q 504 1110 515 1118 l 478 1194 q 542 1219 506 1211 q 619 1226 578 1226 q 715 1205 682 1226 q 749 1144 749 1183 q 738 1103 749 1121 q 713 1069 726 1085 q 687 1037 699 1054 q 674 999 675 1019 l 551 999 z "},"ẫ":{"ha":782,"x_min":65,"x_max":704,"o":"m 290 -15 q 183 15 235 -15 q 98 99 131 46 q 65 218 65 151 q 105 333 65 285 q 221 405 144 381 q 407 429 297 429 l 496 429 l 496 308 l 451 308 q 385 304 413 308 q 338 291 357 300 q 310 265 319 282 q 300 222 300 249 q 322 171 300 192 q 378 150 344 150 q 422 165 400 150 q 456 209 443 181 q 469 278 469 238 l 469 457 q 438 527 469 507 q 349 547 407 547 q 254 535 306 547 q 146 490 203 522 l 89 644 q 194 687 143 671 q 298 710 244 703 q 414 718 351 718 q 567 687 501 718 q 668 590 632 656 q 704 422 704 525 l 704 0 l 511 0 l 511 138 l 500 138 q 448 54 475 89 q 384 2 421 19 q 290 -15 347 -15 m 167 792 l 300 1017 l 492 1017 l 625 792 l 460 792 l 396 915 l 331 792 l 167 792 m 264 1060 l 156 1065 q 172 1156 160 1117 q 214 1217 183 1194 q 300 1240 244 1240 q 369 1226 340 1240 q 418 1200 399 1213 q 444 1185 426 1194 q 481 1175 463 1175 q 512 1194 501 1175 q 525 1242 522 1213 l 635 1235 q 597 1109 629 1158 q 481 1060 564 1060 q 415 1073 442 1060 q 372 1096 389 1086 q 340 1115 356 1107 q 310 1124 325 1124 q 278 1106 289 1124 q 264 1060 267 1088 z "},"ȁ":{"ha":782,"x_min":65,"x_max":704,"o":"m 290 -15 q 183 15 235 -15 q 98 99 131 46 q 65 218 65 151 q 105 333 65 285 q 221 405 144 381 q 407 429 297 429 l 496 429 l 496 308 l 451 308 q 385 304 413 308 q 338 291 357 300 q 310 265 319 282 q 300 222 300 249 q 322 171 300 192 q 378 150 344 150 q 422 165 400 150 q 456 209 443 181 q 469 278 469 238 l 469 457 q 438 527 469 507 q 349 547 407 547 q 254 535 306 547 q 146 490 203 522 l 89 644 q 194 687 143 671 q 298 710 244 703 q 414 718 351 718 q 567 687 501 718 q 668 590 632 656 q 704 422 704 525 l 704 0 l 511 0 l 511 138 l 500 138 q 448 54 475 89 q 384 2 421 19 q 290 -15 347 -15 m 446 781 l 336 1053 l 529 1053 l 575 781 l 446 781 m 224 781 l 113 1053 l 307 1053 l 353 781 l 224 781 z "},"ä":{"ha":782,"x_min":65,"x_max":704,"o":"m 290 -15 q 183 15 235 -15 q 98 99 131 46 q 65 218 65 151 q 105 333 65 285 q 221 405 144 381 q 407 429 297 429 l 496 429 l 496 308 l 451 308 q 385 304 413 308 q 338 291 357 300 q 310 265 319 282 q 300 222 300 249 q 322 171 300 192 q 378 150 344 150 q 422 165 400 150 q 456 209 443 181 q 469 278 469 238 l 469 457 q 438 527 469 507 q 349 547 407 547 q 254 535 306 547 q 146 490 203 522 l 89 644 q 194 687 143 671 q 298 710 244 703 q 414 718 351 718 q 567 687 501 718 q 668 590 632 656 q 704 422 704 525 l 704 0 l 511 0 l 511 138 l 500 138 q 448 54 475 89 q 384 2 421 19 q 290 -15 347 -15 m 436 819 l 436 1028 l 642 1028 l 642 819 l 436 819 m 147 819 l 147 1028 l 353 1028 l 353 819 l 147 819 z "},"ȧ":{"ha":782,"x_min":65,"x_max":704,"o":"m 290 -15 q 183 15 235 -15 q 98 99 131 46 q 65 218 65 151 q 105 333 65 285 q 221 405 144 381 q 407 429 297 429 l 496 429 l 496 308 l 451 308 q 385 304 413 308 q 338 291 357 300 q 310 265 319 282 q 300 222 300 249 q 322 171 300 192 q 378 150 344 150 q 422 165 400 150 q 456 209 443 181 q 469 278 469 238 l 469 457 q 438 527 469 507 q 349 547 407 547 q 254 535 306 547 q 146 490 203 522 l 89 644 q 194 687 143 671 q 298 710 244 703 q 414 718 351 718 q 567 687 501 718 q 668 590 632 656 q 704 422 704 525 l 704 0 l 511 0 l 511 138 l 500 138 q 448 54 475 89 q 384 2 421 19 q 290 -15 347 -15 m 292 832 l 292 1032 l 497 1032 l 497 832 l 292 832 z "},"ạ":{"ha":782,"x_min":65,"x_max":704,"o":"m 290 -15 q 183 15 235 -15 q 98 99 131 46 q 65 218 65 151 q 105 333 65 285 q 221 405 144 381 q 407 429 297 429 l 496 429 l 496 308 l 451 308 q 385 304 413 308 q 338 291 357 300 q 310 265 319 282 q 300 222 300 249 q 322 171 300 192 q 378 150 344 150 q 422 165 400 150 q 456 209 443 181 q 469 278 469 238 l 469 457 q 438 527 469 507 q 349 547 407 547 q 254 535 306 547 q 146 490 203 522 l 89 644 q 194 687 143 671 q 298 710 244 703 q 414 718 351 718 q 567 687 501 718 q 668 590 632 656 q 704 422 704 525 l 704 0 l 511 0 l 511 138 l 500 138 q 448 54 475 89 q 384 2 421 19 q 290 -15 347 -15 m 261 -307 l 261 -107 l 467 -107 l 467 -307 l 261 -307 z "},"à":{"ha":782,"x_min":65,"x_max":704,"o":"m 290 -15 q 183 15 235 -15 q 98 99 131 46 q 65 218 65 151 q 105 333 65 285 q 221 405 144 381 q 407 429 297 429 l 496 429 l 496 308 l 451 308 q 385 304 413 308 q 338 291 357 300 q 310 265 319 282 q 300 222 300 249 q 322 171 300 192 q 378 150 344 150 q 422 165 400 150 q 456 209 443 181 q 469 278 469 238 l 469 457 q 438 527 469 507 q 349 547 407 547 q 254 535 306 547 q 146 490 203 522 l 89 644 q 194 687 143 671 q 298 710 244 703 q 414 718 351 718 q 567 687 501 718 q 668 590 632 656 q 704 422 704 525 l 704 0 l 511 0 l 511 138 l 500 138 q 448 54 475 89 q 384 2 421 19 q 290 -15 347 -15 m 321 792 l 140 1053 l 378 1053 l 490 792 l 321 792 z "},"ả":{"ha":782,"x_min":65,"x_max":704,"o":"m 290 -15 q 183 15 235 -15 q 98 99 131 46 q 65 218 65 151 q 105 333 65 285 q 221 405 144 381 q 407 429 297 429 l 496 429 l 496 308 l 451 308 q 385 304 413 308 q 338 291 357 300 q 310 265 319 282 q 300 222 300 249 q 322 171 300 192 q 378 150 344 150 q 422 165 400 150 q 456 209 443 181 q 469 278 469 238 l 469 457 q 438 527 469 507 q 349 547 407 547 q 254 535 306 547 q 146 490 203 522 l 89 644 q 194 687 143 671 q 298 710 244 703 q 414 718 351 718 q 567 687 501 718 q 668 590 632 656 q 704 422 704 525 l 704 0 l 511 0 l 511 138 l 500 138 q 448 54 475 89 q 384 2 421 19 q 290 -15 347 -15 m 315 792 l 315 824 q 325 867 315 849 q 346 899 335 885 q 366 928 357 913 q 375 961 375 943 q 365 987 375 978 q 333 996 354 996 q 299 991 318 996 q 263 976 279 986 l 225 1075 q 303 1103 258 1093 q 397 1113 349 1113 q 529 1083 485 1113 q 574 997 574 1053 q 558 937 574 961 q 523 895 543 913 q 488 860 503 878 q 472 815 472 842 l 472 792 l 315 792 z "},"ȃ":{"ha":782,"x_min":65,"x_max":704,"o":"m 290 -15 q 183 15 235 -15 q 98 99 131 46 q 65 218 65 151 q 105 333 65 285 q 221 405 144 381 q 407 429 297 429 l 496 429 l 496 308 l 451 308 q 385 304 413 308 q 338 291 357 300 q 310 265 319 282 q 300 222 300 249 q 322 171 300 192 q 378 150 344 150 q 422 165 400 150 q 456 209 443 181 q 469 278 469 238 l 469 457 q 438 527 469 507 q 349 547 407 547 q 254 535 306 547 q 146 490 203 522 l 89 644 q 194 687 143 671 q 298 710 244 703 q 414 718 351 718 q 567 687 501 718 q 668 590 632 656 q 704 422 704 525 l 704 0 l 511 0 l 511 138 l 500 138 q 448 54 475 89 q 384 2 421 19 q 290 -15 347 -15 m 307 778 l 169 789 q 193 937 172 875 q 262 1032 214 999 q 394 1065 310 1065 q 527 1032 479 1065 q 597 937 575 999 q 619 789 618 875 l 482 778 q 462 882 478 846 q 394 918 446 918 q 327 882 343 918 q 307 778 311 846 z "},"ā":{"ha":782,"x_min":65,"x_max":704,"o":"m 290 -15 q 183 15 235 -15 q 98 99 131 46 q 65 218 65 151 q 105 333 65 285 q 221 405 144 381 q 407 429 297 429 l 496 429 l 496 308 l 451 308 q 385 304 413 308 q 338 291 357 300 q 310 265 319 282 q 300 222 300 249 q 322 171 300 192 q 378 150 344 150 q 422 165 400 150 q 456 209 443 181 q 469 278 469 238 l 469 457 q 438 527 469 507 q 349 547 407 547 q 254 535 306 547 q 146 490 203 522 l 89 644 q 194 687 143 671 q 298 710 244 703 q 414 718 351 718 q 567 687 501 718 q 668 590 632 656 q 704 422 704 525 l 704 0 l 511 0 l 511 138 l 500 138 q 448 54 475 89 q 384 2 421 19 q 290 -15 347 -15 m 176 844 l 176 1004 l 613 1004 l 613 844 l 176 844 z "},"ą":{"ha":782,"x_min":65,"x_max":739,"o":"m 290 -15 q 183 15 235 -15 q 98 99 131 46 q 65 218 65 151 q 105 333 65 285 q 221 405 144 381 q 407 429 297 429 l 496 429 l 496 308 l 451 308 q 385 304 413 308 q 338 291 357 300 q 310 265 319 282 q 300 222 300 249 q 322 171 300 192 q 378 150 344 150 q 422 165 400 150 q 456 209 443 181 q 469 278 469 238 l 469 457 q 438 527 469 507 q 349 547 407 547 q 254 535 306 547 q 146 490 203 522 l 89 644 q 194 687 143 671 q 298 710 244 703 q 414 718 351 718 q 567 687 501 718 q 668 590 632 656 q 704 422 704 525 l 704 0 l 511 0 l 511 138 l 500 138 q 448 54 475 89 q 384 2 421 19 q 290 -15 347 -15 m 624 -290 q 505 -256 547 -290 q 463 -157 463 -221 q 497 -39 463 -99 q 592 64 531 21 l 663 0 q 635 -31 647 -14 q 616 -68 624 -49 q 608 -107 608 -87 q 621 -149 608 -135 q 657 -162 633 -162 q 684 -160 669 -162 q 715 -150 699 -157 l 739 -268 q 681 -285 707 -281 q 624 -290 654 -290 z "},"å":{"ha":782,"x_min":65,"x_max":704,"o":"m 290 -15 q 183 15 235 -15 q 98 99 131 46 q 65 218 65 151 q 105 333 65 285 q 221 405 144 381 q 407 429 297 429 l 496 429 l 496 308 l 451 308 q 385 304 413 308 q 338 291 357 300 q 310 265 319 282 q 300 222 300 249 q 322 171 300 192 q 378 150 344 150 q 422 165 400 150 q 456 209 443 181 q 469 278 469 238 l 469 457 q 438 527 469 507 q 349 547 407 547 q 254 535 306 547 q 146 490 203 522 l 89 644 q 194 687 143 671 q 298 710 244 703 q 414 718 351 718 q 567 687 501 718 q 668 590 632 656 q 704 422 704 525 l 704 0 l 511 0 l 511 138 l 500 138 q 448 54 475 89 q 384 2 421 19 q 290 -15 347 -15 m 394 785 q 299 809 340 785 q 231 876 257 833 q 206 969 206 918 q 231 1064 206 1022 q 299 1130 257 1106 q 393 1154 340 1154 q 490 1130 447 1154 q 558 1063 533 1106 q 583 968 583 1021 q 558 875 583 917 q 490 809 533 833 q 394 785 447 785 m 394 874 q 458 901 432 874 q 483 969 483 928 q 458 1040 483 1014 q 394 1067 432 1067 q 332 1040 357 1067 q 307 971 307 1013 q 332 901 307 928 q 394 874 357 874 z "},"ǻ":{"ha":782,"x_min":65,"x_max":710,"o":"m 290 -15 q 183 15 235 -15 q 98 99 131 46 q 65 218 65 151 q 105 333 65 285 q 221 405 144 381 q 407 429 297 429 l 496 429 l 496 308 l 451 308 q 385 304 413 308 q 338 291 357 300 q 310 265 319 282 q 300 222 300 249 q 322 171 300 192 q 378 150 344 150 q 422 165 400 150 q 456 209 443 181 q 469 278 469 238 l 469 457 q 438 527 469 507 q 349 547 407 547 q 254 535 306 547 q 146 490 203 522 l 89 644 q 194 687 143 671 q 298 710 244 703 q 414 718 351 718 q 567 687 501 718 q 668 590 632 656 q 704 422 704 525 l 704 0 l 511 0 l 511 138 l 500 138 q 448 54 475 89 q 384 2 421 19 q 290 -15 347 -15 m 394 767 q 293 792 338 767 q 223 863 249 818 q 197 961 197 907 q 223 1060 197 1017 q 294 1130 249 1104 q 394 1156 339 1156 q 442 1150 419 1156 q 485 1138 464 1144 l 521 1210 l 710 1210 l 568 1058 q 586 1013 579 1038 q 593 961 593 988 q 567 863 593 907 q 496 792 540 818 q 394 767 451 767 m 394 865 q 458 892 432 865 q 483 960 483 918 q 458 1032 483 1006 q 394 1058 432 1058 q 332 1032 357 1058 q 307 961 307 1006 q 332 892 307 919 q 394 865 357 865 z "},"ã":{"ha":782,"x_min":65,"x_max":704,"o":"m 290 -15 q 183 15 235 -15 q 98 99 131 46 q 65 218 65 151 q 105 333 65 285 q 221 405 144 381 q 407 429 297 429 l 496 429 l 496 308 l 451 308 q 385 304 413 308 q 338 291 357 300 q 310 265 319 282 q 300 222 300 249 q 322 171 300 192 q 378 150 344 150 q 422 165 400 150 q 456 209 443 181 q 469 278 469 238 l 469 457 q 438 527 469 507 q 349 547 407 547 q 254 535 306 547 q 146 490 203 522 l 89 644 q 194 687 143 671 q 298 710 244 703 q 414 718 351 718 q 567 687 501 718 q 668 590 632 656 q 704 422 704 525 l 704 0 l 511 0 l 511 138 l 500 138 q 448 54 475 89 q 384 2 421 19 q 290 -15 347 -15 m 256 806 l 147 814 q 183 969 147 908 q 292 1029 219 1029 q 363 1013 332 1029 q 413 986 393 996 q 449 968 428 979 q 489 957 469 957 q 522 977 513 957 q 532 1032 531 997 l 642 1025 q 606 869 643 929 q 497 808 569 808 q 426 825 456 808 q 375 850 396 842 q 340 870 360 858 q 300 882 319 882 q 267 861 276 882 q 256 806 258 840 z "},"æ":{"ha":1158,"x_min":65,"x_max":1107,"o":"m 296 -15 q 182 16 235 -15 q 97 101 129 47 q 65 221 65 154 q 108 338 65 290 q 227 407 151 385 q 399 429 303 429 l 504 429 l 504 310 l 450 310 q 368 303 403 310 q 317 277 333 296 q 300 225 300 258 q 325 169 300 188 q 374 150 350 150 q 423 167 401 150 q 456 213 444 185 q 468 274 468 240 l 468 460 q 435 525 468 503 q 346 547 401 547 q 241 532 292 547 q 146 490 190 517 l 89 644 q 185 685 136 669 q 285 710 233 701 q 393 718 336 718 q 524 688 481 718 q 597 607 568 657 l 608 607 q 688 690 638 661 q 807 718 739 718 q 963 678 896 718 q 1069 561 1031 639 q 1107 367 1107 483 l 1107 286 l 653 286 l 653 418 l 922 418 l 903 397 q 892 490 903 454 q 860 544 881 526 q 807 561 839 561 q 724 517 751 561 q 696 388 696 472 l 696 299 q 733 194 696 231 q 856 158 769 158 q 946 169 901 158 q 1026 201 990 181 l 1085 47 q 960 -1 1021 14 q 832 -15 900 -15 q 708 1 758 -15 q 622 51 658 17 q 557 136 586 85 l 544 136 q 491 57 526 92 q 406 3 456 22 q 296 -15 357 -15 z "},"ǽ":{"ha":1158,"x_min":65,"x_max":1107,"o":"m 296 -15 q 182 16 235 -15 q 97 101 129 47 q 65 221 65 154 q 108 338 65 290 q 227 407 151 385 q 399 429 303 429 l 504 429 l 504 310 l 450 310 q 368 303 403 310 q 317 277 333 296 q 300 225 300 258 q 325 169 300 188 q 374 150 350 150 q 423 167 401 150 q 456 213 444 185 q 468 274 468 240 l 468 460 q 435 525 468 503 q 346 547 401 547 q 241 532 292 547 q 146 490 190 517 l 89 644 q 185 685 136 669 q 285 710 233 701 q 393 718 336 718 q 524 688 481 718 q 597 607 568 657 l 608 607 q 688 690 638 661 q 807 718 739 718 q 963 678 896 718 q 1069 561 1031 639 q 1107 367 1107 483 l 1107 286 l 653 286 l 653 418 l 922 418 l 903 397 q 892 490 903 454 q 860 544 881 526 q 807 561 839 561 q 724 517 751 561 q 696 388 696 472 l 696 299 q 733 194 696 231 q 856 158 769 158 q 946 169 901 158 q 1026 201 990 181 l 1085 47 q 960 -1 1021 14 q 832 -15 900 -15 q 708 1 758 -15 q 622 51 658 17 q 557 136 586 85 l 544 136 q 491 57 526 92 q 406 3 456 22 q 296 -15 357 -15 m 506 781 l 618 1053 l 857 1053 l 675 781 l 506 781 z "},"b":{"ha":813,"x_min":79,"x_max":757,"o":"m 497 -15 q 381 19 431 -15 q 297 131 332 54 l 293 131 l 293 0 l 79 0 l 79 979 l 324 979 l 324 590 l 325 590 q 397 685 354 651 q 503 718 439 718 q 645 670 589 718 q 729 540 701 622 q 757 353 757 457 q 729 160 757 243 q 644 31 701 78 q 497 -15 588 -15 m 419 167 q 497 214 475 167 q 519 353 519 261 q 497 491 519 446 q 419 536 475 536 q 342 491 365 536 q 319 353 319 446 q 343 214 319 261 q 419 167 367 167 z "},"ɓ":{"ha":813,"x_min":79,"x_max":757,"o":"m 497 -15 q 381 19 431 -15 q 297 131 332 54 l 293 131 l 293 0 l 79 0 l 79 726 q 109 874 79 815 q 201 964 139 933 q 358 994 264 994 q 423 990 393 994 q 465 981 453 986 l 447 814 q 426 817 440 817 q 400 818 411 818 q 332 793 356 818 q 308 715 308 768 l 308 590 l 311 590 q 391 685 343 651 q 503 718 439 718 q 645 670 589 718 q 729 540 701 622 q 757 353 757 457 q 729 160 757 243 q 644 31 701 78 q 497 -15 588 -15 m 419 167 q 497 214 475 167 q 519 353 519 261 q 497 491 519 446 q 419 536 475 536 q 342 491 365 536 q 319 353 319 446 q 342 214 319 261 q 419 167 365 167 z "},"c":{"ha":638,"x_min":56,"x_max":615,"o":"m 386 -15 q 209 29 283 -15 q 95 156 135 74 q 56 350 56 238 q 95 546 56 464 q 209 673 135 628 q 386 718 283 718 q 518 699 457 718 q 615 651 579 681 l 554 478 q 488 511 522 499 q 415 524 453 524 q 326 484 360 524 q 293 350 293 444 q 327 217 293 256 q 417 179 361 179 q 488 192 453 179 q 553 224 524 206 l 615 51 q 517 3 578 21 q 386 -15 457 -15 z "},"ć":{"ha":638,"x_min":56,"x_max":619,"o":"m 386 -15 q 209 29 283 -15 q 95 156 135 74 q 56 350 56 238 q 95 546 56 464 q 209 673 135 628 q 386 718 283 718 q 518 699 457 718 q 615 651 579 681 l 554 478 q 488 511 522 499 q 415 524 453 524 q 326 484 360 524 q 293 350 293 444 q 327 217 293 256 q 417 179 361 179 q 488 192 453 179 q 553 224 524 206 l 615 51 q 517 3 578 21 q 386 -15 457 -15 m 269 781 l 382 1053 l 621 1053 l 439 781 l 269 781 z "},"č":{"ha":638,"x_min":56,"x_max":615,"o":"m 386 -15 q 209 29 283 -15 q 95 156 135 74 q 56 350 56 238 q 95 546 56 464 q 209 673 135 628 q 386 718 283 718 q 518 699 457 718 q 615 651 579 681 l 554 478 q 488 511 522 499 q 415 524 453 524 q 326 484 360 524 q 293 350 293 444 q 327 217 293 256 q 417 179 361 179 q 488 192 453 179 q 553 224 524 206 l 615 51 q 517 3 578 21 q 386 -15 457 -15 m 265 781 l 132 1053 l 297 1053 l 365 901 l 433 1053 l 599 1053 l 465 781 l 265 781 z "},"ç":{"ha":638,"x_min":56,"x_max":615,"o":"m 386 -15 q 209 29 283 -15 q 95 156 135 74 q 56 350 56 238 q 95 546 56 464 q 209 673 135 628 q 386 718 283 718 q 518 699 457 718 q 615 651 579 681 l 554 478 q 488 511 522 499 q 415 524 453 524 q 326 484 360 524 q 293 350 293 444 q 327 217 293 256 q 417 179 361 179 q 488 192 453 179 q 553 224 524 206 l 615 51 q 517 3 578 21 q 386 -15 457 -15 m 376 -290 q 297 -283 343 -290 q 224 -261 251 -276 l 257 -167 q 310 -187 279 -178 q 379 -196 342 -196 q 417 -187 404 -196 q 431 -160 431 -179 q 414 -131 431 -139 q 379 -124 397 -124 q 350 -126 369 -124 q 322 -129 331 -128 l 293 -103 l 313 28 l 411 28 l 394 -90 l 351 -61 q 387 -51 363 -54 q 442 -49 411 -49 q 495 -58 468 -49 q 541 -92 522 -68 q 560 -160 560 -117 q 538 -235 560 -207 q 474 -277 515 -264 q 376 -290 432 -290 z "},"ḉ":{"ha":638,"x_min":56,"x_max":619,"o":"m 386 -15 q 209 29 283 -15 q 95 156 135 74 q 56 350 56 238 q 95 546 56 464 q 209 673 135 628 q 386 718 283 718 q 518 699 457 718 q 615 651 579 681 l 554 478 q 488 511 522 499 q 415 524 453 524 q 326 484 360 524 q 293 350 293 444 q 327 217 293 256 q 417 179 361 179 q 488 192 453 179 q 553 224 524 206 l 615 51 q 517 3 578 21 q 386 -15 457 -15 m 376 -290 q 297 -283 343 -290 q 224 -261 251 -276 l 257 -167 q 310 -187 279 -178 q 379 -196 342 -196 q 417 -187 404 -196 q 431 -160 431 -179 q 414 -131 431 -139 q 379 -124 397 -124 q 350 -126 369 -124 q 322 -129 331 -128 l 293 -103 l 313 28 l 411 28 l 394 -90 l 351 -61 q 387 -51 363 -54 q 442 -49 411 -49 q 495 -58 468 -49 q 541 -92 522 -68 q 560 -160 560 -117 q 538 -235 560 -207 q 474 -277 515 -264 q 376 -290 432 -290 m 269 781 l 382 1053 l 621 1053 l 439 781 l 269 781 z "},"ĉ":{"ha":638,"x_min":56,"x_max":615,"o":"m 386 -15 q 209 29 283 -15 q 95 156 135 74 q 56 350 56 238 q 95 546 56 464 q 209 673 135 628 q 386 718 283 718 q 518 699 457 718 q 615 651 579 681 l 554 478 q 488 511 522 499 q 415 524 453 524 q 326 484 360 524 q 293 350 293 444 q 327 217 293 256 q 417 179 361 179 q 488 192 453 179 q 553 224 524 206 l 615 51 q 517 3 578 21 q 386 -15 457 -15 m 132 783 l 265 1053 l 465 1053 l 599 783 l 433 783 l 365 933 l 297 783 l 132 783 z "},"ċ":{"ha":638,"x_min":56,"x_max":615,"o":"m 386 -15 q 209 29 283 -15 q 95 156 135 74 q 56 350 56 238 q 95 546 56 464 q 209 673 135 628 q 386 718 283 718 q 518 699 457 718 q 615 651 579 681 l 554 478 q 488 511 522 499 q 415 524 453 524 q 326 484 360 524 q 293 350 293 444 q 327 217 293 256 q 417 179 361 179 q 488 192 453 179 q 553 224 524 206 l 615 51 q 517 3 578 21 q 386 -15 457 -15 m 263 832 l 263 1032 l 468 1032 l 468 832 l 263 832 z "},"d":{"ha":813,"x_min":56,"x_max":733,"o":"m 315 -15 q 169 31 226 -15 q 83 160 111 78 q 56 353 56 243 q 83 540 56 457 q 167 670 111 622 q 310 718 224 718 q 422 685 382 718 q 483 590 461 651 l 489 590 l 489 979 l 733 979 l 733 0 l 519 0 l 519 131 l 513 131 q 436 19 482 54 q 315 -15 390 -15 m 394 167 q 472 217 451 167 q 493 353 493 267 q 472 488 493 439 q 393 536 451 536 q 315 488 338 536 q 293 353 293 439 q 315 217 293 267 q 394 167 338 167 z "},"ð":{"ha":775,"x_min":56,"x_max":733,"o":"m 393 -15 q 210 20 286 -15 q 95 130 135 56 q 56 314 56 204 q 86 493 56 418 q 176 609 117 568 q 317 650 235 650 q 452 608 403 650 q 538 499 501 567 l 539 499 q 506 660 535 585 q 419 789 478 736 l 469 786 l 226 681 l 179 783 l 361 865 l 356 836 q 278 869 326 854 q 172 889 229 885 l 199 994 q 374 966 294 992 q 517 896 453 940 l 468 913 l 650 994 l 699 892 l 567 832 l 556 864 q 651 747 611 815 q 713 591 692 679 q 733 396 733 503 q 694 169 733 261 q 578 31 654 78 q 393 -15 501 -15 m 393 161 q 467 197 442 161 q 493 315 493 232 q 467 435 493 399 q 393 472 440 472 q 319 435 344 472 q 293 315 293 397 q 319 198 293 235 q 393 161 344 161 z "},"ď":{"ha":813,"x_min":56,"x_max":951,"o":"m 315 -15 q 169 31 226 -15 q 83 160 111 78 q 56 353 56 243 q 83 540 56 457 q 167 670 111 622 q 310 718 224 718 q 422 685 382 718 q 483 590 461 651 l 489 590 l 489 979 l 733 979 l 733 0 l 519 0 l 519 131 l 513 131 q 436 19 482 54 q 315 -15 390 -15 m 394 167 q 472 217 451 167 q 493 353 493 267 q 472 488 493 439 q 393 536 451 536 q 315 488 338 536 q 293 353 293 439 q 315 217 293 267 q 394 167 338 167 m 788 699 l 788 979 l 953 979 l 918 699 l 788 699 z "},"đ":{"ha":826,"x_min":56,"x_max":808,"o":"m 315 -15 q 169 30 226 -15 q 84 153 113 75 q 56 331 56 232 q 83 510 56 431 q 167 635 111 589 q 310 681 224 681 q 422 649 382 681 q 485 554 463 617 l 490 554 l 490 749 l 306 749 l 306 890 l 490 890 l 490 979 l 733 979 l 733 896 l 808 896 l 808 749 l 733 749 l 733 0 l 519 0 l 519 133 l 514 133 q 438 23 486 61 q 315 -15 390 -15 m 394 156 q 472 202 451 156 q 493 331 493 249 q 472 460 493 414 q 393 507 451 507 q 335 486 357 507 q 303 426 313 465 q 293 331 293 388 q 316 201 293 247 q 394 156 339 156 z "},"ḍ":{"ha":813,"x_min":56,"x_max":733,"o":"m 315 -15 q 169 31 226 -15 q 83 160 111 78 q 56 353 56 243 q 83 540 56 457 q 167 670 111 622 q 310 718 224 718 q 422 685 382 718 q 483 590 461 651 l 489 590 l 489 979 l 733 979 l 733 0 l 519 0 l 519 131 l 513 131 q 436 19 482 54 q 315 -15 390 -15 m 394 167 q 472 217 451 167 q 493 353 493 267 q 472 488 493 439 q 393 536 451 536 q 315 488 338 536 q 293 353 293 439 q 315 217 293 267 q 394 167 338 167 m 272 -307 l 272 -107 l 478 -107 l 478 -307 l 272 -307 z "},"ɗ":{"ha":813,"x_min":56,"x_max":875,"o":"m 314 -15 q 168 31 225 -15 q 83 160 111 78 q 56 353 56 243 q 83 540 56 457 q 167 670 111 622 q 308 718 224 718 q 421 685 382 718 q 483 590 460 651 l 489 590 l 489 729 q 522 876 489 817 q 618 965 556 935 q 768 994 681 994 q 831 990 803 994 q 875 979 860 985 l 857 801 q 835 806 850 804 q 810 807 821 807 q 751 783 769 807 q 733 715 733 760 l 733 0 l 519 0 l 519 131 l 511 131 q 435 19 481 54 q 314 -15 389 -15 m 394 167 q 472 217 451 167 q 493 353 493 267 q 472 488 493 439 q 393 536 451 536 q 315 488 338 536 q 293 353 293 439 q 315 217 293 267 q 394 167 338 167 z "},"ḏ":{"ha":813,"x_min":56,"x_max":733,"o":"m 315 -15 q 169 31 226 -15 q 83 160 111 78 q 56 353 56 243 q 83 540 56 457 q 167 670 111 622 q 310 718 224 718 q 422 685 382 718 q 483 590 461 651 l 489 590 l 489 979 l 733 979 l 733 0 l 519 0 l 519 131 l 513 131 q 436 19 482 54 q 315 -15 390 -15 m 394 167 q 472 217 451 167 q 493 353 493 267 q 472 488 493 439 q 393 536 451 536 q 315 488 338 536 q 293 353 293 439 q 315 217 293 267 q 394 167 338 167 m 157 -271 l 157 -111 l 593 -111 l 593 -271 l 157 -271 z "},"ǆ":{"ha":1471,"x_min":56,"x_max":1422,"o":"m 315 -15 q 169 31 226 -15 q 83 160 111 78 q 56 353 56 243 q 83 540 56 457 q 167 670 111 622 q 310 718 224 718 q 422 685 382 718 q 483 590 461 651 l 489 590 l 489 979 l 733 979 l 733 0 l 519 0 l 519 131 l 513 131 q 436 19 482 54 q 315 -15 390 -15 m 394 167 q 472 217 451 167 q 493 353 493 267 q 472 488 493 439 q 393 536 451 536 q 315 488 338 536 q 293 353 293 439 q 315 217 293 267 q 394 167 338 167 m 881 0 l 881 164 l 1188 586 l 1179 528 l 882 528 l 882 703 l 1410 703 l 1410 547 l 1097 125 l 1107 175 l 1422 175 l 1422 0 l 881 0 m 1051 781 l 918 1053 l 1083 1053 l 1151 901 l 1219 1053 l 1385 1053 l 1251 781 l 1051 781 z "},"e":{"ha":743,"x_min":56,"x_max":690,"o":"m 428 -15 q 217 28 300 -15 q 95 152 135 71 q 56 350 56 233 q 92 542 56 460 q 204 672 129 625 q 388 718 279 718 q 546 678 478 718 q 652 561 614 639 q 690 363 690 483 l 690 283 l 251 283 l 251 419 l 501 419 l 488 397 q 461 526 488 490 q 388 561 435 561 q 330 542 353 561 q 294 485 307 524 q 281 383 281 446 l 281 310 q 296 223 281 257 q 347 173 311 189 q 444 157 382 157 q 533 169 488 157 q 610 201 578 181 l 668 47 q 549 -2 607 11 q 428 -15 490 -15 z "},"é":{"ha":743,"x_min":56,"x_max":690,"o":"m 428 -15 q 217 28 300 -15 q 95 152 135 71 q 56 350 56 233 q 92 542 56 460 q 204 672 129 625 q 388 718 279 718 q 546 678 478 718 q 652 561 614 639 q 690 363 690 483 l 690 283 l 251 283 l 251 419 l 501 419 l 488 397 q 461 526 488 490 q 388 561 435 561 q 330 542 353 561 q 294 485 307 524 q 281 383 281 446 l 281 310 q 296 223 281 257 q 347 173 311 189 q 444 157 382 157 q 533 169 488 157 q 610 201 578 181 l 668 47 q 549 -2 607 11 q 428 -15 490 -15 m 286 781 l 399 1053 l 638 1053 l 456 781 l 286 781 z "},"ĕ":{"ha":743,"x_min":56,"x_max":690,"o":"m 428 -15 q 217 28 300 -15 q 95 152 135 71 q 56 350 56 233 q 92 542 56 460 q 204 672 129 625 q 388 718 279 718 q 546 678 478 718 q 652 561 614 639 q 690 363 690 483 l 690 283 l 251 283 l 251 419 l 501 419 l 488 397 q 461 526 488 490 q 388 561 435 561 q 330 542 353 561 q 294 485 307 524 q 281 383 281 446 l 281 310 q 296 223 281 257 q 347 173 311 189 q 444 157 382 157 q 533 169 488 157 q 610 201 578 181 l 668 47 q 549 -2 607 11 q 428 -15 490 -15 m 382 778 q 249 811 297 778 q 181 907 201 844 q 157 1054 160 969 l 294 1065 q 315 962 299 997 q 382 926 331 926 q 449 962 433 926 q 469 1065 465 997 l 607 1054 q 584 907 606 969 q 515 811 563 844 q 382 778 467 778 z "},"ě":{"ha":743,"x_min":56,"x_max":690,"o":"m 428 -15 q 217 28 300 -15 q 95 152 135 71 q 56 350 56 233 q 92 542 56 460 q 204 672 129 625 q 388 718 279 718 q 546 678 478 718 q 652 561 614 639 q 690 363 690 483 l 690 283 l 251 283 l 251 419 l 501 419 l 488 397 q 461 526 488 490 q 388 561 435 561 q 330 542 353 561 q 294 485 307 524 q 281 383 281 446 l 281 310 q 296 223 281 257 q 347 173 311 189 q 444 157 382 157 q 533 169 488 157 q 610 201 578 181 l 668 47 q 549 -2 607 11 q 428 -15 490 -15 m 282 781 l 149 1053 l 314 1053 l 382 901 l 450 1053 l 615 1053 l 482 781 l 282 781 z "},"ḝ":{"ha":743,"x_min":56,"x_max":690,"o":"m 428 -15 q 217 28 300 -15 q 95 152 135 71 q 56 350 56 233 q 92 542 56 460 q 204 672 129 625 q 388 718 279 718 q 546 678 478 718 q 652 561 614 639 q 690 363 690 483 l 690 283 l 251 283 l 251 419 l 501 419 l 488 397 q 461 526 488 490 q 388 561 435 561 q 330 542 353 561 q 294 485 307 524 q 281 383 281 446 l 281 310 q 296 223 281 257 q 347 173 311 189 q 444 157 382 157 q 533 169 488 157 q 610 201 578 181 l 668 47 q 549 -2 607 11 q 428 -15 490 -15 m 386 -290 q 307 -283 353 -290 q 233 -261 261 -276 l 267 -167 q 320 -187 289 -178 q 389 -196 351 -196 q 427 -187 414 -196 q 440 -160 440 -179 q 424 -131 440 -139 q 389 -124 407 -124 q 360 -126 379 -124 q 332 -129 340 -128 l 303 -103 l 322 28 l 421 28 l 404 -90 l 361 -61 q 397 -51 372 -54 q 451 -49 421 -49 q 505 -58 478 -49 q 551 -92 532 -68 q 569 -160 569 -117 q 547 -235 569 -207 q 483 -277 525 -264 q 386 -290 442 -290 m 382 778 q 249 811 297 778 q 181 907 201 844 q 157 1054 160 969 l 294 1065 q 315 962 299 997 q 382 926 331 926 q 449 962 433 926 q 469 1065 465 997 l 607 1054 q 584 907 606 969 q 515 811 563 844 q 382 778 467 778 z "},"ê":{"ha":743,"x_min":56,"x_max":690,"o":"m 428 -15 q 217 28 300 -15 q 95 152 135 71 q 56 350 56 233 q 92 542 56 460 q 204 672 129 625 q 388 718 279 718 q 546 678 478 718 q 652 561 614 639 q 690 363 690 483 l 690 283 l 251 283 l 251 419 l 501 419 l 488 397 q 461 526 488 490 q 388 561 435 561 q 330 542 353 561 q 294 485 307 524 q 281 383 281 446 l 281 310 q 296 223 281 257 q 347 173 311 189 q 444 157 382 157 q 533 169 488 157 q 610 201 578 181 l 668 47 q 549 -2 607 11 q 428 -15 490 -15 m 149 783 l 282 1053 l 482 1053 l 615 783 l 450 783 l 382 933 l 314 783 l 149 783 z "},"ế":{"ha":743,"x_min":56,"x_max":769,"o":"m 428 -15 q 217 28 300 -15 q 95 152 135 71 q 56 350 56 233 q 92 542 56 460 q 204 672 129 625 q 388 718 279 718 q 546 678 478 718 q 652 561 614 639 q 690 363 690 483 l 690 283 l 251 283 l 251 419 l 501 419 l 488 397 q 461 526 488 490 q 388 561 435 561 q 330 542 353 561 q 294 485 307 524 q 281 383 281 446 l 281 310 q 296 223 281 257 q 347 173 311 189 q 444 157 382 157 q 533 169 488 157 q 610 201 578 181 l 668 47 q 549 -2 607 11 q 428 -15 490 -15 m 157 792 l 290 1038 l 482 1038 l 615 792 l 454 792 l 386 928 l 318 792 l 157 792 m 543 988 l 607 1200 l 769 1200 l 668 988 l 543 988 z "},"ệ":{"ha":743,"x_min":56,"x_max":690,"o":"m 428 -15 q 217 28 300 -15 q 95 152 135 71 q 56 350 56 233 q 92 542 56 460 q 204 672 129 625 q 388 718 279 718 q 546 678 478 718 q 652 561 614 639 q 690 363 690 483 l 690 283 l 251 283 l 251 419 l 501 419 l 488 397 q 461 526 488 490 q 388 561 435 561 q 330 542 353 561 q 294 485 307 524 q 281 383 281 446 l 281 310 q 296 223 281 257 q 347 173 311 189 q 444 157 382 157 q 533 169 488 157 q 610 201 578 181 l 668 47 q 549 -2 607 11 q 428 -15 490 -15 m 272 -307 l 272 -107 l 478 -107 l 478 -307 l 272 -307 m 149 783 l 282 1053 l 482 1053 l 615 783 l 450 783 l 382 933 l 314 783 l 149 783 z "},"ề":{"ha":743,"x_min":56,"x_max":701,"o":"m 428 -15 q 217 28 300 -15 q 95 152 135 71 q 56 350 56 233 q 92 542 56 460 q 204 672 129 625 q 388 718 279 718 q 546 678 478 718 q 652 561 614 639 q 690 363 690 483 l 690 283 l 251 283 l 251 419 l 501 419 l 488 397 q 461 526 488 490 q 388 561 435 561 q 330 542 353 561 q 294 485 307 524 q 281 383 281 446 l 281 310 q 296 223 281 257 q 347 173 311 189 q 444 157 382 157 q 533 169 488 157 q 610 201 578 181 l 668 47 q 549 -2 607 11 q 428 -15 490 -15 m 157 792 l 290 1038 l 482 1038 l 615 792 l 454 792 l 386 928 l 318 792 l 157 792 m 575 988 l 474 1200 l 638 1200 l 700 988 l 575 988 z "},"ể":{"ha":743,"x_min":56,"x_max":736,"o":"m 428 -15 q 217 28 300 -15 q 95 152 135 71 q 56 350 56 233 q 92 542 56 460 q 204 672 129 625 q 388 718 279 718 q 546 678 478 718 q 652 561 614 639 q 690 363 690 483 l 690 283 l 251 283 l 251 419 l 501 419 l 488 397 q 461 526 488 490 q 388 561 435 561 q 330 542 353 561 q 294 485 307 524 q 281 383 281 446 l 281 310 q 296 223 281 257 q 347 173 311 189 q 444 157 382 157 q 533 169 488 157 q 610 201 578 181 l 668 47 q 549 -2 607 11 q 428 -15 490 -15 m 157 801 l 290 1047 l 482 1047 l 615 801 l 454 801 l 386 938 l 318 801 l 157 801 m 539 999 q 545 1031 539 1017 q 559 1058 551 1046 q 572 1081 567 1071 q 578 1104 578 1092 q 570 1122 578 1117 q 543 1126 563 1126 q 517 1122 531 1126 q 492 1110 503 1118 l 465 1194 q 529 1219 493 1211 q 607 1226 565 1226 q 703 1205 669 1226 q 736 1144 736 1183 q 725 1103 736 1121 q 700 1069 714 1085 q 674 1037 686 1054 q 661 999 663 1019 l 539 999 z "},"ễ":{"ha":743,"x_min":56,"x_max":690,"o":"m 428 -15 q 217 28 300 -15 q 95 152 135 71 q 56 350 56 233 q 92 542 56 460 q 204 672 129 625 q 388 718 279 718 q 546 678 478 718 q 652 561 614 639 q 690 363 690 483 l 690 283 l 251 283 l 251 419 l 501 419 l 488 397 q 461 526 488 490 q 388 561 435 561 q 330 542 353 561 q 294 485 307 524 q 281 383 281 446 l 281 310 q 296 223 281 257 q 347 173 311 189 q 444 157 382 157 q 533 169 488 157 q 610 201 578 181 l 668 47 q 549 -2 607 11 q 428 -15 490 -15 m 154 792 l 288 1017 l 479 1017 l 613 792 l 447 792 l 383 915 l 318 792 l 154 792 m 251 1060 l 143 1065 q 159 1156 147 1117 q 201 1217 171 1194 q 288 1240 232 1240 q 357 1226 328 1240 q 406 1200 386 1213 q 432 1185 414 1194 q 468 1175 450 1175 q 499 1194 489 1175 q 513 1242 510 1213 l 622 1235 q 584 1109 617 1158 q 468 1060 551 1060 q 403 1073 429 1060 q 360 1096 376 1086 q 328 1115 343 1107 q 297 1124 313 1124 q 265 1106 276 1124 q 251 1060 254 1088 z "},"ȅ":{"ha":743,"x_min":56,"x_max":690,"o":"m 428 -15 q 217 28 300 -15 q 95 152 135 71 q 56 350 56 233 q 92 542 56 460 q 204 672 129 625 q 388 718 279 718 q 546 678 478 718 q 652 561 614 639 q 690 363 690 483 l 690 283 l 251 283 l 251 419 l 501 419 l 488 397 q 461 526 488 490 q 388 561 435 561 q 330 542 353 561 q 294 485 307 524 q 281 383 281 446 l 281 310 q 296 223 281 257 q 347 173 311 189 q 444 157 382 157 q 533 169 488 157 q 610 201 578 181 l 668 47 q 549 -2 607 11 q 428 -15 490 -15 m 433 781 l 324 1053 l 517 1053 l 563 781 l 433 781 m 211 781 l 100 1053 l 294 1053 l 340 781 l 211 781 z "},"ë":{"ha":743,"x_min":56,"x_max":690,"o":"m 428 -15 q 217 28 300 -15 q 95 152 135 71 q 56 350 56 233 q 92 542 56 460 q 204 672 129 625 q 388 718 279 718 q 546 678 478 718 q 652 561 614 639 q 690 363 690 483 l 690 283 l 251 283 l 251 419 l 501 419 l 488 397 q 461 526 488 490 q 388 561 435 561 q 330 542 353 561 q 294 485 307 524 q 281 383 281 446 l 281 310 q 296 223 281 257 q 347 173 311 189 q 444 157 382 157 q 533 169 488 157 q 610 201 578 181 l 668 47 q 549 -2 607 11 q 428 -15 490 -15 m 424 819 l 424 1028 l 629 1028 l 629 819 l 424 819 m 135 819 l 135 1028 l 340 1028 l 340 819 l 135 819 z "},"ė":{"ha":743,"x_min":56,"x_max":690,"o":"m 428 -15 q 217 28 300 -15 q 95 152 135 71 q 56 350 56 233 q 92 542 56 460 q 204 672 129 625 q 388 718 279 718 q 546 678 478 718 q 652 561 614 639 q 690 363 690 483 l 690 283 l 251 283 l 251 419 l 501 419 l 488 397 q 461 526 488 490 q 388 561 435 561 q 330 542 353 561 q 294 485 307 524 q 281 383 281 446 l 281 310 q 296 223 281 257 q 347 173 311 189 q 444 157 382 157 q 533 169 488 157 q 610 201 578 181 l 668 47 q 549 -2 607 11 q 428 -15 490 -15 m 279 832 l 279 1032 l 485 1032 l 485 832 l 279 832 z "},"ẹ":{"ha":743,"x_min":56,"x_max":690,"o":"m 428 -15 q 217 28 300 -15 q 95 152 135 71 q 56 350 56 233 q 92 542 56 460 q 204 672 129 625 q 388 718 279 718 q 546 678 478 718 q 652 561 614 639 q 690 363 690 483 l 690 283 l 251 283 l 251 419 l 501 419 l 488 397 q 461 526 488 490 q 388 561 435 561 q 330 542 353 561 q 294 485 307 524 q 281 383 281 446 l 281 310 q 296 223 281 257 q 347 173 311 189 q 444 157 382 157 q 533 169 488 157 q 610 201 578 181 l 668 47 q 549 -2 607 11 q 428 -15 490 -15 m 272 -307 l 272 -107 l 478 -107 l 478 -307 l 272 -307 z "},"è":{"ha":743,"x_min":56,"x_max":690,"o":"m 428 -15 q 217 28 300 -15 q 95 152 135 71 q 56 350 56 233 q 92 542 56 460 q 204 672 129 625 q 388 718 279 718 q 546 678 478 718 q 652 561 614 639 q 690 363 690 483 l 690 283 l 251 283 l 251 419 l 501 419 l 488 397 q 461 526 488 490 q 388 561 435 561 q 330 542 353 561 q 294 485 307 524 q 281 383 281 446 l 281 310 q 296 223 281 257 q 347 173 311 189 q 444 157 382 157 q 533 169 488 157 q 610 201 578 181 l 668 47 q 549 -2 607 11 q 428 -15 490 -15 m 308 792 l 128 1053 l 365 1053 l 478 792 l 308 792 z "},"ẻ":{"ha":743,"x_min":56,"x_max":690,"o":"m 428 -15 q 217 28 300 -15 q 95 152 135 71 q 56 350 56 233 q 92 542 56 460 q 204 672 129 625 q 388 718 279 718 q 546 678 478 718 q 652 561 614 639 q 690 363 690 483 l 690 283 l 251 283 l 251 419 l 501 419 l 488 397 q 461 526 488 490 q 388 561 435 561 q 330 542 353 561 q 294 485 307 524 q 281 383 281 446 l 281 310 q 296 223 281 257 q 347 173 311 189 q 444 157 382 157 q 533 169 488 157 q 610 201 578 181 l 668 47 q 549 -2 607 11 q 428 -15 490 -15 m 303 792 l 303 824 q 313 867 303 849 q 333 899 322 885 q 353 928 344 913 q 363 961 363 943 q 352 987 363 978 q 321 996 342 996 q 286 991 306 996 q 250 976 267 986 l 213 1075 q 291 1103 246 1093 q 385 1113 336 1113 q 517 1083 472 1113 q 561 997 561 1053 q 546 937 561 961 q 510 895 531 913 q 475 860 490 878 q 460 815 460 842 l 460 792 l 303 792 z "},"ȇ":{"ha":743,"x_min":56,"x_max":690,"o":"m 428 -15 q 217 28 300 -15 q 95 152 135 71 q 56 350 56 233 q 92 542 56 460 q 204 672 129 625 q 388 718 279 718 q 546 678 478 718 q 652 561 614 639 q 690 363 690 483 l 690 283 l 251 283 l 251 419 l 501 419 l 488 397 q 461 526 488 490 q 388 561 435 561 q 330 542 353 561 q 294 485 307 524 q 281 383 281 446 l 281 310 q 296 223 281 257 q 347 173 311 189 q 444 157 382 157 q 533 169 488 157 q 610 201 578 181 l 668 47 q 549 -2 607 11 q 428 -15 490 -15 m 294 778 l 157 789 q 181 937 160 875 q 249 1032 201 999 q 382 1065 297 1065 q 515 1032 467 1065 q 584 937 563 999 q 607 789 606 875 l 469 778 q 449 882 465 846 q 382 918 433 918 q 315 882 331 918 q 294 778 299 846 z "},"ē":{"ha":743,"x_min":56,"x_max":690,"o":"m 428 -15 q 217 28 300 -15 q 95 152 135 71 q 56 350 56 233 q 92 542 56 460 q 204 672 129 625 q 388 718 279 718 q 546 678 478 718 q 652 561 614 639 q 690 363 690 483 l 690 283 l 251 283 l 251 419 l 501 419 l 488 397 q 461 526 488 490 q 388 561 435 561 q 330 542 353 561 q 294 485 307 524 q 281 383 281 446 l 281 310 q 296 223 281 257 q 347 173 311 189 q 444 157 382 157 q 533 169 488 157 q 610 201 578 181 l 668 47 q 549 -2 607 11 q 428 -15 490 -15 m 164 844 l 164 1004 l 600 1004 l 600 844 l 164 844 z "},"ḗ":{"ha":743,"x_min":56,"x_max":690,"o":"m 428 -15 q 217 28 300 -15 q 95 152 135 71 q 56 350 56 233 q 92 542 56 460 q 204 672 129 625 q 388 718 279 718 q 546 678 478 718 q 652 561 614 639 q 690 363 690 483 l 690 283 l 251 283 l 251 419 l 501 419 l 488 397 q 461 526 488 490 q 388 561 435 561 q 330 542 353 561 q 294 485 307 524 q 281 383 281 446 l 281 310 q 296 223 281 257 q 347 173 311 189 q 444 157 382 157 q 533 169 488 157 q 610 201 578 181 l 668 47 q 549 -2 607 11 q 428 -15 490 -15 m 167 821 l 167 968 l 597 968 l 597 821 l 167 821 m 275 1036 l 372 1233 l 603 1233 l 433 1036 l 275 1036 z "},"ḕ":{"ha":743,"x_min":56,"x_max":690,"o":"m 428 -15 q 217 28 300 -15 q 95 152 135 71 q 56 350 56 233 q 92 542 56 460 q 204 672 129 625 q 388 718 279 718 q 546 678 478 718 q 652 561 614 639 q 690 363 690 483 l 690 283 l 251 283 l 251 419 l 501 419 l 488 397 q 461 526 488 490 q 388 561 435 561 q 330 542 353 561 q 294 485 307 524 q 281 383 281 446 l 281 310 q 296 223 281 257 q 347 173 311 189 q 444 157 382 157 q 533 169 488 157 q 610 201 578 181 l 668 47 q 549 -2 607 11 q 428 -15 490 -15 m 167 821 l 167 968 l 597 968 l 597 821 l 167 821 m 331 1036 l 161 1233 l 392 1233 l 489 1036 l 331 1036 z "},"ę":{"ha":743,"x_min":56,"x_max":690,"o":"m 428 -15 q 217 28 300 -15 q 95 152 135 71 q 56 350 56 233 q 92 542 56 460 q 204 672 129 625 q 388 718 279 718 q 546 678 478 718 q 652 561 614 639 q 690 363 690 483 l 690 283 l 251 283 l 251 419 l 501 419 l 488 397 q 461 526 488 490 q 388 561 435 561 q 330 542 353 561 q 294 485 307 524 q 281 383 281 446 l 281 310 q 296 223 281 257 q 347 173 311 189 q 444 157 382 157 q 533 169 488 157 q 610 201 578 181 l 668 47 q 549 -2 607 11 q 428 -15 490 -15 m 475 -290 q 356 -256 399 -290 q 314 -157 314 -221 q 348 -39 314 -99 q 443 64 382 21 l 514 0 q 487 -31 499 -14 q 467 -68 475 -49 q 460 -107 460 -87 q 472 -149 460 -135 q 508 -162 485 -162 q 535 -160 521 -162 q 567 -150 550 -157 l 590 -268 q 532 -285 558 -281 q 475 -290 506 -290 z "},"ẽ":{"ha":743,"x_min":56,"x_max":690,"o":"m 428 -15 q 217 28 300 -15 q 95 152 135 71 q 56 350 56 233 q 92 542 56 460 q 204 672 129 625 q 388 718 279 718 q 546 678 478 718 q 652 561 614 639 q 690 363 690 483 l 690 283 l 251 283 l 251 419 l 501 419 l 488 397 q 461 526 488 490 q 388 561 435 561 q 330 542 353 561 q 294 485 307 524 q 281 383 281 446 l 281 310 q 296 223 281 257 q 347 173 311 189 q 444 157 382 157 q 533 169 488 157 q 610 201 578 181 l 668 47 q 549 -2 607 11 q 428 -15 490 -15 m 243 806 l 135 814 q 171 969 135 908 q 279 1029 207 1029 q 350 1013 319 1029 q 400 986 381 996 q 436 968 415 979 q 476 957 457 957 q 509 977 500 957 q 519 1032 518 997 l 629 1025 q 594 869 631 929 q 485 808 557 808 q 413 825 443 808 q 363 850 383 842 q 327 870 347 858 q 288 882 307 882 q 255 861 264 882 q 243 806 246 840 z "},"ə":{"ha":743,"x_min":51,"x_max":688,"o":"m 351 -15 q 195 27 263 -15 q 90 149 128 69 q 51 338 51 228 l 51 411 l 490 411 l 490 286 l 244 286 l 260 313 q 284 187 260 222 q 357 151 308 151 q 413 169 390 151 q 448 224 435 186 q 461 318 461 261 l 461 400 q 445 475 461 444 q 392 521 429 506 q 292 536 356 536 q 203 525 250 536 q 125 490 156 514 l 79 656 q 191 703 131 689 q 314 718 251 718 q 528 675 446 718 q 649 551 610 632 q 688 351 688 471 q 649 162 688 244 q 535 32 610 79 q 351 -15 461 -15 z "},"ʒ":{"ha":754,"x_min":29,"x_max":699,"o":"m 336 -267 q 170 -244 253 -267 q 29 -181 88 -222 l 94 -14 q 194 -65 135 -47 q 308 -82 253 -82 q 423 -51 388 -82 q 458 44 458 -19 q 414 138 458 111 q 282 165 369 165 l 183 165 l 182 285 l 465 578 l 450 519 l 65 519 l 65 703 l 657 703 l 657 551 l 401 283 l 346 318 l 399 318 q 618 250 538 318 q 699 51 699 182 q 654 -115 699 -44 q 528 -226 610 -186 q 336 -267 447 -267 z "},"ǯ":{"ha":754,"x_min":29,"x_max":699,"o":"m 336 -267 q 170 -244 253 -267 q 29 -181 88 -222 l 94 -14 q 194 -65 135 -47 q 308 -82 253 -82 q 423 -51 388 -82 q 458 44 458 -19 q 414 138 458 111 q 282 165 369 165 l 183 165 l 182 285 l 465 578 l 450 519 l 65 519 l 65 703 l 657 703 l 657 551 l 401 283 l 346 318 l 399 318 q 618 250 538 318 q 699 51 699 182 q 654 -115 699 -44 q 528 -226 610 -186 q 336 -267 447 -267 m 261 781 l 128 1053 l 293 1053 l 361 901 l 429 1053 l 594 1053 l 461 781 l 261 781 z "},"f":{"ha":557,"x_min":18,"x_max":551,"o":"m 125 0 l 125 539 l 18 539 l 18 703 l 188 703 l 125 633 l 125 688 q 204 913 125 838 q 439 993 283 989 l 538 996 l 551 832 l 440 826 q 394 817 414 825 q 363 789 374 808 q 351 732 351 769 l 351 663 l 303 703 l 522 703 l 522 539 l 369 539 l 369 0 l 125 0 z "},"g":{"ha":801,"x_min":56,"x_max":722,"o":"m 343 -265 q 214 -247 281 -265 q 94 -199 147 -228 l 149 -25 q 213 -55 179 -42 q 281 -76 247 -68 q 343 -83 315 -83 q 467 -39 428 -83 q 507 92 507 6 l 507 175 l 497 175 q 431 74 475 111 q 314 36 388 36 q 176 77 233 36 q 87 195 118 118 q 56 378 56 272 q 87 560 56 483 q 176 677 118 636 q 315 718 235 718 q 431 681 386 718 q 500 575 476 643 l 506 575 l 506 703 l 722 703 l 722 104 q 679 -93 722 -10 q 551 -221 636 -176 q 343 -265 467 -265 m 389 215 q 466 257 442 215 q 490 379 490 299 q 466 497 490 457 q 389 538 442 538 q 313 498 338 538 q 288 379 288 458 q 313 257 288 299 q 389 215 338 215 z "},"ğ":{"ha":801,"x_min":56,"x_max":722,"o":"m 343 -265 q 214 -247 281 -265 q 94 -199 147 -228 l 149 -25 q 213 -55 179 -42 q 281 -76 247 -68 q 343 -83 315 -83 q 467 -39 428 -83 q 507 92 507 6 l 507 175 l 497 175 q 431 74 475 111 q 314 36 388 36 q 176 77 233 36 q 87 195 118 118 q 56 378 56 272 q 87 560 56 483 q 176 677 118 636 q 315 718 235 718 q 431 681 386 718 q 500 575 476 643 l 506 575 l 506 703 l 722 703 l 722 104 q 679 -93 722 -10 q 551 -221 636 -176 q 343 -265 467 -265 m 389 215 q 466 257 442 215 q 490 379 490 299 q 466 497 490 457 q 389 538 442 538 q 313 498 338 538 q 288 379 288 458 q 313 257 288 299 q 389 215 338 215 m 392 778 q 259 811 307 778 q 190 907 211 844 q 167 1054 169 969 l 304 1065 q 324 962 308 997 q 392 926 340 926 q 459 962 443 926 q 479 1065 475 997 l 617 1054 q 594 907 615 969 q 524 811 572 844 q 392 778 476 778 z "},"ǧ":{"ha":801,"x_min":56,"x_max":722,"o":"m 343 -265 q 214 -247 281 -265 q 94 -199 147 -228 l 149 -25 q 213 -55 179 -42 q 281 -76 247 -68 q 343 -83 315 -83 q 467 -39 428 -83 q 507 92 507 6 l 507 175 l 497 175 q 431 74 475 111 q 314 36 388 36 q 176 77 233 36 q 87 195 118 118 q 56 378 56 272 q 87 560 56 483 q 176 677 118 636 q 315 718 235 718 q 431 681 386 718 q 500 575 476 643 l 506 575 l 506 703 l 722 703 l 722 104 q 679 -93 722 -10 q 551 -221 636 -176 q 343 -265 467 -265 m 389 215 q 466 257 442 215 q 490 379 490 299 q 466 497 490 457 q 389 538 442 538 q 313 498 338 538 q 288 379 288 458 q 313 257 288 299 q 389 215 338 215 m 292 781 l 158 1053 l 324 1053 l 392 901 l 460 1053 l 625 1053 l 492 781 l 292 781 z "},"ĝ":{"ha":801,"x_min":56,"x_max":722,"o":"m 343 -265 q 214 -247 281 -265 q 94 -199 147 -228 l 149 -25 q 213 -55 179 -42 q 281 -76 247 -68 q 343 -83 315 -83 q 467 -39 428 -83 q 507 92 507 6 l 507 175 l 497 175 q 431 74 475 111 q 314 36 388 36 q 176 77 233 36 q 87 195 118 118 q 56 378 56 272 q 87 560 56 483 q 176 677 118 636 q 315 718 235 718 q 431 681 386 718 q 500 575 476 643 l 506 575 l 506 703 l 722 703 l 722 104 q 679 -93 722 -10 q 551 -221 636 -176 q 343 -265 467 -265 m 389 215 q 466 257 442 215 q 490 379 490 299 q 466 497 490 457 q 389 538 442 538 q 313 498 338 538 q 288 379 288 458 q 313 257 288 299 q 389 215 338 215 m 158 783 l 292 1053 l 492 1053 l 625 783 l 460 783 l 392 933 l 324 783 l 158 783 z "},"ģ":{"ha":801,"x_min":56,"x_max":722,"o":"m 343 -265 q 214 -247 281 -265 q 94 -199 147 -228 l 149 -25 q 213 -55 179 -42 q 281 -76 247 -68 q 343 -83 315 -83 q 467 -39 428 -83 q 507 92 507 6 l 507 175 l 497 175 q 431 74 475 111 q 314 36 388 36 q 176 77 233 36 q 87 195 118 118 q 56 378 56 272 q 87 560 56 483 q 176 677 118 636 q 315 718 235 718 q 431 681 386 718 q 500 575 476 643 l 506 575 l 506 703 l 722 703 l 722 104 q 679 -93 722 -10 q 551 -221 636 -176 q 343 -265 467 -265 m 389 215 q 466 257 442 215 q 490 379 490 299 q 466 497 490 457 q 389 538 442 538 q 313 498 338 538 q 288 379 288 458 q 313 257 288 299 q 389 215 338 215 m 290 806 l 290 931 q 308 1051 290 994 q 371 1149 325 1107 l 451 1093 q 410 1021 425 1060 q 394 950 394 982 l 350 978 l 494 978 l 494 806 l 290 806 z "},"ġ":{"ha":801,"x_min":56,"x_max":722,"o":"m 343 -265 q 214 -247 281 -265 q 94 -199 147 -228 l 149 -25 q 213 -55 179 -42 q 281 -76 247 -68 q 343 -83 315 -83 q 467 -39 428 -83 q 507 92 507 6 l 507 175 l 497 175 q 431 74 475 111 q 314 36 388 36 q 176 77 233 36 q 87 195 118 118 q 56 378 56 272 q 87 560 56 483 q 176 677 118 636 q 315 718 235 718 q 431 681 386 718 q 500 575 476 643 l 506 575 l 506 703 l 722 703 l 722 104 q 679 -93 722 -10 q 551 -221 636 -176 q 343 -265 467 -265 m 389 215 q 466 257 442 215 q 490 379 490 299 q 466 497 490 457 q 389 538 442 538 q 313 498 338 538 q 288 379 288 458 q 313 257 288 299 q 389 215 338 215 m 289 832 l 289 1032 l 494 1032 l 494 832 l 289 832 z "},"ḡ":{"ha":801,"x_min":56,"x_max":722,"o":"m 343 -265 q 214 -247 281 -265 q 94 -199 147 -228 l 149 -25 q 213 -55 179 -42 q 281 -76 247 -68 q 343 -83 315 -83 q 467 -39 428 -83 q 507 92 507 6 l 507 175 l 497 175 q 431 74 475 111 q 314 36 388 36 q 176 77 233 36 q 87 195 118 118 q 56 378 56 272 q 87 560 56 483 q 176 677 118 636 q 315 718 235 718 q 431 681 386 718 q 500 575 476 643 l 506 575 l 506 703 l 722 703 l 722 104 q 679 -93 722 -10 q 551 -221 636 -176 q 343 -265 467 -265 m 389 215 q 466 257 442 215 q 490 379 490 299 q 466 497 490 457 q 389 538 442 538 q 313 498 338 538 q 288 379 288 458 q 313 257 288 299 q 389 215 338 215 m 174 844 l 174 1004 l 610 1004 l 610 844 l 174 844 z "},"ǥ":{"ha":801,"x_min":56,"x_max":790,"o":"m 340 -265 q 213 -247 279 -265 q 93 -200 146 -229 l 136 -50 q 205 -74 168 -65 q 278 -88 242 -83 q 342 -93 314 -93 q 442 -76 406 -93 q 493 -21 478 -60 l 506 -44 l 297 -44 l 297 40 l 524 40 l 504 43 q 506 62 506 53 q 506 82 506 71 l 506 215 l 496 215 q 429 114 474 150 q 311 78 385 78 q 172 115 229 78 q 85 222 115 151 q 56 393 56 292 q 85 569 56 496 q 173 680 115 642 q 313 718 231 718 q 431 678 386 718 q 499 569 476 639 l 506 578 l 506 703 l 722 703 l 722 104 q 720 50 722 75 q 715 8 718 25 l 690 40 l 790 40 l 790 -44 l 678 -44 l 711 -17 q 588 -208 683 -150 q 340 -265 493 -265 m 389 238 q 446 256 424 238 q 479 307 468 274 q 490 390 490 340 q 466 502 490 463 q 389 542 442 542 q 333 525 356 542 q 299 474 310 508 q 288 393 288 440 q 299 308 288 343 q 332 256 310 274 q 389 238 354 238 z "},"h":{"ha":806,"x_min":79,"x_max":728,"o":"m 79 0 l 79 979 l 307 979 l 307 583 l 322 583 q 396 680 349 642 q 515 718 443 718 q 628 688 581 718 q 702 598 676 658 q 728 446 728 538 l 728 0 l 483 0 l 483 426 q 475 479 483 460 q 450 508 467 499 q 413 518 433 518 q 369 504 389 518 q 336 467 349 490 q 324 408 324 443 l 324 0 l 79 0 z "},"ħ":{"ha":819,"x_min":17,"x_max":742,"o":"m 92 0 l 92 749 l 17 749 l 17 896 l 92 896 l 92 979 l 319 979 l 319 892 l 519 892 l 519 749 l 319 749 l 319 542 l 329 542 q 408 644 360 608 q 525 681 456 681 q 685 608 628 681 q 742 388 742 536 l 742 0 l 497 0 l 497 378 q 490 433 497 411 q 466 467 482 456 q 425 479 450 479 q 381 464 400 479 q 349 421 361 449 q 336 353 336 393 l 336 0 l 92 0 z "},"ḫ":{"ha":806,"x_min":79,"x_max":728,"o":"m 79 0 l 79 979 l 307 979 l 307 583 l 322 583 q 396 680 349 642 q 515 718 443 718 q 628 688 581 718 q 702 598 676 658 q 728 446 728 538 l 728 0 l 483 0 l 483 426 q 475 479 483 460 q 450 508 467 499 q 413 518 433 518 q 369 504 389 518 q 336 467 349 490 q 324 408 324 443 l 324 0 l 79 0 m 407 -294 q 234 -238 293 -294 q 172 -86 175 -182 l 307 -75 q 335 -135 310 -117 q 407 -154 360 -154 q 478 -135 454 -154 q 507 -75 503 -117 l 642 -86 q 581 -238 640 -182 q 407 -294 521 -294 z "},"ȟ":{"ha":806,"x_min":79,"x_max":728,"o":"m 79 0 l 79 979 l 307 979 l 307 583 l 322 583 q 396 680 349 642 q 515 718 443 718 q 628 688 581 718 q 702 598 676 658 q 728 446 728 538 l 728 0 l 483 0 l 483 426 q 475 479 483 460 q 450 508 467 499 q 413 518 433 518 q 369 504 389 518 q 336 467 349 490 q 324 408 324 443 l 324 0 l 79 0 m 292 1063 l 149 1285 l 319 1285 l 388 1169 l 457 1285 l 626 1285 l 483 1063 l 292 1063 z "},"ĥ":{"ha":806,"x_min":79,"x_max":728,"o":"m 79 0 l 79 979 l 307 979 l 307 583 l 322 583 q 396 680 349 642 q 515 718 443 718 q 628 688 581 718 q 702 598 676 658 q 728 446 728 538 l 728 0 l 483 0 l 483 426 q 475 479 483 460 q 450 508 467 499 q 413 518 433 518 q 369 504 389 518 q 336 467 349 490 q 324 408 324 443 l 324 0 l 79 0 m 149 1063 l 292 1285 l 483 1285 l 626 1063 l 456 1063 l 388 1178 l 318 1063 l 149 1063 z "},"ḥ":{"ha":806,"x_min":79,"x_max":728,"o":"m 79 0 l 79 979 l 307 979 l 307 583 l 322 583 q 396 680 349 642 q 515 718 443 718 q 628 688 581 718 q 702 598 676 658 q 728 446 728 538 l 728 0 l 483 0 l 483 426 q 475 479 483 460 q 450 508 467 499 q 413 518 433 518 q 369 504 389 518 q 336 467 349 490 q 324 408 324 443 l 324 0 l 79 0 m 304 -307 l 304 -107 l 510 -107 l 510 -307 l 304 -307 z "},"i":{"ha":401,"x_min":79,"x_max":324,"o":"m 79 822 l 79 1039 l 321 1039 l 321 822 l 79 822 m 79 0 l 79 703 l 324 703 l 324 0 l 79 0 z "},"ı":{"ha":401,"x_min":79,"x_max":324,"o":"m 79 0 l 79 703 l 324 703 l 324 0 l 79 0 z "},"í":{"ha":401,"x_min":79,"x_max":454,"o":"m 79 0 l 79 703 l 324 703 l 324 0 l 79 0 m 104 781 l 217 1053 l 456 1053 l 274 781 l 104 781 z "},"ĭ":{"ha":401,"x_min":-25,"x_max":425,"o":"m 79 0 l 79 703 l 324 703 l 324 0 l 79 0 m 200 778 q 67 811 115 778 q -1 907 19 844 q -25 1054 -22 969 l 113 1065 q 133 962 117 997 q 200 926 149 926 q 267 962 251 926 q 288 1065 283 997 l 425 1054 q 402 907 424 969 q 333 811 381 844 q 200 778 285 778 z "},"î":{"ha":401,"x_min":-33,"x_max":433,"o":"m 79 0 l 79 703 l 324 703 l 324 0 l 79 0 m -33 783 l 100 1053 l 300 1053 l 433 783 l 268 783 l 200 933 l 132 783 l -33 783 z "},"ȉ":{"ha":401,"x_min":-82,"x_max":381,"o":"m 79 0 l 79 703 l 324 703 l 324 0 l 79 0 m 251 781 l 142 1053 l 335 1053 l 381 781 l 251 781 m 29 781 l -82 1053 l 113 1053 l 158 781 l 29 781 z "},"ï":{"ha":401,"x_min":-47,"x_max":447,"o":"m 79 0 l 79 703 l 324 703 l 324 0 l 79 0 m 242 819 l 242 1028 l 447 1028 l 447 819 l 242 819 m -47 819 l -47 1028 l 158 1028 l 158 819 l -47 819 z "},"ḯ":{"ha":401,"x_min":-37,"x_max":439,"o":"m 79 0 l 79 703 l 324 703 l 324 0 l 79 0 m 113 996 l 208 1193 l 439 1193 l 269 996 l 113 996 m -36 792 l -36 951 l 169 951 l 169 792 l -36 792 m 231 792 l 231 951 l 436 951 l 436 792 l 231 792 z "},"ị":{"ha":401,"x_min":79,"x_max":324,"o":"m 79 822 l 79 1039 l 321 1039 l 321 822 l 79 822 m 79 0 l 79 703 l 324 703 l 324 0 l 79 0 m 97 -307 l 97 -107 l 303 -107 l 303 -307 l 97 -307 z "},"ì":{"ha":401,"x_min":-56,"x_max":324,"o":"m 79 0 l 79 703 l 324 703 l 324 0 l 79 0 m 126 792 l -54 1053 l 183 1053 l 296 792 l 126 792 z "},"ỉ":{"ha":401,"x_min":29,"x_max":379,"o":"m 79 0 l 79 703 l 324 703 l 324 0 l 79 0 m 121 792 l 121 824 q 131 867 121 849 q 151 899 140 885 q 172 928 163 913 q 181 961 181 943 q 170 987 181 978 q 139 996 160 996 q 104 991 124 996 q 68 976 85 986 l 31 1075 q 109 1103 64 1093 q 203 1113 154 1113 q 335 1083 290 1113 q 379 997 379 1053 q 364 937 379 961 q 328 895 349 913 q 293 860 308 878 q 278 815 278 842 l 278 792 l 121 792 z "},"ȋ":{"ha":401,"x_min":-25,"x_max":425,"o":"m 79 0 l 79 703 l 324 703 l 324 0 l 79 0 m 113 778 l -25 789 q -1 937 -22 875 q 67 1032 19 999 q 200 1065 115 1065 q 333 1032 285 1065 q 402 937 381 999 q 425 789 424 875 l 288 778 q 267 882 283 846 q 200 918 251 918 q 133 882 149 918 q 113 778 117 846 z "},"ĳ":{"ha":782,"x_min":79,"x_max":717,"o":"m 79 822 l 79 1039 l 321 1039 l 321 822 l 79 822 m 79 0 l 79 703 l 324 703 l 324 0 l 79 0 m 474 822 l 474 1039 l 715 1039 l 715 822 l 474 822 m 372 -268 l 351 -89 l 407 -81 q 454 -56 436 -76 q 472 15 472 -36 l 472 703 l 717 703 l 717 19 q 707 -90 717 -42 q 669 -174 697 -139 q 585 -229 640 -208 q 440 -261 531 -250 l 372 -268 z "},"ī":{"ha":401,"x_min":-18,"x_max":418,"o":"m 79 0 l 79 703 l 324 703 l 324 0 l 79 0 m -18 844 l -18 1004 l 418 1004 l 418 844 l -18 844 z "},"į":{"ha":401,"x_min":65,"x_max":343,"o":"m 79 0 l 79 703 l 324 703 l 324 0 l 79 0 m 79 822 l 79 1039 l 322 1039 l 322 822 l 79 822 m 226 -290 q 108 -256 150 -290 q 65 -157 65 -221 q 99 -39 65 -99 q 194 64 133 21 l 265 0 q 238 -31 250 -14 q 219 -68 226 -49 q 211 -107 211 -87 q 224 -149 211 -135 q 260 -162 236 -162 q 287 -160 272 -162 q 318 -150 301 -157 l 342 -268 q 283 -285 310 -281 q 226 -290 257 -290 z "},"ĩ":{"ha":401,"x_min":-47,"x_max":447,"o":"m 79 0 l 79 703 l 324 703 l 324 0 l 79 0 m 61 806 l -47 814 q -11 969 -47 908 q 97 1029 25 1029 q 168 1013 138 1029 q 218 986 199 996 q 254 968 233 979 q 294 957 275 957 q 327 977 318 957 q 338 1032 336 997 l 447 1025 q 412 869 449 929 q 303 808 375 808 q 231 825 261 808 q 181 850 201 842 q 145 870 165 858 q 106 882 125 882 q 73 861 82 882 q 61 806 64 840 z "},"j":{"ha":381,"x_min":-50,"x_max":315,"o":"m 72 822 l 72 1039 l 314 1039 l 314 822 l 72 822 m -29 -268 l -50 -89 l 6 -81 q 53 -56 35 -76 q 71 15 71 -36 l 71 703 l 315 703 l 315 19 q 306 -90 315 -42 q 267 -174 296 -139 q 184 -229 239 -208 q 39 -261 129 -250 l -29 -268 z "},"ȷ":{"ha":381,"x_min":-50,"x_max":315,"o":"m -29 -268 l -50 -89 l 6 -81 q 53 -56 35 -76 q 71 15 71 -36 l 71 703 l 315 703 l 315 19 q 306 -90 315 -42 q 267 -174 296 -139 q 184 -229 239 -208 q 39 -261 129 -250 l -29 -268 z "},"ĵ":{"ha":381,"x_min":-50,"x_max":426,"o":"m -29 -268 l -50 -89 l 6 -81 q 53 -56 35 -76 q 71 15 71 -36 l 71 703 l 315 703 l 315 19 q 306 -90 315 -42 q 267 -174 296 -139 q 184 -229 239 -208 q 39 -261 129 -250 l -29 -268 m -40 783 l 93 1053 l 293 1053 l 426 783 l 261 783 l 193 933 l 125 783 l -40 783 z "},"k":{"ha":739,"x_min":79,"x_max":754,"o":"m 79 0 l 79 979 l 324 979 l 324 403 l 332 403 l 481 703 l 743 703 l 524 321 l 536 393 l 754 0 l 482 0 l 332 293 l 324 293 l 324 0 l 79 0 z "},"ǩ":{"ha":739,"x_min":79,"x_max":754,"o":"m 79 0 l 79 979 l 324 979 l 324 403 l 332 403 l 481 703 l 743 703 l 524 321 l 536 393 l 754 0 l 482 0 l 332 293 l 324 293 l 324 0 l 79 0 m 292 1063 l 149 1285 l 319 1285 l 388 1169 l 457 1285 l 626 1285 l 483 1063 l 292 1063 z "},"ķ":{"ha":739,"x_min":79,"x_max":754,"o":"m 79 0 l 79 979 l 324 979 l 324 403 l 332 403 l 481 703 l 743 703 l 524 321 l 536 393 l 754 0 l 482 0 l 332 293 l 324 293 l 324 0 l 79 0 m 410 -442 l 329 -387 q 371 -317 357 -356 q 385 -244 385 -278 l 428 -265 l 294 -265 l 294 -94 l 490 -94 l 490 -225 q 472 -342 490 -287 q 410 -442 454 -397 z "},"ĸ":{"ha":739,"x_min":79,"x_max":754,"o":"m 79 0 l 79 703 l 324 703 l 324 403 l 332 403 l 481 703 l 743 703 l 524 321 l 536 393 l 754 0 l 482 0 l 332 293 l 324 293 l 324 0 l 79 0 z "},"l":{"ha":469,"x_min":79,"x_max":461,"o":"m 319 -15 q 141 47 203 -15 q 79 242 79 108 l 79 979 l 324 979 l 324 256 q 328 206 324 225 q 344 178 332 188 q 375 168 356 168 q 409 170 393 168 q 438 176 425 172 l 461 11 q 394 -9 425 -3 q 319 -15 363 -15 z "},"ĺ":{"ha":469,"x_min":79,"x_max":499,"o":"m 319 -15 q 141 47 203 -15 q 79 242 79 108 l 79 979 l 324 979 l 324 256 q 328 206 324 225 q 344 178 332 188 q 375 168 356 168 q 409 170 393 168 q 438 176 425 172 l 461 11 q 394 -9 425 -3 q 319 -15 363 -15 m 113 1063 l 246 1296 l 500 1296 l 292 1063 l 113 1063 z "},"ľ":{"ha":469,"x_min":79,"x_max":542,"o":"m 319 -15 q 141 47 203 -15 q 79 242 79 108 l 79 979 l 324 979 l 324 256 q 328 206 324 225 q 344 178 332 188 q 375 168 356 168 q 409 170 393 168 q 438 176 425 172 l 461 11 q 394 -9 425 -3 q 319 -15 363 -15 m 376 699 l 376 979 l 542 979 l 507 699 l 376 699 z "},"ļ":{"ha":469,"x_min":79,"x_max":461,"o":"m 319 -15 q 141 47 203 -15 q 79 242 79 108 l 79 979 l 324 979 l 324 256 q 328 206 324 225 q 344 178 332 188 q 375 168 356 168 q 409 170 393 168 q 438 176 425 172 l 461 11 q 394 -9 425 -3 q 319 -15 363 -15 m 293 -442 l 213 -387 q 254 -317 240 -356 q 268 -244 268 -278 l 311 -265 l 178 -265 l 178 -94 l 374 -94 l 374 -225 q 356 -342 374 -287 q 293 -442 338 -397 z "},"ŀ":{"ha":647,"x_min":79,"x_max":650,"o":"m 319 -15 q 141 47 203 -15 q 79 242 79 108 l 79 979 l 324 979 l 324 256 q 328 206 324 225 q 344 178 332 188 q 375 168 356 168 q 409 170 393 168 q 438 176 425 172 l 461 11 q 394 -9 425 -3 q 319 -15 363 -15 m 399 394 l 399 611 l 649 611 l 649 394 l 399 394 z "},"ḷ":{"ha":469,"x_min":79,"x_max":461,"o":"m 319 -15 q 141 47 203 -15 q 79 242 79 108 l 79 979 l 324 979 l 324 256 q 328 206 324 225 q 344 178 332 188 q 375 168 356 168 q 409 170 393 168 q 438 176 425 172 l 461 11 q 394 -9 425 -3 q 319 -15 363 -15 m 174 -307 l 174 -107 l 379 -107 l 379 -307 l 174 -307 z "},"ǉ":{"ha":850,"x_min":79,"x_max":785,"o":"m 319 -15 q 141 47 203 -15 q 79 242 79 108 l 79 979 l 324 979 l 324 256 q 328 206 324 225 q 344 178 332 188 q 375 168 356 168 q 409 170 393 168 q 438 176 425 172 l 461 11 q 394 -9 425 -3 q 319 -15 363 -15 m 542 822 l 542 1039 l 783 1039 l 783 822 l 542 822 m 440 -268 l 419 -89 l 475 -81 q 522 -56 504 -76 q 540 15 540 -36 l 540 703 l 785 703 l 785 19 q 775 -90 785 -42 q 737 -174 765 -139 q 653 -229 708 -208 q 508 -261 599 -250 l 440 -268 z "},"ḻ":{"ha":469,"x_min":58,"x_max":494,"o":"m 319 -15 q 141 47 203 -15 q 79 242 79 108 l 79 979 l 324 979 l 324 256 q 328 206 324 225 q 344 178 332 188 q 375 168 356 168 q 409 170 393 168 q 438 176 425 172 l 461 11 q 394 -9 425 -3 q 319 -15 363 -15 m 58 -271 l 58 -111 l 494 -111 l 494 -271 l 58 -271 z "},"ł":{"ha":469,"x_min":-58,"x_max":463,"o":"m 319 -15 q 141 47 203 -15 q 79 242 79 108 l 79 979 l 324 979 l 324 256 q 328 206 324 225 q 344 178 332 188 q 375 168 356 168 q 409 170 393 168 q 438 176 425 172 l 461 11 q 394 -9 425 -3 q 319 -15 363 -15 m 42 279 l -58 425 l 361 711 l 461 565 l 42 279 z "},"m":{"ha":1194,"x_min":82,"x_max":1114,"o":"m 82 0 l 82 703 l 292 703 l 292 565 l 303 565 q 354 649 322 615 q 428 700 386 682 q 519 718 471 718 q 635 683 589 718 q 699 590 682 647 l 708 590 q 776 680 725 642 q 911 718 828 718 q 1019 688 974 718 q 1089 598 1064 658 q 1114 446 1114 538 l 1114 0 l 874 0 l 874 429 q 858 498 874 478 q 811 518 843 518 q 762 505 783 518 q 727 471 740 492 q 714 425 714 450 l 714 0 l 479 0 l 479 429 q 462 497 479 476 q 415 518 444 518 q 367 504 389 518 q 333 469 346 490 q 321 425 321 449 l 321 0 l 82 0 z "},"ṃ":{"ha":1194,"x_min":82,"x_max":1114,"o":"m 82 0 l 82 703 l 292 703 l 292 565 l 303 565 q 354 649 322 615 q 428 700 386 682 q 519 718 471 718 q 635 683 589 718 q 699 590 682 647 l 708 590 q 776 680 725 642 q 911 718 828 718 q 1019 688 974 718 q 1089 598 1064 658 q 1114 446 1114 538 l 1114 0 l 874 0 l 874 429 q 858 498 874 478 q 811 518 843 518 q 762 505 783 518 q 727 471 740 492 q 714 425 714 450 l 714 0 l 479 0 l 479 429 q 462 497 479 476 q 415 518 444 518 q 367 504 389 518 q 333 469 346 490 q 321 425 321 449 l 321 0 l 82 0 m 496 -307 l 496 -107 l 701 -107 l 701 -307 l 496 -307 z "},"n":{"ha":806,"x_min":79,"x_max":728,"o":"m 79 0 l 79 703 l 296 703 l 296 571 l 307 571 q 389 678 335 639 q 515 718 443 718 q 628 688 581 718 q 702 598 676 658 q 728 446 728 538 l 728 0 l 483 0 l 483 426 q 476 479 483 460 q 451 508 468 499 q 413 518 435 518 q 369 505 389 518 q 336 467 349 492 q 324 408 324 443 l 324 0 l 79 0 z "},"ń":{"ha":806,"x_min":79,"x_max":728,"o":"m 79 0 l 79 703 l 296 703 l 296 571 l 307 571 q 389 678 335 639 q 515 718 443 718 q 628 688 581 718 q 702 598 676 658 q 728 446 728 538 l 728 0 l 483 0 l 483 426 q 476 479 483 460 q 451 508 468 499 q 413 518 435 518 q 369 505 389 518 q 336 467 349 492 q 324 408 324 443 l 324 0 l 79 0 m 310 781 l 422 1053 l 661 1053 l 479 781 l 310 781 z "},"ŉ":{"ha":929,"x_min":-104,"x_max":851,"o":"m 15 744 l -65 800 q -22 870 -36 831 q -7 942 -7 910 l 33 922 l -104 922 l -104 1092 l 104 1092 l 104 963 q 82 843 104 899 q 15 744 60 788 m 203 0 l 203 703 l 419 703 l 419 571 l 431 571 q 513 678 458 639 q 639 718 567 718 q 752 688 704 718 q 826 598 800 658 q 851 446 851 538 l 851 0 l 607 0 l 607 426 q 599 479 607 460 q 575 508 592 499 q 536 518 558 518 q 492 505 513 518 q 460 467 472 492 q 447 408 447 443 l 447 0 l 203 0 z "},"ň":{"ha":806,"x_min":79,"x_max":728,"o":"m 79 0 l 79 703 l 296 703 l 296 571 l 307 571 q 389 678 335 639 q 515 718 443 718 q 628 688 581 718 q 702 598 676 658 q 728 446 728 538 l 728 0 l 483 0 l 483 426 q 476 479 483 460 q 451 508 468 499 q 413 518 435 518 q 369 505 389 518 q 336 467 349 492 q 324 408 324 443 l 324 0 l 79 0 m 306 781 l 172 1053 l 338 1053 l 406 901 l 474 1053 l 639 1053 l 506 781 l 306 781 z "},"ņ":{"ha":806,"x_min":79,"x_max":728,"o":"m 79 0 l 79 703 l 296 703 l 296 571 l 307 571 q 389 678 335 639 q 515 718 443 718 q 628 688 581 718 q 702 598 676 658 q 728 446 728 538 l 728 0 l 483 0 l 483 426 q 476 479 483 460 q 451 508 468 499 q 413 518 435 518 q 369 505 389 518 q 336 467 349 492 q 324 408 324 443 l 324 0 l 79 0 m 418 -442 l 338 -387 q 379 -317 365 -356 q 393 -244 393 -278 l 436 -265 l 303 -265 l 303 -94 l 499 -94 l 499 -225 q 481 -342 499 -287 q 418 -442 463 -397 z "},"ṅ":{"ha":806,"x_min":79,"x_max":728,"o":"m 79 0 l 79 703 l 296 703 l 296 571 l 307 571 q 389 678 335 639 q 515 718 443 718 q 628 688 581 718 q 702 598 676 658 q 728 446 728 538 l 728 0 l 483 0 l 483 426 q 476 479 483 460 q 451 508 468 499 q 413 518 435 518 q 369 505 389 518 q 336 467 349 492 q 324 408 324 443 l 324 0 l 79 0 m 303 832 l 303 1032 l 508 1032 l 508 832 l 303 832 z "},"ṇ":{"ha":806,"x_min":79,"x_max":728,"o":"m 79 0 l 79 703 l 296 703 l 296 571 l 307 571 q 389 678 335 639 q 515 718 443 718 q 628 688 581 718 q 702 598 676 658 q 728 446 728 538 l 728 0 l 483 0 l 483 426 q 476 479 483 460 q 451 508 468 499 q 413 518 435 518 q 369 505 389 518 q 336 467 349 492 q 324 408 324 443 l 324 0 l 79 0 m 299 -307 l 299 -107 l 504 -107 l 504 -307 l 299 -307 z "},"ǌ":{"ha":1188,"x_min":79,"x_max":1121,"o":"m 79 0 l 79 703 l 296 703 l 296 571 l 307 571 q 389 678 335 639 q 515 718 443 718 q 628 688 581 718 q 702 598 676 658 q 728 446 728 538 l 728 0 l 483 0 l 483 426 q 476 479 483 460 q 451 508 468 499 q 413 518 435 518 q 369 505 389 518 q 336 467 349 492 q 324 408 324 443 l 324 0 l 79 0 m 878 822 l 878 1039 l 1119 1039 l 1119 822 l 878 822 m 776 -268 l 756 -89 l 811 -81 q 858 -56 840 -76 q 876 15 876 -36 l 876 703 l 1121 703 l 1121 19 q 1111 -90 1121 -42 q 1073 -174 1101 -139 q 990 -229 1044 -208 q 844 -261 935 -250 l 776 -268 z "},"ṉ":{"ha":806,"x_min":79,"x_max":728,"o":"m 79 0 l 79 703 l 296 703 l 296 571 l 307 571 q 389 678 335 639 q 515 718 443 718 q 628 688 581 718 q 702 598 676 658 q 728 446 728 538 l 728 0 l 483 0 l 483 426 q 476 479 483 460 q 451 508 468 499 q 413 518 435 518 q 369 505 389 518 q 336 467 349 492 q 324 408 324 443 l 324 0 l 79 0 m 183 -271 l 183 -111 l 619 -111 l 619 -271 l 183 -271 z "},"ñ":{"ha":806,"x_min":79,"x_max":728,"o":"m 79 0 l 79 703 l 296 703 l 296 571 l 307 571 q 389 678 335 639 q 515 718 443 718 q 628 688 581 718 q 702 598 676 658 q 728 446 728 538 l 728 0 l 483 0 l 483 426 q 476 479 483 460 q 451 508 468 499 q 413 518 435 518 q 369 505 389 518 q 336 467 349 492 q 324 408 324 443 l 324 0 l 79 0 m 267 806 l 158 814 q 194 969 158 908 q 303 1029 231 1029 q 374 1013 343 1029 q 424 986 404 996 q 460 968 439 979 q 500 957 481 957 q 533 977 524 957 q 543 1032 542 997 l 653 1025 q 617 869 654 929 q 508 808 581 808 q 437 825 467 808 q 386 850 407 842 q 351 870 371 858 q 311 882 331 882 q 278 861 288 882 q 267 806 269 840 z "},"ŋ":{"ha":806,"x_min":79,"x_max":728,"o":"m 383 -268 l 364 -89 l 419 -81 q 465 -56 447 -76 q 483 15 483 -36 l 483 426 q 476 479 483 460 q 451 508 468 499 q 411 518 435 518 q 368 504 388 518 q 336 467 349 490 q 324 408 324 443 l 324 0 l 79 0 l 79 703 l 296 703 l 296 571 l 307 571 q 389 678 335 639 q 515 718 443 718 q 628 688 579 718 q 702 598 676 658 q 728 446 728 538 l 728 0 q 716 -101 726 -57 q 676 -178 706 -146 q 592 -230 646 -210 q 451 -261 539 -250 l 383 -268 z "},"o":{"ha":778,"x_min":56,"x_max":724,"o":"m 390 -15 q 208 28 283 -15 q 94 155 133 72 q 56 353 56 238 q 94 549 56 467 q 208 674 133 631 q 389 718 283 718 q 571 674 497 718 q 684 549 644 631 q 724 353 724 467 q 685 155 724 238 q 572 28 646 72 q 390 -15 497 -15 m 390 171 q 466 216 443 171 q 489 353 489 261 q 466 490 489 447 q 389 532 443 532 q 313 490 336 532 q 289 353 289 447 q 313 216 289 261 q 390 171 338 171 z "},"ó":{"ha":778,"x_min":56,"x_max":724,"o":"m 390 -15 q 208 28 283 -15 q 94 155 133 72 q 56 353 56 238 q 94 549 56 467 q 208 674 133 631 q 389 718 283 718 q 571 674 497 718 q 684 549 644 631 q 724 353 724 467 q 685 155 724 238 q 572 28 646 72 q 390 -15 497 -15 m 390 171 q 466 216 443 171 q 489 353 489 261 q 466 490 489 447 q 389 532 443 532 q 313 490 336 532 q 289 353 289 447 q 313 216 289 261 q 390 171 338 171 m 293 781 l 406 1053 l 644 1053 l 463 781 l 293 781 z "},"ŏ":{"ha":778,"x_min":56,"x_max":724,"o":"m 390 -15 q 208 28 283 -15 q 94 155 133 72 q 56 353 56 238 q 94 549 56 467 q 208 674 133 631 q 389 718 283 718 q 571 674 497 718 q 684 549 644 631 q 724 353 724 467 q 685 155 724 238 q 572 28 646 72 q 390 -15 497 -15 m 390 171 q 466 216 443 171 q 489 353 489 261 q 466 490 489 447 q 389 532 443 532 q 313 490 336 532 q 289 353 289 447 q 313 216 289 261 q 390 171 338 171 m 389 778 q 256 811 304 778 q 188 907 208 844 q 164 1054 167 969 l 301 1065 q 322 962 306 997 q 389 926 338 926 q 456 962 440 926 q 476 1065 472 997 l 614 1054 q 591 907 613 969 q 522 811 569 844 q 389 778 474 778 z "},"ô":{"ha":778,"x_min":56,"x_max":724,"o":"m 390 -15 q 208 28 283 -15 q 94 155 133 72 q 56 353 56 238 q 94 549 56 467 q 208 674 133 631 q 389 718 283 718 q 571 674 497 718 q 684 549 644 631 q 724 353 724 467 q 685 155 724 238 q 572 28 646 72 q 390 -15 497 -15 m 390 171 q 466 216 443 171 q 489 353 489 261 q 466 490 489 447 q 389 532 443 532 q 313 490 336 532 q 289 353 289 447 q 313 216 289 261 q 390 171 338 171 m 156 783 l 289 1053 l 489 1053 l 622 783 l 457 783 l 389 933 l 321 783 l 156 783 z "},"ố":{"ha":778,"x_min":56,"x_max":776,"o":"m 390 -15 q 208 28 283 -15 q 94 155 133 72 q 56 353 56 238 q 94 549 56 467 q 208 674 133 631 q 389 718 283 718 q 571 674 497 718 q 684 549 644 631 q 724 353 724 467 q 685 155 724 238 q 572 28 646 72 q 390 -15 497 -15 m 390 171 q 466 216 443 171 q 489 353 489 261 q 466 490 489 447 q 389 532 443 532 q 313 490 336 532 q 289 353 289 447 q 313 216 289 261 q 390 171 338 171 m 164 792 l 297 1038 l 489 1038 l 622 792 l 461 792 l 393 928 l 325 792 l 164 792 m 550 988 l 614 1200 l 776 1200 l 675 988 l 550 988 z "},"ộ":{"ha":778,"x_min":56,"x_max":724,"o":"m 390 -15 q 208 28 283 -15 q 94 155 133 72 q 56 353 56 238 q 94 549 56 467 q 208 674 133 631 q 389 718 283 718 q 571 674 497 718 q 684 549 644 631 q 724 353 724 467 q 685 155 724 238 q 572 28 646 72 q 390 -15 497 -15 m 390 171 q 466 216 443 171 q 489 353 489 261 q 466 490 489 447 q 389 532 443 532 q 313 490 336 532 q 289 353 289 447 q 313 216 289 261 q 390 171 338 171 m 286 -306 l 286 -106 l 492 -106 l 492 -306 l 286 -306 m 156 783 l 289 1053 l 489 1053 l 622 783 l 457 783 l 389 933 l 321 783 l 156 783 z "},"ồ":{"ha":778,"x_min":56,"x_max":724,"o":"m 390 -15 q 208 28 283 -15 q 94 155 133 72 q 56 353 56 238 q 94 549 56 467 q 208 674 133 631 q 389 718 283 718 q 571 674 497 718 q 684 549 644 631 q 724 353 724 467 q 685 155 724 238 q 572 28 646 72 q 390 -15 497 -15 m 390 171 q 466 216 443 171 q 489 353 489 261 q 466 490 489 447 q 389 532 443 532 q 313 490 336 532 q 289 353 289 447 q 313 216 289 261 q 390 171 338 171 m 164 792 l 297 1038 l 489 1038 l 622 792 l 461 792 l 393 928 l 325 792 l 164 792 m 582 988 l 481 1200 l 644 1200 l 707 988 l 582 988 z "},"ổ":{"ha":778,"x_min":56,"x_max":743,"o":"m 390 -15 q 208 28 283 -15 q 94 155 133 72 q 56 353 56 238 q 94 549 56 467 q 208 674 133 631 q 389 718 283 718 q 571 674 497 718 q 684 549 644 631 q 724 353 724 467 q 685 155 724 238 q 572 28 646 72 q 390 -15 497 -15 m 390 171 q 466 216 443 171 q 489 353 489 261 q 466 490 489 447 q 389 532 443 532 q 313 490 336 532 q 289 353 289 447 q 313 216 289 261 q 390 171 338 171 m 164 801 l 297 1047 l 489 1047 l 622 801 l 461 801 l 393 938 l 325 801 l 164 801 m 546 999 q 552 1031 546 1017 q 566 1058 558 1046 q 579 1081 574 1071 q 585 1104 585 1092 q 577 1122 585 1117 q 550 1126 569 1126 q 524 1122 538 1126 q 499 1110 510 1118 l 472 1194 q 536 1219 500 1211 q 614 1226 572 1226 q 710 1205 676 1226 q 743 1144 743 1183 q 732 1103 743 1121 q 707 1069 721 1085 q 681 1037 693 1054 q 668 999 669 1019 l 546 999 z "},"ỗ":{"ha":778,"x_min":56,"x_max":724,"o":"m 390 -15 q 208 28 283 -15 q 94 155 133 72 q 56 353 56 238 q 94 549 56 467 q 208 674 133 631 q 389 718 283 718 q 571 674 497 718 q 684 549 644 631 q 724 353 724 467 q 685 155 724 238 q 572 28 646 72 q 390 -15 497 -15 m 390 171 q 466 216 443 171 q 489 353 489 261 q 466 490 489 447 q 389 532 443 532 q 313 490 336 532 q 289 353 289 447 q 313 216 289 261 q 390 171 338 171 m 161 792 l 294 1017 l 486 1017 l 619 792 l 454 792 l 390 915 l 325 792 l 161 792 m 258 1060 l 150 1065 q 166 1156 154 1117 q 208 1217 178 1194 q 294 1240 239 1240 q 364 1226 335 1240 q 413 1200 393 1213 q 439 1185 421 1194 q 475 1175 457 1175 q 506 1194 496 1175 q 519 1242 517 1213 l 629 1235 q 591 1109 624 1158 q 475 1060 558 1060 q 410 1073 436 1060 q 367 1096 383 1086 q 335 1115 350 1107 q 304 1124 319 1124 q 272 1106 283 1124 q 258 1060 261 1088 z "},"ȍ":{"ha":778,"x_min":56,"x_max":724,"o":"m 390 -15 q 208 28 283 -15 q 94 155 133 72 q 56 353 56 238 q 94 549 56 467 q 208 674 133 631 q 389 718 283 718 q 571 674 497 718 q 684 549 644 631 q 724 353 724 467 q 685 155 724 238 q 572 28 646 72 q 390 -15 497 -15 m 390 171 q 466 216 443 171 q 489 353 489 261 q 466 490 489 447 q 389 532 443 532 q 313 490 336 532 q 289 353 289 447 q 313 216 289 261 q 390 171 338 171 m 440 781 l 331 1053 l 524 1053 l 569 781 l 440 781 m 218 781 l 107 1053 l 301 1053 l 347 781 l 218 781 z "},"ö":{"ha":778,"x_min":56,"x_max":724,"o":"m 390 -15 q 208 28 283 -15 q 94 155 133 72 q 56 353 56 238 q 94 549 56 467 q 208 674 133 631 q 389 718 283 718 q 571 674 497 718 q 684 549 644 631 q 724 353 724 467 q 685 155 724 238 q 572 28 646 72 q 390 -15 497 -15 m 390 171 q 466 216 443 171 q 489 353 489 261 q 466 490 489 447 q 389 532 443 532 q 313 490 336 532 q 289 353 289 447 q 313 216 289 261 q 390 171 338 171 m 431 819 l 431 1028 l 636 1028 l 636 819 l 431 819 m 142 819 l 142 1028 l 347 1028 l 347 819 l 142 819 z "},"ȫ":{"ha":778,"x_min":56,"x_max":724,"o":"m 390 -15 q 208 28 283 -15 q 94 155 133 72 q 56 353 56 238 q 94 549 56 467 q 208 674 133 631 q 389 718 283 718 q 571 674 497 718 q 684 549 644 631 q 724 353 724 467 q 685 155 724 238 q 572 28 646 72 q 390 -15 497 -15 m 390 171 q 466 216 443 171 q 489 353 489 261 q 466 490 489 447 q 389 532 443 532 q 313 490 336 532 q 289 353 289 447 q 313 216 289 261 q 390 171 338 171 m 171 1033 l 171 1181 l 607 1181 l 607 1033 l 171 1033 m 153 799 l 153 958 l 358 958 l 358 799 l 153 799 m 419 799 l 419 958 l 625 958 l 625 799 l 419 799 z "},"ȱ":{"ha":778,"x_min":56,"x_max":724,"o":"m 390 -15 q 208 28 283 -15 q 94 155 133 72 q 56 353 56 238 q 94 549 56 467 q 208 674 133 631 q 389 718 283 718 q 571 674 497 718 q 684 549 644 631 q 724 353 724 467 q 685 155 724 238 q 572 28 646 72 q 390 -15 497 -15 m 390 171 q 466 216 443 171 q 489 353 489 261 q 466 490 489 447 q 389 532 443 532 q 313 490 336 532 q 289 353 289 447 q 313 216 289 261 q 390 171 338 171 m 174 1053 l 174 1200 l 604 1200 l 604 1053 l 174 1053 m 286 797 l 286 978 l 493 978 l 493 797 l 286 797 z "},"ọ":{"ha":778,"x_min":56,"x_max":724,"o":"m 390 -15 q 208 28 283 -15 q 94 155 133 72 q 56 353 56 238 q 94 549 56 467 q 208 674 133 631 q 389 718 283 718 q 571 674 497 718 q 684 549 644 631 q 724 353 724 467 q 685 155 724 238 q 572 28 646 72 q 390 -15 497 -15 m 390 171 q 466 216 443 171 q 489 353 489 261 q 466 490 489 447 q 389 532 443 532 q 313 490 336 532 q 289 353 289 447 q 313 216 289 261 q 390 171 338 171 m 286 -306 l 286 -106 l 492 -106 l 492 -306 l 286 -306 z "},"ò":{"ha":778,"x_min":56,"x_max":724,"o":"m 390 -15 q 208 28 283 -15 q 94 155 133 72 q 56 353 56 238 q 94 549 56 467 q 208 674 133 631 q 389 718 283 718 q 571 674 497 718 q 684 549 644 631 q 724 353 724 467 q 685 155 724 238 q 572 28 646 72 q 390 -15 497 -15 m 390 171 q 466 216 443 171 q 489 353 489 261 q 466 490 489 447 q 389 532 443 532 q 313 490 336 532 q 289 353 289 447 q 313 216 289 261 q 390 171 338 171 m 315 792 l 135 1053 l 372 1053 l 485 792 l 315 792 z "},"ỏ":{"ha":778,"x_min":56,"x_max":724,"o":"m 390 -15 q 208 28 283 -15 q 94 155 133 72 q 56 353 56 238 q 94 549 56 467 q 208 674 133 631 q 389 718 283 718 q 571 674 497 718 q 684 549 644 631 q 724 353 724 467 q 685 155 724 238 q 572 28 646 72 q 390 -15 497 -15 m 390 171 q 466 216 443 171 q 489 353 489 261 q 466 490 489 447 q 389 532 443 532 q 313 490 336 532 q 289 353 289 447 q 313 216 289 261 q 390 171 338 171 m 310 792 l 310 824 q 319 867 310 849 q 340 899 329 885 q 360 928 351 913 q 369 961 369 943 q 359 987 369 978 q 328 996 349 996 q 293 991 313 996 q 257 976 274 986 l 219 1075 q 298 1103 253 1093 q 392 1113 343 1113 q 524 1083 479 1113 q 568 997 568 1053 q 553 937 568 961 q 517 895 538 913 q 482 860 497 878 q 467 815 467 842 l 467 792 l 310 792 z "},"ơ":{"ha":778,"x_min":56,"x_max":760,"o":"m 390 -15 q 208 28 283 -15 q 94 155 133 72 q 56 353 56 238 q 94 549 56 467 q 208 674 133 631 q 389 718 283 718 q 571 674 497 718 q 684 549 644 631 q 724 353 724 467 q 685 155 724 238 q 572 28 646 72 q 390 -15 497 -15 m 390 171 q 466 216 443 171 q 489 353 489 261 q 466 490 489 447 q 389 532 443 532 q 313 490 336 532 q 289 353 289 447 q 313 216 289 261 q 390 171 338 171 m 622 593 l 483 682 l 483 703 q 533 716 515 703 q 559 759 551 729 q 567 838 567 789 l 567 863 l 760 863 l 760 810 q 742 707 760 753 q 694 631 725 661 q 622 593 664 601 z "},"ớ":{"ha":778,"x_min":56,"x_max":760,"o":"m 390 -15 q 208 28 283 -15 q 94 155 133 72 q 56 353 56 238 q 94 549 56 467 q 208 674 133 631 q 389 718 283 718 q 571 674 497 718 q 684 549 644 631 q 724 353 724 467 q 685 155 724 238 q 572 28 646 72 q 390 -15 497 -15 m 390 171 q 466 216 443 171 q 489 353 489 261 q 466 490 489 447 q 389 532 443 532 q 313 490 336 532 q 289 353 289 447 q 313 216 289 261 q 390 171 338 171 m 622 593 l 483 682 l 483 703 q 533 716 515 703 q 559 759 551 729 q 567 838 567 789 l 567 863 l 760 863 l 760 810 q 742 707 760 753 q 694 631 725 661 q 622 593 664 601 m 293 781 l 406 1053 l 644 1053 l 463 781 l 293 781 z "},"ợ":{"ha":778,"x_min":56,"x_max":760,"o":"m 390 -15 q 208 28 283 -15 q 94 155 133 72 q 56 353 56 238 q 94 549 56 467 q 208 674 133 631 q 389 718 283 718 q 571 674 497 718 q 684 549 644 631 q 724 353 724 467 q 685 155 724 238 q 572 28 646 72 q 390 -15 497 -15 m 390 171 q 466 216 443 171 q 489 353 489 261 q 466 490 489 447 q 389 532 443 532 q 313 490 336 532 q 289 353 289 447 q 313 216 289 261 q 390 171 338 171 m 622 593 l 483 682 l 483 703 q 533 716 515 703 q 559 759 551 729 q 567 838 567 789 l 567 863 l 760 863 l 760 810 q 742 707 760 753 q 694 631 725 661 q 622 593 664 601 m 286 -307 l 286 -107 l 492 -107 l 492 -307 l 286 -307 z "},"ờ":{"ha":778,"x_min":56,"x_max":760,"o":"m 390 -15 q 208 28 283 -15 q 94 155 133 72 q 56 353 56 238 q 94 549 56 467 q 208 674 133 631 q 389 718 283 718 q 571 674 497 718 q 684 549 644 631 q 724 353 724 467 q 685 155 724 238 q 572 28 646 72 q 390 -15 497 -15 m 390 171 q 466 216 443 171 q 489 353 489 261 q 466 490 489 447 q 389 532 443 532 q 313 490 336 532 q 289 353 289 447 q 313 216 289 261 q 390 171 338 171 m 622 593 l 483 682 l 483 703 q 533 716 515 703 q 559 759 551 729 q 567 838 567 789 l 567 863 l 760 863 l 760 810 q 742 707 760 753 q 694 631 725 661 q 622 593 664 601 m 315 792 l 135 1053 l 372 1053 l 485 792 l 315 792 z "},"ở":{"ha":778,"x_min":56,"x_max":760,"o":"m 390 -15 q 208 28 283 -15 q 94 155 133 72 q 56 353 56 238 q 94 549 56 467 q 208 674 133 631 q 389 718 283 718 q 571 674 497 718 q 684 549 644 631 q 724 353 724 467 q 685 155 724 238 q 572 28 646 72 q 390 -15 497 -15 m 390 171 q 466 216 443 171 q 489 353 489 261 q 466 490 489 447 q 389 532 443 532 q 313 490 336 532 q 289 353 289 447 q 313 216 289 261 q 390 171 338 171 m 622 593 l 483 682 l 483 703 q 533 716 515 703 q 559 759 551 729 q 567 838 567 789 l 567 863 l 760 863 l 760 810 q 742 707 760 753 q 694 631 725 661 q 622 593 664 601 m 310 792 l 310 824 q 319 867 310 849 q 340 899 329 885 q 360 928 351 913 q 369 961 369 943 q 359 987 369 978 q 328 996 349 996 q 293 991 313 996 q 257 976 274 986 l 219 1075 q 298 1103 253 1093 q 392 1113 343 1113 q 524 1083 479 1113 q 568 997 568 1053 q 553 937 568 961 q 517 895 538 913 q 482 860 497 878 q 467 815 467 842 l 467 792 l 310 792 z "}}}
